<?xml version="1.0" encoding="utf-8"?>
<!-- Generator: Adobe Illustrator 21.1.0, SVG Export Plug-In . SVG Version: 6.00 Build 0)  -->
<svg version="1.1" id="Layer_1" xmlns="http://www.w3.org/2000/svg" xmlns:xlink="http://www.w3.org/1999/xlink" x="0px" y="0px"
	 viewBox="0 0 600 600" style="enable-background:new 0 0 600 600;" xml:space="preserve">
<style type="text/css">
	.st0{fill:#E6E7E8;}
	.st1{fill:none;stroke:#231F20;stroke-miterlimit:10;}
	.st2{fill:#FFFFFF;}
	.st3{fill:#BCBEC0;}
	.st4{fill:#6D6E71;}
	.st5{fill:none;}
</style>
<rect x="185.6" y="199.6" width="41" height="96"/>
<rect x="222.1" y="192.1" width="49.5" height="73.5"/>
<rect x="259.6" y="172.6" width="88.5" height="73.5"/>
<rect x="300.1" y="141.5" width="28.5" height="151.5"/>
<rect x="259.6" y="159.1" width="37.5" height="81"/>
<rect x="370.6" y="169.6" width="49.5" height="151.5"/>
<rect x="220.6" y="178.6" width="15" height="73.5"/>
<polygon class="st0" points="440.2,341.5 319.3,471.8 310.6,481.2 304.6,487.7 201.7,598.6 61.3,598.6 67.2,592.2 76.4,582.3 
	92.3,565.2 99,558 304.6,336.4 310.6,329.9 319.3,320.5 364.8,271.5 "/>
<line class="st1" x1="42.2" y1="598.3" x2="42" y2="598"/>
<rect x="1.6" y="217.6" width="603" height="126"/>
<polyline class="st1" points="47.6,586.8 49.6,588.6 60.8,598.6 61,598.8 "/>
<line class="st1" x1="53.9" y1="578.9" x2="70.1" y2="595.1"/>
<line class="st1" x1="62.3" y1="565.2" x2="81.7" y2="588.8"/>
<line class="st1" x1="69" y1="556" x2="83" y2="574"/>
<line class="st1" x1="78" y1="542" x2="94" y2="568"/>
<line class="st1" x1="84" y1="528" x2="101" y2="562"/>
<line class="st1" x1="88" y1="514" x2="103" y2="549"/>
<line class="st1" x1="96" y1="502" x2="111" y2="546"/>
<line class="st1" x1="104" y1="490" x2="119" y2="542"/>
<line class="st1" x1="109" y1="477" x2="125" y2="536"/>
<line class="st1" x1="115" y1="465" x2="130" y2="526"/>
<line class="st1" x1="120" y1="453" x2="138" y2="516"/>
<line class="st1" x1="126" y1="438" x2="148" y2="516"/>
<line class="st1" x1="133" y1="424" x2="155" y2="513"/>
<line class="st1" x1="137" y1="407" x2="158" y2="498"/>
<line class="st1" x1="143" y1="393" x2="165" y2="491"/>
<line class="st1" x1="150" y1="373" x2="173" y2="488"/>
<line class="st1" x1="158" y1="353" x2="180" y2="480"/>
<line class="st1" x1="163" y1="337" x2="187" y2="472"/>
<line class="st1" x1="167" y1="314" x2="193" y2="469"/>
<line class="st1" x1="172" y1="295" x2="197" y2="455"/>
<line class="st1" x1="179" y1="261" x2="202" y2="444"/>
<line class="st1" x1="183" y1="233" x2="210" y2="438"/>
<line class="st1" x1="189" y1="213" x2="215" y2="432"/>
<line class="st1" x1="193" y1="171" x2="220" y2="425"/>
<rect x="209.7" y="97.4" transform="matrix(-0.9945 0.1046 -0.1046 -0.9945 452.7647 499.3333)" class="st2" width="7.1" height="328.3"/>
<rect x="240.7" y="193.1" class="st3" width="10.1" height="216.1"/>
<rect x="190.2" y="107.5" class="st3" width="12.1" height="351.1"/>
<rect x="290.6" y="262.6" class="st3" width="8.4" height="90.4"/>
<rect x="376.7" y="262.6" class="st3" width="8.9" height="159.4"/>
<rect x="288.9" y="234.4" class="st4" width="8.4" height="29.9"/>
<rect x="378.4" y="234.4" class="st4" width="8.9" height="30.4"/>
<rect x="333" y="227.8" class="st4" width="9.4" height="36.5"/>
<rect x="292.2" y="295.6" transform="matrix(0.7071 0.7071 -0.7071 0.7071 306.3251 -138.6521)" class="st3" width="56.7" height="9.7"/>
<rect x="332.7" y="335.3" transform="matrix(0.7071 0.7071 -0.7071 0.7071 346.258 -155.6674)" class="st3" width="56.7" height="9.7"/>
<circle class="st3" cx="301.1" cy="280.5" r="9.7"/>
<circle class="st3" cx="372.9" cy="281" r="9.7"/>
<circle class="st3" cx="338.4" cy="321" r="9.7"/>
<rect x="328.6" y="292.9" transform="matrix(-0.7071 0.7071 -0.7071 -0.7071 819.9555 255.8471)" class="st3" width="56.7" height="9.7"/>
<rect x="299.7" y="332.7" transform="matrix(-0.7071 0.7071 -0.7071 -0.7071 783.8491 350.3532)" class="st3" width="39.4" height="9.7"/>
<rect x="288.9" y="262.6" class="st4" width="99.1" height="15.4"/>
<rect x="288.6" y="242.1" class="st4" width="99.1" height="4.9"/>
<rect x="357.7" y="242.8" class="st4" width="4.7" height="21.9"/>
<rect x="312.9" y="242.9" class="st4" width="4.7" height="21.9"/>
<rect x="338" y="193.1" class="st3" width="8" height="282.9"/>
<rect x="238.8" y="164.5" class="st4" width="9.5" height="30.1"/>
<rect x="340" y="164.5" class="st4" width="10.1" height="30.7"/>
<rect x="288.6" y="157.9" class="st4" width="10.6" height="36.8"/>
<polygon class="st3" points="293.3,254.9 248,214.4 255.8,207.5 301.1,248 "/>
<polygon class="st3" points="287.8,317.9 242.5,277.4 250.3,270.5 295.6,310.9 "/>
<polygon class="st3" points="339.1,295 293.8,254.5 301.6,247.6 346.9,288 "/>
<polygon class="st3" points="340.9,366.1 295.6,325.6 303.4,318.7 348.7,359.2 "/>
<ellipse class="st3" cx="252.6" cy="211" rx="11" ry="9.8"/>
<ellipse class="st3" cx="333.8" cy="211.6" rx="11" ry="9.8"/>
<ellipse class="st3" cx="294.7" cy="251.9" rx="11" ry="9.8"/>
<ellipse class="st3" cx="294.7" cy="319.8" rx="11" ry="9.8"/>
<polygon class="st3" points="297,252.2 342.3,211.7 334.5,204.8 289.2,245.2 "/>
<polygon class="st3" points="300.6,326 346,285.6 338.2,278.6 292.9,319.1 "/>
<polygon class="st3" points="247.5,298.5 292.9,258 285.1,251.1 239.8,291.6 "/>
<polygon class="st3" points="250,369.1 295.3,328.6 287.5,321.7 242.2,362.2 "/>
<rect x="238.8" y="193.1" class="st4" width="112" height="15.5"/>
<rect x="238.5" y="172.3" class="st4" width="112" height="4.9"/>
<rect x="316.6" y="173" class="st4" width="5.3" height="22.1"/>
<rect x="265.9" y="173.2" class="st4" width="5.3" height="22.1"/>
<rect x="310.6" y="107.5" class="st3" width="8.8" height="491.1"/>
<rect x="304.6" y="94.7" class="st2" width="6" height="503.9"/>
<rect x="188" y="69.1" class="st4" width="11.4" height="40.6"/>
<rect x="309.6" y="69.1" class="st4" width="12.1" height="41.3"/>
<rect x="247.8" y="60.1" class="st4" width="12.7" height="49.6"/>
<rect x="192.4" y="152.2" transform="matrix(0.7071 0.7071 -0.7071 0.7071 179.9578 -116.7631)" class="st3" width="77" height="13.2"/>
<rect x="185.8" y="237" transform="matrix(0.7071 0.7071 -0.7071 0.7071 237.9498 -87.2713)" class="st3" width="77" height="13.2"/>
<rect x="183.6" y="329.4" transform="matrix(0.7071 0.7071 -0.7071 0.7071 302.679 -58.636)" class="st3" width="77" height="13.2"/>
<rect x="247.4" y="206.2" transform="matrix(0.7071 0.7071 -0.7071 0.7071 234.211 -139.8803)" class="st3" width="77" height="13.2"/>
<rect x="249.6" y="301.9" transform="matrix(0.7071 0.7071 -0.7071 0.7071 302.5646 -113.3909)" class="st3" width="77" height="13.2"/>
<rect x="248.5" y="391.1" transform="matrix(0.7071 0.7071 -0.7071 0.7071 365.2814 -86.5009)" class="st3" width="77" height="13.2"/>
<circle class="st3" cx="204.5" cy="131.7" r="13.2"/>
<circle class="st3" cx="302.1" cy="132.4" r="13.2"/>
<circle class="st3" cx="255.1" cy="186.7" r="13.2"/>
<circle class="st3" cx="255.1" cy="278.1" r="13.2"/>
<circle class="st3" cx="257.3" cy="368.3" r="13.2"/>
<rect x="241.9" y="148.6" transform="matrix(-0.7071 0.7071 -0.7071 -0.7071 588.502 66.5938)" class="st3" width="77" height="13.2"/>
<rect x="246.3" y="248" transform="matrix(-0.7071 0.7071 -0.7071 -0.7071 666.3209 233.2086)" class="st3" width="77" height="13.2"/>
<rect x="247.1" y="339.7" transform="matrix(-0.7071 0.7071 -0.7071 -0.7071 732.4288 389.2642)" class="st3" width="77" height="13.2"/>
<rect x="182.5" y="210.9" transform="matrix(-0.7071 0.7071 -0.7071 -0.7071 531.1364 215.088)" class="st3" width="77" height="13.2"/>
<rect x="185.4" y="306" transform="matrix(-0.7071 0.7071 -0.7071 -0.7071 603.3372 375.2233)" class="st3" width="77" height="13.2"/>
<rect x="186.5" y="392.9" transform="matrix(-0.7666 0.6422 -0.6422 -0.7666 654.1366 561.2444)" class="st3" width="77" height="13.2"/>
<rect x="188" y="107.5" class="st4" width="134.6" height="20.9"/>
<rect x="187.6" y="79.6" class="st4" width="134.6" height="6.6"/>
<rect x="281.5" y="80.5" class="st4" width="6.3" height="29.7"/>
<rect x="220.6" y="80.7" class="st4" width="6.3" height="29.7"/>
<rect x="-613.8" y="97.5" class="st3" width="12.1" height="351.1"/>
<rect x="-496.7" y="97.5" class="st3" width="12.1" height="351.1"/>
<rect x="-616" y="59.1" class="st4" width="11.4" height="40.6"/>
<rect x="-494.4" y="59.1" class="st4" width="12.1" height="41.3"/>
<rect x="-556.2" y="50.1" class="st4" width="12.7" height="49.6"/>
<rect x="-611.6" y="142.2" transform="matrix(0.7071 0.7071 -0.7071 0.7071 -62.5854 448.7923)" class="st3" width="77" height="13.2"/>
<rect x="-618.2" y="227" transform="matrix(0.7071 0.7071 -0.7071 0.7071 -4.5934 478.2841)" class="st3" width="77" height="13.2"/>
<rect x="-620.4" y="319.4" transform="matrix(0.7071 0.7071 -0.7071 0.7071 60.1358 506.9194)" class="st3" width="77" height="13.2"/>
<rect x="-556.5" y="196.2" transform="matrix(0.7071 0.7071 -0.7071 0.7071 -8.3322 425.6751)" class="st3" width="77" height="13.2"/>
<rect x="-554.3" y="291.9" transform="matrix(0.7071 0.7071 -0.7071 0.7071 60.0213 452.1645)" class="st3" width="77" height="13.2"/>
<rect x="-555.4" y="381.1" transform="matrix(0.7071 0.7071 -0.7071 0.7071 122.7382 479.0545)" class="st3" width="77" height="13.2"/>
<circle class="st3" cx="-599.4" cy="121.7" r="13.2"/>
<circle class="st3" cx="-501.9" cy="122.4" r="13.2"/>
<circle class="st3" cx="-548.8" cy="176.7" r="13.2"/>
<circle class="st3" cx="-548.8" cy="268.1" r="13.2"/>
<circle class="st3" cx="-546.6" cy="358.3" r="13.2"/>
<rect x="-562" y="138.6" transform="matrix(-0.7071 0.7071 -0.7071 -0.7071 -791.0087 618.0101)" class="st3" width="77" height="13.2"/>
<rect x="-557.6" y="238" transform="matrix(-0.7071 0.7071 -0.7071 -0.7071 -713.1898 784.6249)" class="st3" width="77" height="13.2"/>
<rect x="-556.9" y="329.7" transform="matrix(-0.7071 0.7071 -0.7071 -0.7071 -647.0819 940.6804)" class="st3" width="77" height="13.2"/>
<rect x="-621.5" y="200.9" transform="matrix(-0.7071 0.7071 -0.7071 -0.7071 -848.3743 766.5042)" class="st3" width="77" height="13.2"/>
<rect x="-618.5" y="296" transform="matrix(-0.7071 0.7071 -0.7071 -0.7071 -776.1735 926.6395)" class="st3" width="77" height="13.2"/>
<rect x="-617.4" y="382.9" transform="matrix(-0.7666 0.6422 -0.6422 -0.7666 -772.5229 1059.8618)" class="st3" width="77" height="13.2"/>
<rect x="-616" y="97.5" class="st4" width="134.6" height="20.9"/>
<rect x="-616.4" y="69.6" class="st4" width="134.6" height="6.6"/>
<rect x="-522.5" y="70.5" class="st4" width="6.3" height="29.7"/>
<rect x="-583.4" y="70.7" class="st4" width="6.3" height="29.7"/>
<line class="st5" x1="-205.9" y1="824" x2="-215.2" y2="818.7"/>
<line class="st5" x1="0.1" y1="563.7" x2="0.1" y2="554.9"/>
<rect x="1.6" y="156.1" width="37.5" height="81"/>
<rect x="340.6" y="69.1" width="49.5" height="151.5"/>
<rect x="453.1" y="127.6" width="49.5" height="151.5"/>
<rect x="513.1" y="145.6" width="49.5" height="151.5"/>
<rect x="490.6" y="192.1" width="36" height="73.5"/>
<rect x="550.6" y="204.1" width="49.5" height="73.5"/>
<rect x="33.1" y="202.6" width="49.5" height="73.5"/>
<rect x="585.1" y="190.6" width="15" height="73.5"/>
<rect x="436.1" y="204.1" width="15" height="73.5"/>
<rect x="91.1" y="163.6" width="27.5" height="73.5"/>
<rect x="145.1" y="136.6" width="41" height="96"/>
<rect x="109.1" y="183.1" width="41" height="96"/>
<rect x="417.1" y="153.1" width="15" height="73.5"/>
<polygon points="61.3,598.6 61,598.8 60.8,598.6 "/>
<path class="st2" d="M138.5,418.8c-16,42-33.8,80-52.6,113.1c-2.3,4-4.6,8-6.9,11.8c-2.9,4.8-5.7,9.5-8.6,14.1
	c-2.1,3.3-4.2,6.5-6.3,9.7c-2.9,4.4-5.8,8.7-8.8,12.9c-2,2.8-3.9,5.5-5.9,8.1c-2.4,3.3-4.9,6.5-7.4,9.7c-0.1,0.1-0.2,0.2-0.2,0.3
	c-3.5,4.5-7.1,8.9-10.7,13.1l0-9.7c0.9-1.1,1.7-2.2,2.6-3.4c34.3-44.4,67.4-105,95-177.8c44-115.7,64.1-236.4,59.6-329.2l9.7,1.2
	C202.2,185.2,182,304.4,138.5,418.8z"/>
</svg>
