<?xml version="1.0" encoding="utf-8"?>
<!-- Generator: Adobe Illustrator 21.1.0, SVG Export Plug-In . SVG Version: 6.00 Build 0)  -->
<svg version="1.1" id="Layer_1" xmlns="http://www.w3.org/2000/svg" xmlns:xlink="http://www.w3.org/1999/xlink" x="0px" y="0px"
	 viewBox="0 0 600 600" style="enable-background:new 0 0 600 600;" xml:space="preserve">
<style type="text/css">
	.st0{fill:#58595B;}
	.st1{fill:#FCFC9F;}
</style>
<path class="st0" d="M324,479h-53c-6.6,0-12-5.4-12-12v-17c0-6.6,5.4-12,12-12h53c6.6,0,12,5.4,12,12v17
	C336,473.6,330.6,479,324,479z"/>
<path class="st1" d="M327.4,213.5c0,0-0.1,0-0.1,0.1C327.3,213.5,327.3,213.5,327.4,213.5L327.4,213.5z"/>
<path class="st1" d="M313.6,223.4c-0.7,0-1.5,0.1-2.2,0.1c0.6-0.2,1.2-0.4,1.7-0.5C313.3,223.1,313.4,223.2,313.6,223.4z"/>
<path class="st1" d="M313.6,223.4c-0.7,0-1.5,0.1-2.2,0.1c0.6-0.2,1.2-0.4,1.7-0.5C313.3,223.1,313.4,223.2,313.6,223.4z"/>
<path class="st1" d="M327.4,213.5c0,0-0.1,0-0.1,0.1C327.3,213.5,327.3,213.5,327.4,213.5L327.4,213.5z"/>
<path class="st1" d="M288.3,188.4c-2.4,0.2-4.7,0.5-7,1C283.2,188.8,285.5,188.5,288.3,188.4z"/>
</svg>
