<?xml version="1.0" encoding="utf-8"?>
<!-- Generator: Adobe Illustrator 21.1.0, SVG Export Plug-In . SVG Version: 6.00 Build 0)  -->
<svg version="1.1" id="Layer_1" xmlns="http://www.w3.org/2000/svg" xmlns:xlink="http://www.w3.org/1999/xlink" x="0px" y="0px"
	 viewBox="0 0 600 600" style="enable-background:new 0 0 600 600;" xml:space="preserve">
<style type="text/css">
	.st0{fill:#B5B1AC;}
	.st1{fill:#BDE3F4;}
	.st2{fill:#FFFFFF;}
	.st3{fill:#808285;}
	.st4{fill:#FCFC9F;}
	.st5{fill:#231F20;}
</style>
<rect x="298" y="91" class="st0" width="13" height="67"/>
<path class="st0" d="M285,223.6c-10.7-6.9-16.5-20.2-13.6-33.8c3.6-16.9,19.3-28,35.5-25.4c-13.6,3-25,14.1-28.2,29.1
	C276.4,204.5,279,215.3,285,223.6z"/>
<path class="st1" d="M346.5,206.4c-0.1,0-0.1-0.1-0.2-0.1c-4-4.7-15.8-10.3-30.5-14.1c-6-2.5-13.6-4-21.9-4c-1.9,0-3.7,0.1-5.5,0.2
	c-2.4,0.2-4.7,0.5-7,1c-10.2,2-18.2,6.5-21.5,12.1c-0.4,0.8-0.8,1.5-1.1,2.3c-0.3,1-0.5,1.9-0.5,2.9l0,0v0.1c0,0.1,0,0.2,0,0.3
	c0,0.4,0,0.8,0.1,1.2c0.1,0.7,0.3,1.5,0.5,2.2l0,0c0.4,1.1,1,2.2,1.7,3.2c0.1,0.1,0.1,0.2,0.2,0.3c3.8,5,11.5,9,21.1,10.8
	c3.2,2.1,7.8,4.2,13.2,5.6c10.8,2.8,20.3,2,21.3-1.9c0.4-1.6-0.7-3.4-2.8-5.2c-0.7,0-1.5,0.1-2.2,0.1c0.6-0.2,1.2-0.4,1.7-0.5
	c0.2,0.1,0.4,0.3,0.5,0.4c6.7-0.4,12.6-1.4,16.9-2.6c2.4,1.6,5.5,3.1,9.1,4.4c8.4,3,16,3.1,17,0.3c0.6-1.6-1.3-3.9-4.6-6.1
	c3.6,0.6,6.2,0.2,6.8-1.3C360.1,215.4,354.5,210.2,346.5,206.4z M327.3,213.5L327.3,213.5c0.1-0.1,0.1-0.1,0.1-0.1
	C327.4,213.5,327.3,213.5,327.3,213.5z"/>
<path class="st2" d="M268.3,209.2c-0.4,2.7-3.5,4.6-7.4,4.9c-1.6-2.1-2.5-4.3-2.5-6.7c0-2,0.5-3.9,1.5-5.7l0,0
	C265.1,202.5,268.8,205.9,268.3,209.2z"/>
<path class="st3" d="M261.3,206.7c-0.3,1.1-1.4,1.7-2.6,1.7c-0.1,0-0.2,0-0.4,0l0,0l0,0c-0.1-0.5-0.1-1,0-1.6l0,0c0-1,0.2-2,0.5-2.9
	h0.1c0.1,0,0.2,0,0.4,0.1C260.7,204.2,261.6,205.5,261.3,206.7z"/>
<path class="st3" d="M266.2,206.5c0,0.3,0,0.7-0.1,1c-0.4,3.1-2.4,5.5-4.6,5.2c-1.1-0.1-2.1-1-2.7-2.2l0,0c-0.1-0.3-0.2-0.6-0.3-0.9
	c0,0,0,0,0-0.1c-0.1-0.4-0.2-0.8-0.2-1.2c-0.1-0.5-0.1-1,0-1.6l0,0c0,0,0,0,0-0.1v-0.1c0-0.2,0-0.3,0.1-0.5c0,0.8,0.1,1.6,0.3,2.3
	c0.5,1.6,1.6,2.7,2.9,2.9C263.7,211.5,265.7,209.4,266.2,206.5z"/>
<path class="st4" d="M327.4,213.5c0,0-0.1,0-0.1,0.1C327.3,213.5,327.3,213.5,327.4,213.5L327.4,213.5z"/>
<path class="st4" d="M313.6,223.4c-0.7,0-1.5,0.1-2.2,0.1c0.6-0.2,1.2-0.4,1.7-0.5C313.3,223.1,313.4,223.2,313.6,223.4z"/>
<path class="st4" d="M313.6,223.4c-0.7,0-1.5,0.1-2.2,0.1c0.6-0.2,1.2-0.4,1.7-0.5C313.3,223.1,313.4,223.2,313.6,223.4z"/>
<path class="st4" d="M327.4,213.5c0,0-0.1,0-0.1,0.1C327.3,213.5,327.3,213.5,327.4,213.5L327.4,213.5z"/>
<path class="st4" d="M288.3,188.4c-2.4,0.2-4.7,0.5-7,1C283.2,188.8,285.5,188.5,288.3,188.4z"/>
<circle class="st5" cx="273.3" cy="199.5" r="3.3"/>
<rect x="298" y="99" class="st0" width="13" height="67"/>
<path class="st0" d="M327.6,223.6c10.7-6.9,16.5-20.2,13.6-33.8c-3.6-16.9-19.3-28-35.5-25.4c13.6,3,25,14.1,28.2,29.1
	C336.1,204.5,333.5,215.3,327.6,223.6z"/>
<path class="st0" d="M293.7,226.5c12.6-1.2,24-10.3,27.8-23.7c4.7-16.6-4.1-33.8-19.7-39c10.6,9,15.6,24.1,11.4,38.8
	C310.2,213.5,302.9,221.9,293.7,226.5z"/>
</svg>
