<?xml version="1.0" encoding="utf-8"?>
<!-- Generator: Adobe Illustrator 21.1.0, SVG Export Plug-In . SVG Version: 6.00 Build 0)  -->
<svg version="1.1" id="Layer_1" xmlns="http://www.w3.org/2000/svg" xmlns:xlink="http://www.w3.org/1999/xlink" x="0px" y="0px"
	 viewBox="0 0 600 600" style="enable-background:new 0 0 600 600;" xml:space="preserve">
<style type="text/css">
	.st0{fill:#FFFFFF;}
	.st1{fill:#FCFC9F;}
	.st2{fill:#231F20;}
	.st3{fill:#808285;}
	.st4{fill:#FECAFF;}
	.st5{fill:#DFD7E0;}
	.st6{fill:#BDE3F4;}
	.st7{fill:#244CE0;}
	.st8{fill:#9AA0B2;}
	.st9{fill:#58595B;}
</style>
<rect x="135.2" y="71.1" class="st0" width="324.6" height="424.6"/>
<g>
	<path class="st1" d="M446.5,391.4c-0.1,0-0.1-0.1-0.2-0.1c-4-4.7-15.8-10.3-30.5-14.1c-6-2.5-13.6-4-21.9-4c-1.9,0-3.7,0.1-5.5,0.2
		c-2.4,0.2-4.7,0.5-7,1c-10.2,2-18.2,6.5-21.5,12.1c-0.4,0.8-0.8,1.5-1.1,2.3c-0.3,1-0.5,1.9-0.5,2.9v0c0,0,0,0.1,0,0.1
		c0,0.1,0,0.2,0,0.3c0,0.4,0,0.8,0.1,1.2c0.1,0.7,0.3,1.5,0.5,2.2c0,0,0,0,0,0c0.4,1.1,1,2.2,1.7,3.2c0.1,0.1,0.1,0.2,0.2,0.3
		c3.8,5,11.5,9,21.1,10.8c3.2,2.1,7.8,4.2,13.2,5.6c10.8,2.8,20.3,2,21.3-1.9c0.4-1.6-0.7-3.4-2.8-5.2c-0.7,0-1.5,0.1-2.2,0.1
		c0.6-0.2,1.2-0.4,1.7-0.5c0.2,0.1,0.4,0.3,0.5,0.4c6.7-0.4,12.6-1.4,16.9-2.6c2.4,1.6,5.5,3.1,9.1,4.4c8.4,3,16,3.1,17,0.3
		c0.6-1.6-1.3-3.9-4.6-6.1c3.6,0.6,6.2,0.2,6.8-1.3C460.1,400.4,454.5,395.2,446.5,391.4z M427.3,398.5
		C427.3,398.5,427.3,398.5,427.3,398.5c0.1-0.1,0.1-0.1,0.1-0.1C427.4,398.5,427.3,398.5,427.3,398.5z"/>
	<path class="st1" d="M427.4,398.5c0,0-0.1,0-0.1,0.1C427.3,398.5,427.3,398.5,427.4,398.5C427.4,398.5,427.4,398.5,427.4,398.5z"/>
	<path class="st1" d="M413.6,408.4c-0.7,0-1.5,0.1-2.2,0.1c0.6-0.2,1.2-0.4,1.7-0.5C413.3,408.1,413.4,408.2,413.6,408.4z"/>
	<path class="st1" d="M413.6,408.4c-0.7,0-1.5,0.1-2.2,0.1c0.6-0.2,1.2-0.4,1.7-0.5C413.3,408.1,413.4,408.2,413.6,408.4z"/>
	<path class="st1" d="M427.4,398.5c0,0-0.1,0-0.1,0.1C427.3,398.5,427.3,398.5,427.4,398.5C427.4,398.5,427.4,398.5,427.4,398.5z"/>
	<path class="st1" d="M388.3,373.4c-2.4,0.2-4.7,0.5-7,1C383.2,373.8,385.5,373.5,388.3,373.4z"/>
	<circle class="st2" cx="373.3" cy="384.5" r="3.3"/>
	<path class="st0" d="M368.3,394.2c-0.4,2.7-3.5,4.6-7.4,4.9c-1.6-2.1-2.5-4.3-2.5-6.7c0-2,0.5-3.9,1.5-5.7c0,0,0,0,0,0
		C365.1,387.5,368.8,390.9,368.3,394.2z"/>
	<path class="st3" d="M361.3,391.7c-0.3,1.1-1.4,1.7-2.6,1.7c-0.1,0-0.2,0-0.4,0c0,0,0,0,0,0c0,0,0,0,0,0c-0.1-0.5-0.1-1,0-1.6v0
		c0-1,0.2-2,0.5-2.9c0,0,0.1,0,0.1,0c0.1,0,0.2,0,0.4,0.1C360.7,389.2,361.6,390.5,361.3,391.7z"/>
	<path class="st3" d="M366.2,391.5c0,0.3,0,0.7-0.1,1c-0.4,3.1-2.4,5.5-4.6,5.2c-1.1-0.1-2.1-1-2.7-2.2c0,0,0,0,0,0
		c-0.1-0.3-0.2-0.6-0.3-0.9c0,0,0,0,0-0.1c-0.1-0.4-0.2-0.8-0.2-1.2c-0.1-0.5-0.1-1,0-1.6v0c0,0,0,0,0-0.1c0,0,0-0.1,0-0.1
		c0-0.2,0-0.3,0.1-0.5c0,0.8,0.1,1.6,0.3,2.3c0.5,1.6,1.6,2.7,2.9,2.9C363.7,396.5,365.7,394.4,366.2,391.5z"/>
</g>
<g>
	<path class="st1" d="M214.7,314.3c-0.1,0-0.2,0-0.2,0c-5.7-2.1-18.8-1.2-33.5,2.7c-6.5,0.8-13.8,3.2-21,7.3
		c-1.6,0.9-3.2,1.9-4.7,2.9c-2,1.4-3.9,2.8-5.6,4.3c-7.9,6.8-12.7,14.6-12.7,21.1c0,0.9,0.1,1.7,0.2,2.5c0.2,1,0.5,1.9,1,2.8l0,0
		c0,0,0,0.1,0,0.1c0,0.1,0.1,0.2,0.1,0.2c0.2,0.4,0.4,0.7,0.7,1c0.4,0.6,0.9,1.1,1.5,1.6c0,0,0,0,0,0c0.9,0.8,1.9,1.4,3.1,2
		c0.1,0.1,0.2,0.1,0.4,0.2c5.8,2.5,14.4,2.2,23.7-1c3.8,0.3,8.9-0.2,14.2-1.7c10.8-2.9,18.7-8.3,17.6-12.1c-0.4-1.6-2.2-2.6-5-3.1
		c-0.6,0.4-1.2,0.8-1.9,1.2c0.4-0.4,0.8-0.9,1.2-1.3c0.2,0,0.4,0.1,0.7,0.1c5.6-3.7,10.3-7.4,13.4-10.6c2.8,0.2,6.3,0,10-0.6
		c8.8-1.6,15.4-5.2,14.9-8.1c-0.3-1.7-3-2.8-7-3.1c3.4-1.3,5.4-2.9,5.3-4.5C231,315.3,223.6,313.5,214.7,314.3z M201.6,329.9
		C201.6,329.9,201.6,329.8,201.6,329.9c0-0.1,0-0.1,0.1-0.1C201.6,329.8,201.6,329.9,201.6,329.9z"/>
	<path class="st1" d="M201.6,329.8c0,0,0,0.1-0.1,0.1C201.6,329.9,201.6,329.8,201.6,329.8C201.6,329.8,201.6,329.8,201.6,329.8z"/>
	<path class="st1" d="M194.5,345.2c-0.6,0.4-1.2,0.8-1.9,1.2c0.4-0.4,0.8-0.9,1.2-1.3C194,345.1,194.3,345.2,194.5,345.2z"/>
	<path class="st1" d="M194.5,345.2c-0.6,0.4-1.2,0.8-1.9,1.2c0.4-0.4,0.8-0.9,1.2-1.3C194,345.1,194.3,345.2,194.5,345.2z"/>
	<path class="st1" d="M201.6,329.8c0,0,0,0.1-0.1,0.1C201.6,329.9,201.6,329.8,201.6,329.8C201.6,329.8,201.6,329.8,201.6,329.8z"/>
	<path class="st1" d="M155.3,327.2c-2,1.4-3.9,2.8-5.6,4.3C151,330.1,152.9,328.7,155.3,327.2z"/>
	
		<ellipse transform="matrix(0.8703 -0.4926 0.4926 0.8703 -150.4321 117.3975)" class="st2" cx="147.6" cy="344.3" rx="3.3" ry="3.3"/>
	<path class="st0" d="M148.1,355.2c1,2.6-0.8,5.8-4,7.9c-2.4-1-4.3-2.5-5.5-4.6c-1-1.7-1.5-3.6-1.5-5.7c0,0,0,0,0,0
		C142,351,146.9,352,148.1,355.2z"/>
	<path class="st3" d="M140.8,356.4c0.3,1.1-0.3,2.2-1.4,2.7c-0.1,0.1-0.2,0.1-0.3,0.1c0,0,0,0,0,0c0,0,0,0,0,0
		c-0.3-0.4-0.6-0.9-0.8-1.4l0,0c-0.5-0.9-0.8-1.8-1-2.8c0,0,0.1,0,0.1,0c0.1,0,0.2-0.1,0.3-0.1C139,354.6,140.5,355.2,140.8,356.4z"
		/>
	<path class="st3" d="M144.9,353.9c0.2,0.3,0.3,0.6,0.4,0.9c1.2,2.9,0.6,6-1.4,6.8c-1.1,0.4-2.3,0.2-3.4-0.6c0,0,0,0,0,0
		c-0.3-0.2-0.5-0.4-0.7-0.6c0,0,0,0,0,0c-0.3-0.3-0.6-0.6-0.8-0.9c-0.3-0.4-0.6-0.9-0.8-1.4l0,0c0,0,0,0,0-0.1c0,0,0-0.1,0-0.1
		c-0.1-0.1-0.1-0.3-0.2-0.4c0.4,0.7,0.9,1.3,1.4,1.8c1.2,1.1,2.7,1.6,4,1.1C145.2,359.4,145.9,356.6,144.9,353.9z"/>
</g>
<g>
	<path class="st4" d="M299.5,396.4c-0.1,0-0.1-0.1-0.2-0.1c-4-4.7-15.8-10.3-30.5-14.1c-6-2.5-13.6-4-21.9-4c-1.9,0-3.7,0.1-5.5,0.2
		c-2.4,0.2-4.7,0.5-7,1c-10.2,2-18.2,6.5-21.5,12.1c-0.4,0.8-0.8,1.5-1.1,2.3c-0.3,1-0.5,1.9-0.5,2.9v0c0,0,0,0.1,0,0.1
		c0,0.1,0,0.2,0,0.3c0,0.4,0,0.8,0.1,1.2c0.1,0.7,0.3,1.5,0.5,2.2c0,0,0,0,0,0c0.4,1.1,1,2.2,1.7,3.2c0.1,0.1,0.1,0.2,0.2,0.3
		c3.8,5,11.5,9,21.1,10.8c3.2,2.1,7.8,4.2,13.2,5.6c10.8,2.8,20.3,2,21.3-1.9c0.4-1.6-0.7-3.4-2.8-5.2c-0.7,0-1.5,0.1-2.2,0.1
		c0.6-0.2,1.2-0.4,1.7-0.5c0.2,0.1,0.4,0.3,0.5,0.4c6.7-0.4,12.6-1.4,16.9-2.6c2.4,1.6,5.5,3.1,9.1,4.4c8.4,3,16,3.1,17,0.3
		c0.6-1.6-1.3-3.9-4.6-6.1c3.6,0.6,6.2,0.2,6.8-1.3C313.1,405.4,307.5,400.2,299.5,396.4z M280.3,403.5
		C280.3,403.5,280.3,403.5,280.3,403.5c0.1-0.1,0.1-0.1,0.1-0.1C280.4,403.5,280.3,403.5,280.3,403.5z"/>
	<path class="st1" d="M280.4,403.5c0,0-0.1,0-0.1,0.1C280.3,403.5,280.3,403.5,280.4,403.5C280.4,403.5,280.4,403.5,280.4,403.5z"/>
	<path class="st1" d="M266.6,413.4c-0.7,0-1.5,0.1-2.2,0.1c0.6-0.2,1.2-0.4,1.7-0.5C266.3,413.1,266.4,413.2,266.6,413.4z"/>
	<path class="st1" d="M266.6,413.4c-0.7,0-1.5,0.1-2.2,0.1c0.6-0.2,1.2-0.4,1.7-0.5C266.3,413.1,266.4,413.2,266.6,413.4z"/>
	<path class="st1" d="M280.4,403.5c0,0-0.1,0-0.1,0.1C280.3,403.5,280.3,403.5,280.4,403.5C280.4,403.5,280.4,403.5,280.4,403.5z"/>
	<path class="st1" d="M241.3,378.4c-2.4,0.2-4.7,0.5-7,1C236.2,378.8,238.5,378.5,241.3,378.4z"/>
	<circle class="st2" cx="226.3" cy="389.5" r="3.3"/>
	<path class="st0" d="M221.3,399.2c-0.4,2.7-3.5,4.6-7.4,4.9c-1.6-2.1-2.5-4.3-2.5-6.7c0-2,0.5-3.9,1.5-5.7c0,0,0,0,0,0
		C218.1,392.5,221.8,395.9,221.3,399.2z"/>
	<path class="st3" d="M214.3,396.7c-0.3,1.1-1.4,1.7-2.6,1.7c-0.1,0-0.2,0-0.4,0c0,0,0,0,0,0c0,0,0,0,0,0c-0.1-0.5-0.1-1,0-1.6v0
		c0-1,0.2-2,0.5-2.9c0,0,0.1,0,0.1,0c0.1,0,0.2,0,0.4,0.1C213.7,394.2,214.6,395.5,214.3,396.7z"/>
	<path class="st3" d="M219.2,396.5c0,0.3,0,0.7-0.1,1c-0.4,3.1-2.4,5.5-4.6,5.2c-1.1-0.1-2.1-1-2.7-2.2c0,0,0,0,0,0
		c-0.1-0.3-0.2-0.6-0.3-0.9c0,0,0,0,0-0.1c-0.1-0.4-0.2-0.8-0.2-1.2c-0.1-0.5-0.1-1,0-1.6v0c0,0,0,0,0-0.1c0,0,0-0.1,0-0.1
		c0-0.2,0-0.3,0.1-0.5c0,0.8,0.1,1.6,0.3,2.3c0.5,1.6,1.6,2.7,2.9,2.9C216.7,401.5,218.7,399.4,219.2,396.5z"/>
</g>
<g>
	<path class="st4" d="M355.1,349.6c0.3,1.6,2.7,2.7,6.3,3.1c-3.8,1.3-6.1,3-6,4.7c0.2,2.9,7.6,4.8,16.5,4.2c3.8-0.3,7.2-1,9.9-1.9
		c3.8,2.3,9.3,4.8,15.6,7c0.2-0.1,0.4-0.2,0.6-0.3c0.5,0.3,1,0.7,1.5,1c-0.7-0.2-1.4-0.5-2.1-0.7c-2.5,1.2-4.1,2.6-4.1,4.2
		c0,4,8.9,7.3,20.1,7.4c5.5,0.1,10.5-0.7,14.2-1.9c9.8,0.8,18.2-1,23.2-4.9c0.1-0.1,0.2-0.2,0.3-0.2c1-0.8,1.8-1.7,2.5-2.7
		c0,0,0,0,0,0c0.4-0.6,0.8-1.3,1-2c0.2-0.4,0.3-0.8,0.4-1.2c0-0.1,0-0.2,0.1-0.2c0,0,0-0.1,0-0.1l0,0c0.2-1,0.3-2,0.3-3
		c0-0.8-0.2-1.7-0.4-2.5c-1.7-6.2-8.2-12.6-17.6-17.3c-2-1-4.2-1.9-6.5-2.8c-1.7-0.6-3.5-1.2-5.3-1.7c-8-2.2-15.7-2.7-22.2-1.9
		c-15.2-0.2-28.1,2.2-33.1,5.6c-0.1,0-0.2,0-0.2,0C361.3,343.1,354.6,346.7,355.1,349.6z M386.6,353.4
		C386.6,353.4,386.7,353.4,386.6,353.4C386.7,353.5,386.7,353.5,386.6,353.4C386.7,353.5,386.7,353.5,386.6,353.4z"/>
	<path class="st1" d="M386.6,353.4C386.7,353.5,386.7,353.5,386.6,353.4C386.7,353.5,386.7,353.5,386.6,353.4
		C386.7,353.4,386.6,353.4,386.6,353.4z"/>
	<path class="st1" d="M397.4,366.6c0.7,0.2,1.4,0.5,2.1,0.7c-0.5-0.3-1-0.6-1.5-1C397.8,366.4,397.6,366.5,397.4,366.6z"/>
	<path class="st1" d="M397.4,366.6c0.7,0.2,1.4,0.5,2.1,0.7c-0.5-0.3-1-0.6-1.5-1C397.8,366.4,397.6,366.5,397.4,366.6z"/>
	<path class="st1" d="M386.6,353.4C386.7,353.5,386.7,353.5,386.6,353.4C386.7,353.5,386.7,353.5,386.6,353.4
		C386.7,353.4,386.6,353.4,386.6,353.4z"/>
	<path class="st1" d="M430.9,339.5c2.3,0.8,4.4,1.8,6.5,2.8C435.8,341.3,433.6,340.3,430.9,339.5z"/>
	
		<ellipse transform="matrix(0.2626 -0.9649 0.9649 0.2626 -15.3958 688.1245)" class="st2" cx="442.5" cy="354.1" rx="3.3" ry="3.3"/>
	<path class="st0" d="M444.8,364.9c-0.3,2.7,2.2,5.4,5.8,6.6c2.1-1.6,3.5-3.5,4.2-5.8c0.6-1.9,0.5-3.9,0-5.9c0,0,0,0,0,0
		C449.7,359.2,445.2,361.5,444.8,364.9z"/>
	<path class="st3" d="M452.2,364.2c0,1.1,0.9,2,2.1,2.3c0.1,0,0.2,0,0.4,0.1c0,0,0,0,0,0c0,0,0,0,0,0c0.2-0.5,0.3-1,0.4-1.5l0,0
		c0.2-1,0.3-2,0.3-3c0,0-0.1,0-0.1,0c-0.1,0-0.2,0-0.4,0C453.4,362,452.2,363,452.2,364.2z"/>
	<path class="st3" d="M447.5,362.7c-0.1,0.3-0.2,0.6-0.2,1c-0.5,3.1,0.9,5.9,3.1,6.2c1.1,0.2,2.3-0.4,3.1-1.4c0,0,0,0,0,0
		c0.2-0.2,0.4-0.5,0.6-0.8c0,0,0,0,0-0.1c0.2-0.3,0.4-0.7,0.5-1.1c0.2-0.5,0.3-1,0.4-1.5l0,0c0,0,0,0,0-0.1c0,0,0-0.1,0-0.1
		c0-0.2,0-0.3,0.1-0.5c-0.2,0.8-0.5,1.5-0.9,2.1c-0.9,1.4-2.2,2.2-3.6,2C448.6,368.2,447.3,365.7,447.5,362.7z"/>
</g>
<g>
	<path class="st5" d="M152.5,408.3c1.3,1,3.8,0.1,6.6-2.2c-1.8,3.5-2.3,6.4-1,7.6c2.2,2,8.8-1.8,14.7-8.5c2.5-2.8,4.5-5.7,5.8-8.2
		c4.4-1,10-3,16.1-5.9c0.1-0.2,0.2-0.4,0.3-0.6c0.6-0.1,1.2-0.2,1.8-0.4c-0.7,0.3-1.4,0.7-2,1c-1,2.6-1.1,4.7,0,5.9
		c2.7,2.9,11.5-1,19.6-8.7c4-3.8,7.1-7.8,8.9-11.2c7.5-6.2,12.4-13.4,13.3-19.6c0-0.1,0-0.3,0.1-0.4c0.1-1.3,0.1-2.5-0.1-3.7
		c0,0,0,0,0,0c-0.1-0.7-0.3-1.4-0.6-2.1c-0.2-0.4-0.3-0.8-0.5-1.1c0-0.1-0.1-0.2-0.1-0.2c0,0,0-0.1,0-0.1l0,0
		c-0.5-0.9-1.1-1.6-1.9-2.3c-0.6-0.6-1.3-1.1-2-1.5c-5.5-3.3-14.7-3.4-24.6-0.2c-2.2,0.7-4.4,1.5-6.6,2.5c-1.6,0.7-3.3,1.6-5,2.5
		c-7.2,4-13.2,9-17.3,14.1c-11,10.4-18.6,21.1-19.9,27.1c0,0.1-0.1,0.1-0.1,0.2C152.5,399.3,150.1,406.6,152.5,408.3z M177.8,389.1
		C177.8,389.1,177.8,389.1,177.8,389.1c0.1,0,0.1,0,0.1,0C177.9,389.1,177.8,389.1,177.8,389.1z"/>
	<path class="st1" d="M177.8,389.1c0,0,0.1,0,0.1,0C177.9,389.1,177.9,389.1,177.8,389.1C177.8,389.1,177.8,389.1,177.8,389.1z"/>
	<path class="st1" d="M194.7,391.1c0.7-0.3,1.3-0.6,2-1c-0.6,0.1-1.2,0.2-1.8,0.4C194.8,390.7,194.8,390.9,194.7,391.1z"/>
	<path class="st1" d="M194.7,391.1c0.7-0.3,1.3-0.6,2-1c-0.6,0.1-1.2,0.2-1.8,0.4C194.8,390.7,194.8,390.9,194.7,391.1z"/>
	<path class="st1" d="M177.8,389.1c0,0,0.1,0,0.1,0C177.9,389.1,177.9,389.1,177.8,389.1C177.8,389.1,177.8,389.1,177.8,389.1z"/>
	<path class="st1" d="M199.9,348.3c2.2-1,4.4-1.8,6.6-2.5C204.6,346.2,202.4,347,199.9,348.3z"/>
	
		<ellipse transform="matrix(0.8756 -0.4831 0.4831 0.8756 -142.2592 149.1655)" class="st2" cx="218.4" cy="350.7" rx="3.3" ry="3.3"/>
	<path class="st0" d="M227.5,356.9c1.7,2.2,5.3,2.4,8.8,0.7c0.4-2.6,0.1-5-1-7.1c-0.9-1.7-2.3-3.2-4.1-4.2c0,0,0,0,0,0
		C227.1,349.4,225.4,354.2,227.5,356.9z"/>
	<path class="st3" d="M232.4,351.3c0.7,0.8,2,0.9,3.1,0.2c0.1-0.1,0.2-0.1,0.3-0.2c0,0,0,0,0,0c0,0,0,0,0,0
		c-0.2-0.5-0.5-0.9-0.8-1.4l0,0c-0.5-0.9-1.1-1.6-1.9-2.3c0,0-0.1,0-0.1,0.1c-0.1,0.1-0.2,0.1-0.3,0.2
		C231.7,348.8,231.5,350.4,232.4,351.3z"/>
	<path class="st3" d="M228,353.4c0.2,0.3,0.3,0.6,0.5,0.8c1.9,2.6,4.8,3.6,6.6,2.3c0.9-0.7,1.4-1.9,1.3-3.2c0,0,0,0,0,0
		c0-0.3-0.1-0.6-0.1-0.9c0,0,0,0,0-0.1c-0.1-0.4-0.2-0.8-0.4-1.2c-0.2-0.5-0.5-0.9-0.8-1.4l0,0c0,0,0,0,0,0c0,0,0-0.1-0.1-0.1
		c-0.1-0.1-0.2-0.3-0.3-0.4c0.4,0.7,0.7,1.5,0.8,2.2c0.3,1.6-0.1,3.1-1.2,3.9C232.6,356.6,229.9,355.7,228,353.4z"/>
</g>
<g>
	<path class="st5" d="M312.9,294c-0.1,1.6,2,3.2,5.3,4.5c-4,0.3-6.7,1.4-7,3.1c-0.5,2.9,6.2,6.5,15,8c3.7,0.6,7.2,0.8,10,0.6
		c3.2,3.2,7.8,6.9,13.5,10.5c0.2,0,0.4-0.1,0.7-0.1c0.4,0.4,0.8,0.9,1.2,1.3c-0.6-0.4-1.3-0.8-1.9-1.2c-2.7,0.5-4.6,1.6-5,3.1
		c-1,3.8,6.9,9.2,17.7,12c5.3,1.4,10.4,1.9,14.2,1.6c9.3,3.1,18,3.4,23.7,0.9c0.1-0.1,0.2-0.1,0.4-0.2c1.2-0.5,2.2-1.2,3.1-2
		c0,0,0,0,0,0c0.6-0.5,1.1-1,1.5-1.6c0.2-0.3,0.5-0.7,0.7-1c0-0.1,0.1-0.2,0.1-0.2c0,0,0-0.1,0-0.1l0,0c0.5-0.9,0.8-1.8,1-2.8
		c0.2-0.8,0.2-1.7,0.2-2.5c-0.1-6.5-4.9-14.3-12.9-21c-1.7-1.5-3.6-2.9-5.6-4.2c-1.5-1-3.1-2-4.7-2.9c-7.2-4-14.6-6.4-21.1-7.2
		c-14.7-3.8-27.8-4.7-33.5-2.5c-0.1,0-0.2,0-0.2,0C320.5,289.2,313.1,291,312.9,294z M342.6,305.3
		C342.6,305.3,342.6,305.3,342.6,305.3c0.1,0.1,0.1,0.1,0.1,0.1C342.6,305.4,342.6,305.3,342.6,305.3z"/>
	<path class="st1" d="M342.6,305.3c0,0,0,0.1,0.1,0.1C342.6,305.4,342.6,305.4,342.6,305.3C342.6,305.3,342.6,305.3,342.6,305.3z"/>
	<path class="st1" d="M349.8,320.7c0.6,0.4,1.3,0.8,1.9,1.2c-0.4-0.4-0.8-0.9-1.2-1.3C350.2,320.6,350,320.6,349.8,320.7z"/>
	<path class="st1" d="M349.8,320.7c0.6,0.4,1.3,0.8,1.9,1.2c-0.4-0.4-0.8-0.9-1.2-1.3C350.2,320.6,350,320.6,349.8,320.7z"/>
	<path class="st1" d="M342.6,305.3c0,0,0,0.1,0.1,0.1C342.6,305.4,342.6,305.4,342.6,305.3C342.6,305.3,342.6,305.3,342.6,305.3z"/>
	<path class="st1" d="M388.9,302.5c2,1.4,3.9,2.8,5.6,4.2C393.2,305.4,391.3,303.9,388.9,302.5z"/>
	
		<ellipse transform="matrix(0.4879 -0.8729 0.8729 0.4879 -75.7742 509.8253)" class="st2" cx="396.6" cy="319.5" rx="3.3" ry="3.3"/>
	<path class="st0" d="M396.2,330.4c-1,2.6,0.8,5.7,4.1,7.8c2.4-1,4.3-2.5,5.5-4.6c1-1.7,1.5-3.6,1.4-5.7c0,0,0,0,0,0
		C402.3,326.2,397.4,327.2,396.2,330.4z"/>
	<path class="st3" d="M403.5,331.6c-0.3,1.1,0.3,2.2,1.5,2.7c0.1,0.1,0.2,0.1,0.3,0.1c0,0,0,0,0,0c0,0,0,0,0,0
		c0.3-0.4,0.5-0.9,0.8-1.4l0,0c0.5-0.9,0.8-1.8,1-2.8c0,0-0.1,0-0.1,0c-0.1,0-0.2-0.1-0.3-0.1C405.3,329.7,403.9,330.4,403.5,331.6z
		"/>
	<path class="st3" d="M399.4,329.1c-0.2,0.3-0.3,0.6-0.4,0.9c-1.2,2.9-0.5,6,1.5,6.8c1.1,0.4,2.3,0.2,3.4-0.6c0,0,0,0,0,0
		c0.3-0.2,0.5-0.4,0.7-0.6c0,0,0,0,0,0c0.3-0.3,0.5-0.6,0.8-1c0.3-0.4,0.5-0.9,0.8-1.4l0,0c0,0,0,0,0-0.1c0,0,0-0.1,0-0.1
		c0.1-0.1,0.1-0.3,0.2-0.4c-0.4,0.7-0.9,1.3-1.4,1.8c-1.2,1.1-2.7,1.6-4,1.1C399.1,334.6,398.4,331.8,399.4,329.1z"/>
</g>
<g>
	<path class="st6" d="M228.5,296.4c-0.1,0-0.1-0.1-0.2-0.1c-4-4.7-15.8-10.3-30.5-14.1c-6-2.5-13.6-4-21.9-4c-1.9,0-3.7,0.1-5.5,0.2
		c-2.4,0.2-4.7,0.5-7,1c-10.2,2-18.2,6.5-21.5,12.1c-0.4,0.8-0.8,1.5-1.1,2.3c-0.3,1-0.5,1.9-0.5,2.9v0c0,0,0,0.1,0,0.1
		c0,0.1,0,0.2,0,0.3c0,0.4,0,0.8,0.1,1.2c0.1,0.7,0.3,1.5,0.5,2.2c0,0,0,0,0,0c0.4,1.1,1,2.2,1.7,3.2c0.1,0.1,0.1,0.2,0.2,0.3
		c3.8,5,11.5,9,21.1,10.8c3.2,2.1,7.8,4.2,13.2,5.6c10.8,2.8,20.3,2,21.3-1.9c0.4-1.6-0.7-3.4-2.8-5.2c-0.7,0-1.5,0.1-2.2,0.1
		c0.6-0.2,1.2-0.4,1.7-0.5c0.2,0.1,0.4,0.3,0.5,0.4c6.7-0.4,12.6-1.4,16.9-2.6c2.4,1.6,5.5,3.1,9.1,4.4c8.4,3,16,3.1,17,0.3
		c0.6-1.6-1.3-3.9-4.6-6.1c3.6,0.6,6.2,0.2,6.8-1.3C242.1,305.4,236.5,300.2,228.5,296.4z M209.3,303.5
		C209.3,303.5,209.3,303.5,209.3,303.5c0.1-0.1,0.1-0.1,0.1-0.1C209.4,303.5,209.3,303.5,209.3,303.5z"/>
	<path class="st1" d="M209.4,303.5c0,0-0.1,0-0.1,0.1C209.3,303.5,209.3,303.5,209.4,303.5C209.4,303.5,209.4,303.5,209.4,303.5z"/>
	<path class="st1" d="M195.6,313.4c-0.7,0-1.5,0.1-2.2,0.1c0.6-0.2,1.2-0.4,1.7-0.5C195.3,313.1,195.4,313.2,195.6,313.4z"/>
	<path class="st1" d="M195.6,313.4c-0.7,0-1.5,0.1-2.2,0.1c0.6-0.2,1.2-0.4,1.7-0.5C195.3,313.1,195.4,313.2,195.6,313.4z"/>
	<path class="st1" d="M209.4,303.5c0,0-0.1,0-0.1,0.1C209.3,303.5,209.3,303.5,209.4,303.5C209.4,303.5,209.4,303.5,209.4,303.5z"/>
	<path class="st1" d="M170.3,278.4c-2.4,0.2-4.7,0.5-7,1C165.2,278.8,167.5,278.5,170.3,278.4z"/>
	<circle class="st2" cx="155.3" cy="289.5" r="3.3"/>
	<path class="st0" d="M150.3,299.2c-0.4,2.7-3.5,4.6-7.4,4.9c-1.6-2.1-2.5-4.3-2.5-6.7c0-2,0.5-3.9,1.5-5.7c0,0,0,0,0,0
		C147.1,292.5,150.8,295.9,150.3,299.2z"/>
	<path class="st3" d="M143.3,296.7c-0.3,1.1-1.4,1.7-2.6,1.7c-0.1,0-0.2,0-0.4,0c0,0,0,0,0,0c0,0,0,0,0,0c-0.1-0.5-0.1-1,0-1.6v0
		c0-1,0.2-2,0.5-2.9c0,0,0.1,0,0.1,0c0.1,0,0.2,0,0.4,0.1C142.7,294.2,143.6,295.5,143.3,296.7z"/>
	<path class="st3" d="M148.2,296.5c0,0.3,0,0.7-0.1,1c-0.4,3.1-2.4,5.5-4.6,5.2c-1.1-0.1-2.1-1-2.7-2.2c0,0,0,0,0,0
		c-0.1-0.3-0.2-0.6-0.3-0.9c0,0,0,0,0-0.1c-0.1-0.4-0.2-0.8-0.2-1.2c-0.1-0.5-0.1-1,0-1.6v0c0,0,0,0,0-0.1c0,0,0-0.1,0-0.1
		c0-0.2,0-0.3,0.1-0.5c0,0.8,0.1,1.6,0.3,2.3c0.5,1.6,1.6,2.7,2.9,2.9C145.7,301.5,147.7,299.4,148.2,296.5z"/>
</g>
<g>
	<path class="st1" d="M234.7,299.8c0.2,1.6,2.6,2.8,6.2,3.2c-3.8,1.1-6.2,2.8-6.1,4.5c0.1,3,7.5,5,16.3,4.6c3.8-0.2,7.2-0.8,9.9-1.6
		c3.8,2.4,9.1,5,15.4,7.4c0.2-0.1,0.4-0.2,0.6-0.3c0.5,0.3,1,0.7,1.5,1c-0.7-0.3-1.4-0.5-2.1-0.8c-2.6,1.1-4.1,2.5-4.2,4.1
		c-0.2,3.9,8.7,7.5,19.9,7.9c5.5,0.2,10.5-0.4,14.2-1.5c9.7,1,18.3-0.5,23.3-4.2c0.1-0.1,0.2-0.2,0.3-0.2c1-0.8,1.9-1.7,2.6-2.6
		c0,0,0,0,0,0c0.4-0.6,0.8-1.2,1.1-1.9c0.2-0.4,0.3-0.8,0.4-1.2c0-0.1,0-0.2,0.1-0.2c0,0,0-0.1,0-0.1l0,0c0.3-1,0.4-1.9,0.3-2.9
		c0-0.8-0.1-1.7-0.3-2.5c-1.5-6.3-7.9-12.9-17.1-17.8c-2-1.1-4.1-2.1-6.4-2.9c-1.7-0.7-3.4-1.3-5.2-1.8c-7.9-2.4-15.6-3.2-22.1-2.5
		c-15.2-0.6-28.1,1.4-33.2,4.7c-0.1,0-0.2,0-0.2,0C241.1,293.5,234.2,296.9,234.7,299.8z M266,304.5
		C266.1,304.5,266.1,304.5,266,304.5C266.1,304.6,266.1,304.6,266,304.5C266.1,304.6,266.1,304.5,266,304.5z"/>
	<path class="st1" d="M266,304.5C266.1,304.5,266.1,304.6,266,304.5C266.1,304.6,266.1,304.6,266,304.5
		C266.1,304.5,266.1,304.5,266,304.5z"/>
	<path class="st1" d="M276.4,318c0.7,0.3,1.4,0.5,2.1,0.8c-0.5-0.3-1-0.7-1.5-1C276.8,317.8,276.6,317.9,276.4,318z"/>
	<path class="st1" d="M276.4,318c0.7,0.3,1.4,0.5,2.1,0.8c-0.5-0.3-1-0.7-1.5-1C276.8,317.8,276.6,317.9,276.4,318z"/>
	<path class="st1" d="M266,304.5C266.1,304.5,266.1,304.6,266,304.5C266.1,304.6,266.1,304.6,266,304.5
		C266.1,304.5,266.1,304.5,266,304.5z"/>
	<path class="st1" d="M310.7,291.8c2.3,0.9,4.4,1.9,6.4,2.9C315.5,293.7,313.4,292.7,310.7,291.8z"/>
	
		<ellipse transform="matrix(0.2894 -0.9572 0.9572 0.2894 -64.9142 526.1124)" class="st2" cx="321.9" cy="306.8" rx="3.3" ry="3.3"/>
	<path class="st0" d="M323.9,317.6c-0.4,2.7,2,5.4,5.7,6.8c2.1-1.5,3.6-3.4,4.3-5.6c0.6-1.9,0.7-3.8,0.2-5.9c0,0,0,0,0,0
		C328.9,312.1,324.3,314.2,323.9,317.6z"/>
	<path class="st3" d="M331.3,317.1c-0.1,1.1,0.8,2.1,2,2.3c0.1,0,0.2,0.1,0.4,0.1c0,0,0,0,0,0c0,0,0,0,0,0c0.2-0.5,0.3-1,0.5-1.5
		l0,0c0.3-1,0.4-1.9,0.3-2.9c0,0-0.1,0-0.1,0c-0.1,0-0.2,0-0.4,0C332.6,314.9,331.3,315.9,331.3,317.1z"/>
	<path class="st3" d="M326.7,315.5c-0.1,0.3-0.2,0.6-0.2,1c-0.5,3.1,0.8,5.9,2.9,6.3c1.1,0.2,2.3-0.3,3.2-1.3c0,0,0,0,0,0
		c0.2-0.2,0.4-0.5,0.6-0.8c0,0,0,0,0-0.1c0.2-0.3,0.4-0.7,0.6-1.1c0.2-0.5,0.3-1,0.5-1.5l0,0c0,0,0,0,0-0.1c0,0,0-0.1,0-0.1
		c0-0.2,0-0.3,0.1-0.5c-0.2,0.8-0.6,1.5-1,2.1c-1,1.4-2.3,2.1-3.6,1.9C327.6,321,326.3,318.5,326.7,315.5z"/>
</g>
<g>
	<path class="st5" d="M326.6,347.7c-0.1,0-0.1-0.1-0.2-0.1c-2.5-5.6-12.3-14.3-25.3-22.1c-5.1-4.1-12-7.6-19.9-10
		c-1.8-0.5-3.6-1-5.4-1.3c-2.4-0.5-4.7-0.8-7-1c-10.4-0.9-19.3,1.2-24,5.6c-0.6,0.6-1.2,1.2-1.7,1.9c-0.6,0.8-1,1.7-1.3,2.7l0,0
		c0,0,0,0.1,0,0.1c0,0.1-0.1,0.2-0.1,0.2c-0.1,0.4-0.2,0.8-0.3,1.2c-0.1,0.7-0.2,1.5-0.1,2.2c0,0,0,0,0,0c0.1,1.2,0.3,2.4,0.7,3.6
		c0,0.1,0.1,0.2,0.1,0.4c2.2,5.9,8.5,11.8,17.3,16.3c2.5,3,6.4,6.2,11.1,9c9.6,5.7,19,7.6,21,4.2c0.8-1.4,0.3-3.4-1.3-5.7
		c-0.7-0.2-1.4-0.3-2.2-0.5c0.6,0,1.2,0,1.8,0c0.1,0.2,0.3,0.4,0.4,0.6c6.6,1.5,12.5,2.2,17,2.2c1.8,2.2,4.4,4.6,7.5,6.8
		c7.2,5.2,14.5,7.4,16.2,5c1-1.4-0.1-4.1-2.7-7.1c3.3,1.5,5.9,1.9,6.9,0.6C337.2,360.1,333.3,353.5,326.6,347.7z M306.2,349.2
		C306.2,349.2,306.2,349.2,306.2,349.2c0.1,0,0.1,0,0.1,0C306.3,349.2,306.2,349.2,306.2,349.2z"/>
	<path class="st1" d="M306.3,349.2c0,0-0.1,0-0.1,0C306.2,349.2,306.2,349.2,306.3,349.2C306.3,349.2,306.3,349.2,306.3,349.2z"/>
	<path class="st1" d="M290.3,354.8c-0.7-0.2-1.4-0.3-2.2-0.5c0.6,0,1.2,0,1.8,0C290,354.4,290.2,354.6,290.3,354.8z"/>
	<path class="st1" d="M290.3,354.8c-0.7-0.2-1.4-0.3-2.2-0.5c0.6,0,1.2,0,1.8,0C290,354.4,290.2,354.6,290.3,354.8z"/>
	<path class="st1" d="M306.3,349.2c0,0-0.1,0-0.1,0C306.2,349.2,306.2,349.2,306.3,349.2C306.3,349.2,306.3,349.2,306.3,349.2z"/>
	<path class="st1" d="M275.8,314.2c-2.4-0.5-4.7-0.8-7-1C270.7,313.2,273.1,313.5,275.8,314.2z"/>
	
		<ellipse transform="matrix(0.279 -0.9603 0.9603 0.279 -121.6947 479.1945)" class="st2" cx="258.3" cy="320.6" rx="3.3" ry="3.3"/>
	<path class="st0" d="M250.7,328.6c-1.2,2.5-4.7,3.5-8.4,2.6c-0.9-2.4-1.2-4.8-0.6-7.1c0.5-1.9,1.5-3.6,3-5c0,0,0,0,0,0
		C249.5,321.3,252.2,325.5,250.7,328.6z"/>
	<path class="st3" d="M244.8,324.2c-0.5,1-1.8,1.3-3,0.9c-0.1,0-0.2-0.1-0.3-0.1c0,0,0,0,0,0c0,0,0,0,0,0c0.1-0.5,0.2-1,0.4-1.5l0,0
		c0.3-0.9,0.8-1.8,1.3-2.7c0,0,0.1,0,0.1,0c0.1,0,0.2,0.1,0.3,0.2C244.9,321.7,245.4,323.1,244.8,324.2z"/>
	<path class="st3" d="M249.5,325.4c-0.1,0.3-0.2,0.6-0.3,0.9c-1.2,2.9-3.9,4.6-5.9,3.7c-1.1-0.5-1.7-1.5-1.9-2.9c0,0,0,0,0,0
		c0-0.3-0.1-0.6-0.1-1c0,0,0,0,0-0.1c0-0.4,0-0.8,0.1-1.2c0.1-0.5,0.2-1,0.4-1.5l0,0c0,0,0,0,0,0c0,0,0-0.1,0-0.1
		c0.1-0.1,0.1-0.3,0.2-0.4c-0.2,0.8-0.3,1.6-0.3,2.3c0.1,1.7,0.8,3.1,2,3.6C245.7,329.5,248.2,328,249.5,325.4z"/>
</g>
<g>
	<path class="st5" d="M429.9,254.5c0,0.1-0.1,0.1-0.1,0.2c-5,3.6-11.5,14.9-16.4,29.3c-3,5.8-5,13.3-5.7,21.5
		c-0.1,1.9-0.2,3.7-0.2,5.5c0,2.4,0.2,4.8,0.4,7c1.2,10.4,5.1,18.7,10.4,22.4c0.7,0.5,1.5,0.9,2.2,1.2c0.9,0.4,1.9,0.6,2.9,0.8l0,0
		c0,0,0.1,0,0.1,0c0.1,0,0.2,0,0.3,0c0.4,0,0.8,0,1.2,0c0.7,0,1.5-0.1,2.2-0.3c0,0,0,0,0,0c1.1-0.3,2.3-0.8,3.4-1.4
		c0.1-0.1,0.2-0.1,0.3-0.2c5.3-3.4,9.8-10.8,12.4-20.2c2.4-3,4.8-7.5,6.6-12.7c3.6-10.5,3.5-20.1-0.2-21.4c-1.5-0.5-3.4,0.4-5.4,2.4
		c0,0.7,0,1.5-0.1,2.2c-0.1-0.6-0.3-1.2-0.4-1.8c0.2-0.2,0.3-0.3,0.5-0.5c0.1-6.7-0.4-12.7-1.3-17.1c1.8-2.2,3.6-5.2,5.1-8.7
		c3.6-8.1,4.3-15.7,1.6-16.9c-1.6-0.7-4,1-6.4,4.1c0.8-3.5,0.6-6.1-0.8-6.9C439.9,241.6,434.3,246.7,429.9,254.5z M435.5,274.1
		C435.5,274.1,435.5,274.1,435.5,274.1c-0.1-0.1-0.1-0.1-0.1-0.1C435.5,274,435.5,274.1,435.5,274.1z"/>
	<path class="st1" d="M435.5,274c0,0,0,0.1,0.1,0.1C435.5,274.1,435.5,274.1,435.5,274C435.5,274,435.5,274,435.5,274z"/>
	<path class="st1" d="M444.3,288.5c0,0.7,0,1.5-0.1,2.2c-0.1-0.6-0.3-1.2-0.4-1.8C444,288.9,444.1,288.7,444.3,288.5z"/>
	<path class="st1" d="M444.3,288.5c0,0.7,0,1.5-0.1,2.2c-0.1-0.6-0.3-1.2-0.4-1.8C444,288.9,444.1,288.7,444.3,288.5z"/>
	<path class="st1" d="M435.5,274c0,0,0,0.1,0.1,0.1C435.5,274.1,435.5,274.1,435.5,274C435.5,274,435.5,274,435.5,274z"/>
	<path class="st1" d="M407.5,311c0,2.4,0.2,4.8,0.4,7C407.5,316.2,407.3,313.8,407.5,311z"/>
	
		<ellipse transform="matrix(7.743323e-02 -0.997 0.997 7.743323e-02 59.1332 717.6412)" class="st2" cx="417.3" cy="326.9" rx="3.3" ry="3.3"/>
	<path class="st0" d="M426.7,332.6c2.7,0.6,4.3,3.9,4.3,7.7c-2.2,1.4-4.5,2.1-6.8,2c-2-0.1-3.8-0.8-5.5-1.9c0,0,0,0,0,0
		C419.7,335.3,423.3,331.8,426.7,332.6z"/>
	<path class="st3" d="M423.6,339.3c1,0.3,1.6,1.5,1.4,2.7c0,0.1,0,0.2-0.1,0.4c0,0,0,0,0,0c0,0,0,0,0,0c-0.5,0-1,0-1.6-0.1l0,0
		c-1-0.1-1.9-0.4-2.9-0.8c0,0,0-0.1,0-0.1c0-0.1,0.1-0.2,0.1-0.4C421.1,339.8,422.4,339,423.6,339.3z"/>
	<path class="st3" d="M423.8,334.5c0.3,0,0.7,0.1,1,0.1c3.1,0.6,5.3,2.9,4.8,5c-0.2,1.1-1.1,2-2.4,2.5c0,0,0,0,0,0
		c-0.3,0.1-0.6,0.2-0.9,0.3c0,0,0,0-0.1,0c-0.4,0.1-0.8,0.1-1.2,0.1c-0.5,0-1,0-1.6-0.1l0,0c0,0,0,0-0.1,0c0,0-0.1,0-0.1,0
		c-0.2,0-0.3-0.1-0.5-0.1c0.8,0.1,1.6,0,2.3-0.2c1.6-0.4,2.8-1.4,3.1-2.7C428.6,337.3,426.6,335.2,423.8,334.5z"/>
</g>
<g>
	<path class="st6" d="M220.4,317.4c1,1.3,3.6,1.1,7-0.2c-2.7,2.9-4,5.5-3.1,7c1.6,2.5,9,0.7,16.5-4c3.2-2,5.9-4.2,7.9-6.3
		c4.5,0.3,10.4-0.1,17.1-1.2c0.1-0.2,0.3-0.4,0.4-0.5c0.6,0.1,1.2,0.1,1.8,0.2c-0.7,0.1-1.5,0.3-2.2,0.4c-1.7,2.2-2.3,4.2-1.6,5.6
		c1.8,3.5,11.3,2.2,21.2-2.9c4.9-2.5,9-5.5,11.6-8.3c9-3.9,15.6-9.4,18.2-15.2c0.1-0.1,0.1-0.2,0.2-0.4c0.5-1.2,0.8-2.4,0.9-3.5
		c0,0,0,0,0,0c0.1-0.7,0.1-1.5,0-2.2c0-0.4-0.1-0.8-0.2-1.2c0-0.1,0-0.2-0.1-0.2c0,0,0-0.1,0-0.1l0,0c-0.3-1-0.6-1.9-1.2-2.7
		c-0.4-0.7-0.9-1.4-1.5-2c-4.4-4.7-13.2-7.3-23.6-7.1c-2.3,0.1-4.6,0.2-7,0.6c-1.8,0.3-3.6,0.6-5.4,1c-8.1,1.8-15.2,4.9-20.5,8.7
		c-13.5,7-23.8,15-26.6,20.5c-0.1,0-0.1,0.1-0.2,0.1C222.8,308.8,218.6,315.1,220.4,317.4z M250,306.1C250,306,250.1,306,250,306.1
		c0.1,0,0.1,0,0.1,0C250.1,306.1,250.1,306.1,250,306.1z"/>
	<path class="st1" d="M250,306.1c0,0,0.1,0,0.1,0C250.1,306.1,250.1,306.1,250,306.1C250.1,306,250,306,250,306.1z"/>
	<path class="st1" d="M265.7,312.7c0.7-0.1,1.5-0.2,2.2-0.4c-0.6,0-1.2-0.1-1.8-0.2C265.9,312.3,265.8,312.5,265.7,312.7z"/>
	<path class="st1" d="M265.7,312.7c0.7-0.1,1.5-0.2,2.2-0.4c-0.6,0-1.2-0.1-1.8-0.2C265.9,312.3,265.8,312.5,265.7,312.7z"/>
	<path class="st1" d="M250,306.1c0,0,0.1,0,0.1,0C250.1,306.1,250.1,306.1,250,306.1C250.1,306,250,306,250,306.1z"/>
	<path class="st1" d="M282.6,273c2.4-0.3,4.7-0.5,7-0.6C287.8,272.3,285.4,272.5,282.6,273z"/>
	
		<ellipse transform="matrix(0.9756 -0.2196 0.2196 0.9756 -54.2952 72.6893)" class="st2" cx="299.7" cy="280.5" rx="3.3" ry="3.3"/>
	<path class="st0" d="M306.8,288.9c1,2.6,4.4,3.7,8.3,3.1c1.1-2.3,1.5-4.7,1-7.1c-0.4-1.9-1.3-3.7-2.7-5.2c0,0,0,0,0,0
		C308.4,281.7,305.5,285.8,306.8,288.9z"/>
	<path class="st3" d="M313,284.9c0.5,1,1.7,1.4,2.9,1c0.1,0,0.2-0.1,0.3-0.1c0,0,0,0,0,0c0,0,0,0,0,0c-0.1-0.5-0.2-1-0.3-1.5l0,0
		c-0.3-1-0.6-1.9-1.2-2.7c0,0-0.1,0-0.1,0c-0.1,0-0.2,0.1-0.3,0.1C313.1,282.4,312.4,283.8,313,284.9z"/>
	<path class="st3" d="M308.2,285.8c0.1,0.3,0.2,0.6,0.3,1c1.1,3,3.6,4.8,5.6,4.1c1.1-0.4,1.8-1.4,2.1-2.7c0,0,0,0,0,0
		c0.1-0.3,0.1-0.6,0.1-0.9c0,0,0,0,0-0.1c0-0.4,0-0.8,0-1.2c-0.1-0.5-0.2-1-0.3-1.5l0,0c0,0,0,0,0-0.1c0,0,0-0.1,0-0.1
		c-0.1-0.2-0.1-0.3-0.2-0.4c0.2,0.8,0.2,1.6,0.2,2.3c-0.2,1.7-0.9,3-2.2,3.5C311.7,290.1,309.3,288.5,308.2,285.8z"/>
</g>
<g>
	<path class="st6" d="M252.3,365.5c0.3,1.6,2.7,2.7,6.2,3.1c-3.8,1.2-6.2,3-6,4.7c0.2,2.9,7.6,4.8,16.5,4.2c3.8-0.3,7.2-0.9,9.9-1.8
		c3.8,2.3,9.2,4.8,15.6,7c0.2-0.1,0.4-0.2,0.6-0.3c0.5,0.3,1,0.7,1.5,1c-0.7-0.2-1.4-0.5-2.1-0.7c-2.5,1.2-4.1,2.6-4.1,4.2
		c-0.1,4,8.9,7.3,20.1,7.4c5.5,0.1,10.5-0.6,14.2-1.8c9.8,0.8,18.2-1,23.2-4.8c0.1-0.1,0.2-0.2,0.3-0.2c1-0.8,1.8-1.7,2.5-2.7
		c0,0,0,0,0,0c0.4-0.6,0.8-1.3,1.1-1.9c0.2-0.4,0.3-0.8,0.4-1.2c0-0.1,0-0.2,0.1-0.2c0,0,0-0.1,0-0.1l0,0c0.2-1,0.3-2,0.3-3
		c0-0.8-0.2-1.7-0.4-2.5c-1.7-6.2-8.2-12.7-17.5-17.3c-2-1-4.2-2-6.5-2.8c-1.7-0.6-3.5-1.2-5.3-1.7c-8-2.2-15.7-2.8-22.2-2
		c-15.2-0.2-28.1,2.1-33.1,5.5c-0.1,0-0.2,0-0.2,0C258.5,359,251.8,362.6,252.3,365.5z M283.8,369.4
		C283.8,369.4,283.8,369.4,283.8,369.4C283.8,369.4,283.8,369.5,283.8,369.4C283.8,369.5,283.8,369.4,283.8,369.4z"/>
	<path class="st1" d="M283.8,369.4C283.8,369.4,283.8,369.5,283.8,369.4C283.8,369.5,283.8,369.4,283.8,369.4
		C283.8,369.4,283.8,369.4,283.8,369.4z"/>
	<path class="st1" d="M294.4,382.6c0.7,0.2,1.4,0.5,2.1,0.7c-0.5-0.3-1-0.6-1.5-1C294.9,382.4,294.6,382.5,294.4,382.6z"/>
	<path class="st1" d="M294.4,382.6c0.7,0.2,1.4,0.5,2.1,0.7c-0.5-0.3-1-0.6-1.5-1C294.9,382.4,294.6,382.5,294.4,382.6z"/>
	<path class="st1" d="M283.8,369.4C283.8,369.4,283.8,369.5,283.8,369.4C283.8,369.5,283.8,369.4,283.8,369.4
		C283.8,369.4,283.8,369.4,283.8,369.4z"/>
	<path class="st1" d="M328.1,355.6c2.3,0.8,4.4,1.8,6.5,2.8C333,357.4,330.8,356.5,328.1,355.6z"/>
	
		<ellipse transform="matrix(0.2656 -0.9641 0.9641 0.2656 -107.5666 599.3719)" class="st2" cx="339.6" cy="370.3" rx="3.3" ry="3.3"/>
	<path class="st0" d="M341.9,381c-0.3,2.7,2.1,5.4,5.8,6.6c2.1-1.6,3.5-3.5,4.2-5.8c0.6-1.9,0.6-3.9,0-5.9c0,0,0,0,0,0
		C346.8,375.4,342.3,377.6,341.9,381z"/>
	<path class="st3" d="M349.3,380.4c0,1.1,0.9,2,2.1,2.3c0.1,0,0.2,0,0.4,0.1c0,0,0,0,0,0c0,0,0,0,0,0c0.2-0.5,0.3-1,0.4-1.5l0,0
		c0.2-1,0.3-2,0.3-3c0,0-0.1,0-0.1,0c-0.1,0-0.2,0-0.4,0C350.5,378.2,349.3,379.2,349.3,380.4z"/>
	<path class="st3" d="M344.6,378.9c-0.1,0.3-0.2,0.6-0.2,1c-0.5,3.1,0.9,5.9,3.1,6.2c1.1,0.2,2.3-0.4,3.2-1.4c0,0,0,0,0,0
		c0.2-0.2,0.4-0.5,0.6-0.8c0,0,0,0,0-0.1c0.2-0.3,0.4-0.7,0.5-1.1c0.2-0.5,0.3-1,0.4-1.5l0,0c0,0,0,0,0-0.1c0,0,0-0.1,0-0.1
		c0-0.2,0-0.3,0.1-0.5c-0.2,0.8-0.5,1.5-0.9,2.1c-0.9,1.4-2.3,2.2-3.6,2C345.7,384.4,344.4,381.9,344.6,378.9z"/>
</g>
<rect x="105" y="24" class="st7" width="391" height="67"/>
<rect x="128" y="417" class="st8" width="340" height="84"/>
<path class="st9" d="M324,479h-53c-6.6,0-12-5.4-12-12v-17c0-6.6,5.4-12,12-12h53c6.6,0,12,5.4,12,12v17
	C336,473.6,330.6,479,324,479z"/>
<path class="st1" d="M327.4,213.5c0,0-0.1,0-0.1,0.1C327.3,213.5,327.3,213.5,327.4,213.5C327.4,213.5,327.4,213.5,327.4,213.5z"/>
<path class="st1" d="M313.6,223.4c-0.7,0-1.5,0.1-2.2,0.1c0.6-0.2,1.2-0.4,1.7-0.5C313.3,223.1,313.4,223.2,313.6,223.4z"/>
<path class="st1" d="M313.6,223.4c-0.7,0-1.5,0.1-2.2,0.1c0.6-0.2,1.2-0.4,1.7-0.5C313.3,223.1,313.4,223.2,313.6,223.4z"/>
<path class="st1" d="M327.4,213.5c0,0-0.1,0-0.1,0.1C327.3,213.5,327.3,213.5,327.4,213.5C327.4,213.5,327.4,213.5,327.4,213.5z"/>
<path class="st1" d="M288.3,188.4c-2.4,0.2-4.7,0.5-7,1C283.2,188.8,285.5,188.5,288.3,188.4z"/>
<g>
	<path class="st4" d="M323.8,293.1c0.7,1.5,3.3,1.9,6.8,1.3c-3.3,2.2-5.1,4.5-4.6,6.1c1,2.8,8.6,2.6,17-0.3c3.6-1.3,6.7-2.8,9.1-4.4
		c4.3,1.2,10.2,2.2,16.9,2.6c0.2-0.1,0.3-0.3,0.5-0.4c0.6,0.2,1.1,0.4,1.7,0.5c-0.8,0-1.5-0.1-2.2-0.1c-2.1,1.8-3.2,3.6-2.8,5.2
		c1,3.8,10.5,4.7,21.3,1.9c5.3-1.4,10-3.4,13.2-5.5c9.6-1.8,17.3-5.8,21.1-10.8c0.1-0.1,0.2-0.2,0.2-0.3c0.7-1,1.3-2.1,1.7-3.2
		c0,0,0,0,0,0c0.2-0.7,0.4-1.4,0.5-2.2c0.1-0.4,0.1-0.8,0.1-1.2c0-0.1,0-0.2,0-0.3c0,0,0-0.1,0-0.1v0c0-1-0.2-2-0.5-2.9
		c-0.3-0.8-0.6-1.6-1.1-2.3c-3.3-5.6-11.2-10-21.5-12.1c-2.2-0.4-4.6-0.8-7-1c-1.8-0.1-3.6-0.2-5.5-0.2c-8.3,0-15.9,1.5-21.9,4
		c-14.7,3.8-26.5,9.5-30.5,14.1c-0.1,0-0.1,0.1-0.2,0.1C328.1,285.2,322.6,290.4,323.8,293.1z M355.2,288.5
		C355.3,288.5,355.3,288.5,355.2,288.5c0.1,0,0.1,0,0.1,0.1C355.3,288.6,355.3,288.6,355.2,288.5z"/>
	<path class="st1" d="M355.2,288.5c0,0,0.1,0,0.1,0.1C355.3,288.6,355.3,288.6,355.2,288.5C355.3,288.5,355.3,288.5,355.2,288.5z"/>
	<path class="st1" d="M369.1,298.4c0.7,0,1.5,0.1,2.2,0.1c-0.6-0.2-1.2-0.4-1.7-0.5C369.4,298.1,369.2,298.3,369.1,298.4z"/>
	<path class="st1" d="M369.1,298.4c0.7,0,1.5,0.1,2.2,0.1c-0.6-0.2-1.2-0.4-1.7-0.5C369.4,298.1,369.2,298.3,369.1,298.4z"/>
	<path class="st1" d="M355.2,288.5c0,0,0.1,0,0.1,0.1C355.3,288.6,355.3,288.6,355.2,288.5C355.3,288.5,355.3,288.5,355.2,288.5z"/>
	<path class="st1" d="M394.3,263.5c2.4,0.2,4.7,0.5,7,1C399.5,263.9,397.1,263.6,394.3,263.5z"/>
	<circle class="st2" cx="409.4" cy="274.6" r="3.3"/>
	<path class="st0" d="M414.4,284.3c0.4,2.7,3.5,4.6,7.4,4.9c1.6-2.1,2.5-4.3,2.5-6.7c0-2-0.5-3.9-1.5-5.7c0,0,0,0,0,0
		C417.6,277.6,413.8,280.9,414.4,284.3z"/>
	<path class="st3" d="M421.3,281.8c0.3,1.1,1.4,1.7,2.6,1.7c0.1,0,0.2,0,0.4,0c0,0,0,0,0,0c0,0,0,0,0,0c0.1-0.5,0.1-1,0-1.6v0
		c0-1-0.2-2-0.5-2.9c0,0-0.1,0-0.1,0c-0.1,0-0.2,0-0.4,0.1C421.9,279.3,421,280.5,421.3,281.8z"/>
	<path class="st3" d="M416.4,281.6c0,0.3,0,0.7,0.1,1c0.4,3.1,2.4,5.5,4.6,5.2c1.1-0.1,2.1-1,2.7-2.2c0,0,0,0,0,0
		c0.1-0.3,0.2-0.6,0.3-0.9c0,0,0,0,0-0.1c0.1-0.4,0.2-0.8,0.2-1.2c0.1-0.5,0.1-1,0-1.6v0c0,0,0,0,0-0.1c0,0,0-0.1,0-0.1
		c0-0.2,0-0.3-0.1-0.5c0,0.8-0.1,1.6-0.3,2.3c-0.5,1.6-1.6,2.7-2.9,2.9C418.9,286.6,417,284.5,416.4,281.6z"/>
</g>
</svg>
