<?xml version="1.0" encoding="utf-8"?>
<!-- Generator: Adobe Illustrator 21.1.0, SVG Export Plug-In . SVG Version: 6.00 Build 0)  -->
<svg version="1.1" id="Layer_1" xmlns="http://www.w3.org/2000/svg" xmlns:xlink="http://www.w3.org/1999/xlink" x="0px" y="0px"
	 viewBox="0 0 600 600" style="enable-background:new 0 0 600 600;" xml:space="preserve">
<style type="text/css">
	.st0{fill:#FFFFFF;}
	.st1{fill:#EF3F50;}
	.st2{fill:#3EDF00;}
	.st3{fill:#F5D000;}
	.st4{fill:#FFA96A;}
	.st5{fill:#D36216;}
	.st6{fill:#FFEA2A;}
	.st7{fill:#E92700;}
	.st8{fill:#4479FF;}
	.st9{fill:#FFE7A4;}
	.st10{fill:#8A6100;}
	.st11{fill:#FF5151;}
	.st12{fill:#C32200;}
	.st13{fill:#B11400;}
	.st14{fill:#911100;}
	.st15{fill:#C80500;}
	.st16{fill:#840000;}
	.st17{fill:#961100;}
	.st18{fill:#545354;}
	.st19{fill:#DA7300;}
</style>
<path d="M338.8,580.3L162.5,333.7c-7.3-10.2-4.9-24.6,5.3-31.9l148.7-106.3c10.2-7.3,24.6-4.9,31.9,5.3l176.4,246.7
	c7.3,10.2,4.9,24.6-5.3,31.9L370.8,585.6C360.5,593,346.2,590.6,338.8,580.3z"/>
<rect x="200.4" y="290.2" transform="matrix(0.596 0.803 -0.803 0.596 440.5711 -122.8655)" class="st0" width="284.1" height="172.4"/>
<rect x="211.1" y="299.2" transform="matrix(0.596 0.803 -0.803 0.596 441.0794 -120.9493)" class="st1" width="259.2" height="157.3"/>
<path class="st2" d="M455.3,303.8c-2.4,0.2-4.9,0.4-7.5,0.4c-2.9,0.1-5.8,0.2-8.8,0.2h-0.7c0.1-0.1,0.1-0.1,0.2-0.1
	c2.3-1.8,5.4-2.8,8.7-2.8c0.6,0,1.2,0,1.8,0.1C451.4,301.8,453.5,302.6,455.3,303.8z"/>
<path class="st2" d="M438.6,304.4h-0.3c0.1-0.1,0.1-0.1,0.2-0.1C438.6,304.3,438.6,304.3,438.6,304.4z"/>
<path class="st2" d="M455.3,303.8c-2.4,0.2-4.9,0.4-7.5,0.4c-2.9,0.1-5.8,0.2-8.8,0.2h-0.7c0.1-0.1,0.1-0.1,0.2-0.1
	c2.3-1.8,5.4-2.8,8.7-2.8c0.6,0,1.2,0,1.8,0.1C451.4,301.8,453.5,302.6,455.3,303.8z"/>
<path class="st2" d="M455.3,303.8c-2.4,0.2-4.9,0.4-7.5,0.4c-0.4-0.3-0.5-0.6-0.5-1c0-0.6,0.7-1.2,1.8-1.7
	C451.4,301.8,453.5,302.6,455.3,303.8z"/>
<rect x="310.4" y="156.9" transform="matrix(0.7436 0.6686 -0.6686 0.7436 250.4735 -198.8491)" width="148.2" height="140.5"/>
<polygon class="st3" points="376.3,302.8 358.8,257.7 311.7,246.6 349.2,216 345.2,167.8 385.9,194 430.5,175.3 418.2,222.1 
	449.7,258.7 401.4,261.5 "/>
<ellipse transform="matrix(0.5 -0.866 0.866 0.5 -1.0031 566.3091)" class="st0" cx="489.9" cy="284" rx="6.6" ry="3"/>
<g>
	<circle class="st2" cx="481.8" cy="341.6" r="0"/>
	<g>
		<path class="st4" d="M507.7,351.1c-0.8-17.6-30.9-31.7-67.9-31.7s-67.1,14.1-67.9,31.7c0.1,2,0.3,4.1,0.9,5.9
			c5.2,20.4,33.3,36,67,36s61.8-15.6,67-36C507.3,355.1,507.6,353.1,507.7,351.1z"/>
		<path class="st5" d="M505.8,336.2c0.4,1.6,0.6,3.1,0.6,4.7c0,19.4-29.5,35.2-65.9,35.2s-65.9-15.8-65.9-35.2
			c0-1.6,0.2-3.2,0.6-4.7c-0.4-1.9-0.6-3.8-0.6-5.7c0-0.3,0-0.7,0-0.9c0.8,17.6,30,31.7,65.9,31.7s65.1-14.1,65.9-31.7
			c0,0.3,0,0.7,0,0.9C506.4,332.4,506.2,334.3,505.8,336.2z"/>
		<path class="st6" d="M505.8,329.5c0.4,1.3,0.6,2.6,0.6,4.1c0,16.6-29.5,30.1-65.9,30.1s-65.9-13.5-65.9-30.1
			c0-1.4,0.2-2.7,0.6-4.1c-0.4-1.6-0.6-3.2-0.6-4.9c0-0.3,0-0.5,0-0.8c0.8,15,30,27.1,65.9,27.1s65.1-12.1,65.9-27.1
			c0,0.3,0,0.5,0,0.8C506.4,326.2,506.2,327.9,505.8,329.5z"/>
		<path class="st2" d="M496.4,337.7c-2.3,1.4-5.1,2.8-8.1,4C489.7,339.7,492.7,338.3,496.4,337.7z"/>
		<path class="st2" d="M506.4,337.9c-1.7-0.4-3.7-0.7-5.7-0.7c-1.5,0-2.9,0.1-4.3,0.3c-2.3,1.4-5.1,2.8-8.1,4c1.4-1.9,4.4-3.4,8.1-4
			c5.5-3.4,8.7-7.4,8.7-11.6c0-1.1-0.2-2.1-0.6-3.2c0.4-1.3,0.6-2.6,0.6-3.9c0-0.2,0-0.4,0-0.7c-0.8,11.7-30,21.2-65.9,21.2
			s-65.1-9.4-65.9-21.2c0,0.2,0,0.4,0,0.7c0,1.3,0.2,2.6,0.6,3.9c-0.4,1-0.6,2.1-0.6,3.2c0,2.8,1.4,5.5,3.9,8
			c-5.7,0.5-10,3.8-10,7.7c0,4.3,5.3,7.8,11.8,7.8c6.4,0,11.6-3.3,11.8-7.5c2.6,1,5.4,1.9,8.5,2.7c-1.4,0.5-2.4,1.2-2.4,2.1
			c0,1.5,3,2.7,6.8,2.7c3.4,0,6.2-1,6.7-2.4c0.8,0.1,1.7,0.3,2.5,0.4c-1.6,0.9-2.4,2-2.4,3.1c0,3.1,6.4,5.6,14.4,5.6
			c4.1,0,7.8-0.7,10.5-1.8c-0.1,0.5-0.2,1.1-0.2,1.7c0,5.2,5.2,9.5,11.7,9.5c6.4,0,11.7-4.3,11.7-9.5c0-1.5-0.4-3-1.2-4.2
			c0.5,0.1,0.9,0.1,1.4,0.2l0,0c3.8,0.4,8.2,0.7,13,0.7c2.1,0,4.1-0.1,6-0.1l0,0c8-0.3,14.4-1.4,17.3-2.7c1.1-0.5,1.7-1,1.7-1.6
			c0-0.2-0.1-0.4-0.3-0.6c1.6,0.3,3,0.5,4.3,0.9c1.8,0.5,3.1,1.1,3.8,1.7c5.5-0.8,9.4-3.4,9.4-6.4c0-0.8-0.3-1.6-0.8-2.3
			C510.3,341.4,507.9,340,506.4,337.9z M447.2,349.3c-2.6,0.1-5.3,0.2-8,0.2h-0.6c0.1-0.1,0.1-0.1,0.2-0.1c2.1-1.6,4.9-2.6,8-2.6
			c0.5,0,1.1,0,1.7,0.1c2.2,0.3,4.1,0.9,5.7,2C451.8,349,449.5,349.1,447.2,349.3z"/>
		<path class="st2" d="M523.3,332.2c0,5.2-4.2,9.4-9.4,9.4c-0.3,0-0.5,0-0.9-0.1c-1.2-1.6-3.6-3-6.7-3.7c-1.1-1.6-1.9-3.5-1.9-5.7
			c0-5.2,4.2-9.4,9.4-9.4C519,322.8,523.3,327.1,523.3,332.2z"/>
		<path class="st2" d="M505.1,351.4c0,2.6-10.5,4.7-23.3,4.7c-11.8,0-21.5-1.8-23.1-4.1c3.8,0.4,8.2,0.7,13,0.7c2.1,0,4.1-0.1,6-0.1
			l0,0c8-0.3,14.4-1.4,17.3-2.7c1.1-0.5,1.7-1,1.7-1.6c0-0.2-0.1-0.4-0.3-0.6c1.6,0.3,3,0.5,4.3,0.9c1.8,0.5,3.1,1.1,3.8,1.7
			C504.8,350.7,505.1,351.1,505.1,351.4z"/>
		<path class="st2" d="M496.4,337.7c-2.3,1.4-5.1,2.8-8.1,4C489.7,339.7,492.7,338.3,496.4,337.7z"/>
		<path class="st2" d="M504.4,350.4c-1.2,0.2-2.4,0.3-3.8,0.3c-0.2,0-0.4,0-0.6,0c-1.8-0.1-3.6-0.3-5.1-0.7c1.1-0.5,1.7-1,1.7-1.6
			c0-0.2-0.1-0.4-0.3-0.6c1.6,0.3,3,0.5,4.3,0.9C502.4,349.1,503.7,349.8,504.4,350.4z"/>
		<path class="st2" d="M513.1,341.6c-2.7-0.3-5.1-1.6-6.7-3.7C509.4,338.7,511.9,340,513.1,341.6z"/>
		<path class="st2" d="M500.6,349.1c0,0.5-0.2,1.1-0.6,1.6c-1.7,2.1-6.8,3.7-12.8,3.7c-3.8,0-7.2-0.6-9.7-1.6
			c8-0.3,14.4-1.4,17.3-2.7c1.1-0.5,1.7-1,1.7-1.6c0-0.2-0.1-0.4-0.3-0.6c1.6,0.3,3,0.5,4.3,0.9
			C500.6,348.8,500.6,348.9,500.6,349.1z"/>
		<path class="st2" d="M513.1,341.6c-2.7-0.3-5.1-1.6-6.7-3.7C509.4,338.7,511.9,340,513.1,341.6z"/>
		<path class="st5" d="M505.2,294c0.4,1.6,0.6,3.1,0.6,4.7c0,19.4-29.5,35.2-65.9,35.2s-65.9-15.8-65.9-35.2c0-1.6,0.2-3.2,0.6-4.7
			c-0.4-1.9-0.6-3.8-0.6-5.7c0-0.3,0-0.7,0-0.9c0.8,17.6,30,31.7,65.9,31.7s65.1-14.1,65.9-31.7c0,0.3,0,0.7,0,0.9
			C505.7,290.3,505.5,292.2,505.2,294z"/>
		<path class="st7" d="M505.2,308.9c0.4,1.6,0.6,3.1,0.6,4.7c0,19.4-29.5,35.2-65.9,35.2s-65.9-15.8-65.9-35.2
			c0-1.6,0.2-3.2,0.6-4.7c-0.4-1.9-0.6-3.8-0.6-5.7c0-0.3,0-0.7,0-0.9c0.8,17.6,30,31.7,65.9,31.7s65.1-14.1,65.9-31.7
			c0,0.3,0,0.7,0,0.9C505.7,305.1,505.5,307,505.2,308.9z"/>
		<path class="st6" d="M505.2,306.7c0.4,1,0.6,2.1,0.6,3.2c0,12.9-29.5,23.4-65.9,23.4s-65.9-10.5-65.9-23.4c0-1.1,0.2-2.1,0.6-3.2
			c-0.4-1.3-0.6-2.6-0.6-3.9c0-0.2,0-0.4,0-0.6c0.8,11.7,30,21.2,65.9,21.2s65.1-9.4,65.9-21.2c0,0.2,0,0.4,0,0.6
			C505.7,304.1,505.5,305.4,505.2,306.7z"/>
		<path class="st4" d="M507.7,287.1c-0.8,17.6-30.9,31.7-67.9,31.7s-67.1-14.1-67.9-31.7c0.1-2,0.3-4.1,0.9-5.9
			c5.2-20.4,33.3-36,67-36s61.8,15.6,67,36C507.3,283.1,507.6,285.1,507.7,287.1z"/>
		
			<ellipse transform="matrix(0.9262 -0.3771 0.3771 0.9262 -73.4148 208.4116)" class="st0" cx="495.6" cy="291.7" rx="2.7" ry="6.1"/>
	</g>
	
		<ellipse transform="matrix(0.5306 -0.8476 0.8476 0.5306 -11.5118 525.3589)" class="st0" cx="468.6" cy="273.1" rx="2.7" ry="6.1"/>
</g>
<ellipse class="st0" cx="471" cy="296.4" rx="3" ry="6.6"/>
<ellipse transform="matrix(0.9855 -0.1694 0.1694 0.9855 -36.3942 84.474)" class="st0" cx="476.8" cy="255.5" rx="3" ry="6.6"/>
<ellipse transform="matrix(0.6096 -0.7927 0.7927 0.6096 -58.114 469.5221)" class="st0" cx="447.6" cy="293.8" rx="3" ry="6.6"/>
<ellipse transform="matrix(0.9373 -0.3484 0.3484 0.9373 -62.6336 188.8785)" class="st0" cx="493.8" cy="268.6" rx="6.6" ry="3"/>
<ellipse transform="matrix(0.4665 -0.8845 0.8845 0.4665 -52.2847 516.7166)" class="st0" cx="402.2" cy="301.7" rx="3" ry="6.6"/>
<ellipse class="st0" cx="446.1" cy="265.5" rx="3" ry="6.6"/>
<ellipse transform="matrix(0.5306 -0.8476 0.8476 0.5306 -33.5229 482.65)" class="st0" cx="419" cy="271.6" rx="3" ry="6.6"/>
<ellipse transform="matrix(0.9855 -0.1694 0.1694 0.9855 -39.6494 71.9812)" class="st0" cx="402" cy="268.3" rx="3" ry="6.6"/>
<rect x="47" y="354" transform="matrix(0.7887 0.6147 -0.6147 0.7887 301.4469 -10.1563)" class="st8" width="237" height="159"/>
<g>
	
		<rect x="88.4" y="318.7" transform="matrix(0.9546 -0.2979 0.2979 0.9546 -103.6842 43.6665)" class="st9" width="6.1" height="86.6"/>
	
		<rect x="97.2" y="317" transform="matrix(0.9546 -0.2979 0.2979 0.9546 -102.7931 46.2324)" class="st9" width="6.1" height="86.6"/>
	
		<rect x="96.4" y="330.1" transform="matrix(0.9973 -7.372420e-02 7.372420e-02 0.9973 -27.2559 8.3493)" class="st9" width="6.1" height="86.6"/>
	
		<rect x="103.1" y="351.6" transform="matrix(0.9973 -7.372420e-02 7.372420e-02 0.9973 -28.8249 8.9032)" class="st9" width="6.1" height="86.6"/>
	
		<rect x="102.5" y="329.9" transform="matrix(0.9973 -7.372420e-02 7.372420e-02 0.9973 -27.2257 8.8002)" class="st9" width="6.1" height="86.6"/>
	
		<rect x="108.5" y="302.7" transform="matrix(0.9546 -0.2979 0.2979 0.9546 -97.9953 48.9337)" class="st9" width="6.1" height="86.6"/>
	
		<rect x="110.6" y="316.6" transform="matrix(0.9973 -7.372420e-02 7.372420e-02 0.9973 -26.2273 9.3587)" class="st9" width="6.1" height="86.6"/>
	
		<rect x="113" y="332.7" transform="matrix(0.9973 -7.372420e-02 7.372420e-02 0.9973 -27.4096 9.58)" class="st9" width="6.1" height="86.6"/>
	
		<rect x="122.5" y="332" transform="matrix(0.9973 -7.372420e-02 7.372420e-02 0.9973 -27.3304 10.2803)" class="st9" width="6.1" height="86.6"/>
	
		<rect x="108.6" y="329.3" transform="matrix(0.9973 -7.372420e-02 7.372420e-02 0.9973 -27.165 9.2415)" class="st9" width="6.1" height="86.6"/>
	
		<rect x="73.5" y="331.2" transform="matrix(0.9973 -7.372420e-02 7.372420e-02 0.9973 -27.4025 6.6644)" class="st9" width="6.1" height="86.6"/>
	
		<rect x="106.2" y="352.9" transform="matrix(0.9973 -7.372420e-02 7.372420e-02 0.9973 -28.9128 9.1303)" class="st9" width="6.1" height="86.6"/>
	
		<rect x="90.3" y="354.8" transform="matrix(0.9973 -7.372420e-02 7.372420e-02 0.9973 -29.1005 7.9641)" class="st9" width="6.1" height="86.6"/>
	
		<rect x="73.2" y="339.9" transform="matrix(0.9973 -7.372420e-02 7.372420e-02 0.9973 -28.0457 6.6674)" class="st9" width="6.1" height="86.6"/>
	
		<rect x="110.6" y="321.2" transform="matrix(0.9885 0.1509 -0.1509 0.9885 56.318 -12.9745)" class="st9" width="6.1" height="86.6"/>
	
		<rect x="128.9" y="305.2" transform="matrix(0.997 -7.709818e-02 7.709818e-02 0.997 -26.478 11.2119)" class="st9" width="6.1" height="86.6"/>
	
		<rect x="125.2" y="317.7" transform="matrix(0.9885 0.1509 -0.1509 0.9885 55.957 -15.2233)" class="st9" width="6.1" height="86.6"/>
	
		<rect x="127.9" y="319.3" transform="matrix(0.9885 0.1509 -0.1509 0.9885 56.2274 -15.603)" class="st9" width="6.1" height="86.6"/>
	
		<rect x="126.6" y="335.6" transform="matrix(0.9885 0.1509 -0.1509 0.9885 58.6665 -15.2272)" class="st9" width="6.1" height="86.6"/>
	
		<rect x="136.1" y="337" transform="matrix(0.9885 0.1509 -0.1509 0.9885 58.9896 -16.6366)" class="st9" width="6.1" height="86.6"/>
	
		<rect x="123" y="331.2" transform="matrix(0.9885 0.1509 -0.1509 0.9885 57.9627 -14.7385)" class="st9" width="6.1" height="86.6"/>
	
		<rect x="130.1" y="330.2" transform="matrix(0.9885 0.1509 -0.1509 0.9885 57.907 -15.8222)" class="st9" width="6.1" height="86.6"/>
	
		<rect x="88.5" y="325.2" transform="matrix(0.9885 0.1509 -0.1509 0.9885 56.6695 -9.5886)" class="st9" width="6.1" height="86.6"/>
	
		<rect x="86.2" y="333.6" transform="matrix(0.9885 0.1509 -0.1509 0.9885 57.9165 -9.1569)" class="st9" width="6.1" height="86.6"/>
	
		<rect x="83.4" y="349.5" transform="matrix(0.9973 -7.372420e-02 7.372420e-02 0.9973 -28.7254 7.4396)" class="st9" width="6.1" height="86.6"/>
	
		<rect x="69.1" y="363.5" transform="matrix(0.9998 -2.235977e-02 2.235977e-02 0.9998 -8.9891 2.5016)" class="st0" width="76.6" height="79.5"/>
</g>
<g>
	<path class="st4" d="M212.6,432.6c-0.7-14.2-25-25.6-54.9-25.6s-54.3,11.4-54.9,25.6c0.1,1.6,0.3,3.3,0.7,4.8
		c4.2,16.5,26.9,29.1,54.2,29.1s49.9-12.6,54.2-29.1C212.3,435.8,212.6,434.2,212.6,432.6z"/>
	<path class="st10" d="M211.1,420.6c0.3,1.3,0.5,2.5,0.5,3.8c0,15.7-23.9,28.4-53.3,28.4S105,440.1,105,424.4c0-1.3,0.2-2.6,0.5-3.8
		c-0.3-1.5-0.5-3.1-0.5-4.6c0-0.3,0-0.5,0-0.8c0.7,14.2,24.2,25.6,53.3,25.6s52.6-11.4,53.3-25.6c0,0.3,0,0.5,0,0.8
		C211.6,417.5,211.4,419.1,211.1,420.6z"/>
	<path class="st6" d="M211.1,415.1c0.3,1,0.5,2.1,0.5,3.3c0,13.4-23.9,24.3-53.3,24.3S105,431.8,105,418.4c0-1.1,0.2-2.2,0.5-3.3
		c-0.3-1.3-0.5-2.6-0.5-4c0-0.2,0-0.4,0-0.7c0.7,12.1,24.2,21.9,53.3,21.9s52.6-9.8,53.3-21.9c0,0.2,0,0.4,0,0.7
		C211.6,412.5,211.4,413.8,211.1,415.1z"/>
	<path class="st2" d="M169.3,430.8c-1.8,0.2-3.7,0.3-5.6,0.3c-2.1,0.1-4.3,0.2-6.5,0.2h-0.5c0.1-0.1,0.1-0.1,0.2-0.1
		c1.7-1.3,4-2.1,6.4-2.1c0.4,0,0.9,0,1.4,0.1C166.4,429.3,168,429.9,169.3,430.8z"/>
	<path class="st2" d="M203.5,421.7c-1.9,1.1-4.1,2.2-6.6,3.2C198.1,423.4,200.5,422.2,203.5,421.7z"/>
	<path class="st2" d="M211.5,421.9c-1.4-0.3-3-0.5-4.6-0.5c-1.2,0-2.3,0.1-3.4,0.3c-1.9,1.1-4.1,2.2-6.6,3.2
		c1.1-1.5,3.6-2.7,6.6-3.2c4.4-2.8,7-6,7-9.4c0-0.9-0.2-1.7-0.5-2.6c0.3-1,0.5-2.1,0.5-3.1c0-0.2,0-0.3,0-0.5
		c-0.7,9.5-24.2,17.1-53.3,17.1s-52.6-7.5-53.3-17c0,0.2,0,0.3,0,0.5c0,1,0.2,2.1,0.5,3.1c-0.3,0.8-0.5,1.7-0.5,2.6
		c0,2.2,1.1,4.4,3.2,6.4c-4.6,0.4-8.1,3-8.1,6.2c0,3.4,4.3,6.3,9.6,6.3c5.2,0,9.4-2.7,9.6-6.1c2.1,0.8,4.4,1.5,6.8,2.2
		c-1.1,0.4-1.9,1-1.9,1.7c0,1.2,2.5,2.2,5.5,2.2c2.7,0,5-0.8,5.4-1.9c0.7,0.1,1.4,0.2,2,0.3c-1.3,0.7-2,1.6-2,2.5
		c0,2.5,5.2,4.5,11.6,4.5c3.3,0,6.3-0.5,8.5-1.4c-0.1,0.4-0.2,0.9-0.2,1.4c0,4.2,4.2,7.7,9.5,7.7c5.2,0,9.5-3.4,9.5-7.7
		c0-1.2-0.3-2.4-1-3.4c0.4,0.1,0.8,0.1,1.1,0.2l0,0c3.1,0.3,6.7,0.5,10.5,0.5c1.7,0,3.3-0.1,4.9-0.1l0,0c6.4-0.3,11.6-1.1,14-2.2
		c0.9-0.4,1.4-0.8,1.4-1.3c0-0.2-0.1-0.3-0.2-0.5c1.3,0.2,2.5,0.4,3.4,0.7c1.4,0.4,2.5,0.9,3.1,1.4c4.4-0.7,7.6-2.7,7.6-5.2
		c0-0.7-0.2-1.3-0.7-1.9C214.7,424.7,212.8,423.6,211.5,421.9z M163.8,431.1c-2.1,0.1-4.3,0.2-6.5,0.2h-0.5c0.1-0.1,0.1-0.1,0.2-0.1
		c1.7-1.3,4-2.1,6.4-2.1c0.4,0,0.9,0,1.4,0.1c1.7,0.2,3.3,0.8,4.6,1.6C167.5,430.9,165.6,431,163.8,431.1z"/>
	<path class="st2" d="M225.2,417.4c0,4.2-3.4,7.6-7.6,7.6c-0.2,0-0.4,0-0.7-0.1c-1-1.3-2.9-2.4-5.4-3c-0.9-1.3-1.5-2.8-1.5-4.6
		c0-4.2,3.4-7.6,7.6-7.6C221.8,409.7,225.2,413.2,225.2,417.4z"/>
	<path class="st2" d="M156.9,431.3h-0.2c0.1-0.1,0.1-0.1,0.2-0.1C156.9,431.1,156.9,431.2,156.9,431.3z"/>
	<path class="st2" d="M210.5,432.9c0,2.1-8.5,3.8-18.9,3.8c-9.5,0-17.4-1.4-18.7-3.3c3.1,0.3,6.7,0.5,10.5,0.5
		c1.7,0,3.3-0.1,4.9-0.1l0,0c6.4-0.3,11.6-1.1,14-2.2c0.9-0.4,1.4-0.8,1.4-1.3c0-0.2-0.1-0.3-0.2-0.5c1.3,0.2,2.5,0.4,3.4,0.7
		c1.4,0.4,2.5,0.9,3.1,1.4C210.3,432.2,210.5,432.6,210.5,432.9z"/>
	<path class="st2" d="M203.5,421.7c-1.9,1.1-4.1,2.2-6.6,3.2C198.1,423.4,200.5,422.2,203.5,421.7z"/>
	<path class="st2" d="M210,432c-1,0.2-2,0.2-3.1,0.2c-0.2,0-0.3,0-0.5,0c-1.5-0.1-2.9-0.2-4.1-0.5c0.9-0.4,1.4-0.8,1.4-1.3
		c0-0.2-0.1-0.3-0.2-0.5c1.3,0.2,2.5,0.4,3.4,0.7C208.3,431,209.4,431.5,210,432z"/>
	<path class="st2" d="M216.9,424.9c-2.2-0.2-4.2-1.3-5.4-3C214,422.5,216,423.6,216.9,424.9z"/>
	<path class="st2" d="M206.9,430.9c0,0.4-0.2,0.9-0.5,1.3c-1.4,1.7-5.5,3-10.3,3c-3.1,0-5.8-0.5-7.8-1.3c6.4-0.3,11.6-1.1,14-2.2
		c0.9-0.4,1.4-0.8,1.4-1.3c0-0.2-0.1-0.3-0.2-0.5c1.3,0.2,2.5,0.4,3.4,0.7C206.9,430.7,206.9,430.8,206.9,430.9z"/>
	<path class="st2" d="M169.3,430.8c-1.8,0.2-3.7,0.3-5.6,0.3c-2.1,0.1-4.3,0.2-6.5,0.2h-0.5c0.1-0.1,0.1-0.1,0.2-0.1
		c1.7-1.3,4-2.1,6.4-2.1c0.4,0,0.9,0,1.4,0.1C166.4,429.3,168,429.9,169.3,430.8z"/>
	<path class="st2" d="M216.9,424.9c-2.2-0.2-4.2-1.3-5.4-3C214,422.5,216,423.6,216.9,424.9z"/>
	<path class="st2" d="M169.3,430.8c-1.8,0.2-3.7,0.3-5.6,0.3c-0.3-0.2-0.4-0.4-0.4-0.7c0-0.4,0.5-0.9,1.4-1.3
		C166.4,429.3,168,429.9,169.3,430.8z"/>
	<circle class="st2" cx="191.6" cy="425" r="0"/>
	<path class="st10" d="M210.5,386.4c0.3,1.3,0.5,2.5,0.5,3.8c0,15.7-23.9,28.4-53.3,28.4s-53.3-12.7-53.3-28.4
		c0-1.3,0.2-2.6,0.5-3.8c-0.3-1.5-0.5-3.1-0.5-4.6c0-0.3,0-0.5,0-0.8c0.7,14.2,24.2,25.6,53.3,25.6s52.6-11.4,53.3-25.6
		c0,0.3,0,0.5,0,0.8C211,383.4,210.9,384.9,210.5,386.4z"/>
	<path class="st7" d="M210.5,398.5c0.3,1.3,0.5,2.5,0.5,3.8c0,15.7-23.9,28.4-53.3,28.4s-53.3-12.7-53.3-28.4c0-1.3,0.2-2.6,0.5-3.8
		c-0.3-1.5-0.5-3.1-0.5-4.6c0-0.3,0-0.5,0-0.8c0.7,14.2,24.2,25.6,53.3,25.6s52.6-11.4,53.3-25.6c0,0.3,0,0.5,0,0.8
		C211,395.4,210.9,396.9,210.5,398.5z"/>
	<path class="st6" d="M210.5,396.7c0.3,0.8,0.5,1.7,0.5,2.6c0,10.4-23.9,18.9-53.3,18.9s-53.3-8.5-53.3-18.9c0-0.9,0.2-1.7,0.5-2.6
		c-0.3-1-0.5-2.1-0.5-3.1c0-0.2,0-0.3,0-0.5c0.7,9.5,24.2,17.1,53.3,17.1s52.6-7.6,53.3-17.1c0,0.2,0,0.3,0,0.5
		C211,394.6,210.9,395.6,210.5,396.7z"/>
	<path class="st4" d="M212.6,380.8c-0.7,14.2-25,25.6-54.9,25.6s-54.3-11.4-54.9-25.6c0.1-1.6,0.3-3.3,0.7-4.8
		c4.2-16.5,26.9-29.1,54.2-29.1s49.9,12.6,54.2,29.1C212.3,377.6,212.6,379.2,212.6,380.8z"/>
	<ellipse class="st0" cx="171.7" cy="353.8" rx="2.2" ry="4.9"/>
	
		<ellipse transform="matrix(0.9262 -0.3771 0.3771 0.9262 -130.0307 104.8746)" class="st0" cx="202.8" cy="384.5" rx="2.2" ry="4.9"/>
	<ellipse transform="matrix(0.5 -0.866 0.866 0.5 -253.1809 346.9279)" class="st0" cx="173.9" cy="392.7" rx="4.9" ry="2.2"/>
	
		<ellipse transform="matrix(0.5306 -0.8476 0.8476 0.5306 -228.2589 326.8481)" class="st0" cx="181" cy="369.5" rx="2.2" ry="4.9"/>
	
		<ellipse transform="matrix(0.9855 -0.1694 0.1694 0.9855 -60.5913 33.1881)" class="st0" cx="164.2" cy="371.7" rx="2.2" ry="4.9"/>
	
		<ellipse transform="matrix(0.6096 -0.7927 0.7927 0.6096 -227.3813 259.6545)" class="st0" cx="149.9" cy="360.7" rx="2.2" ry="4.9"/>
	
		<ellipse transform="matrix(0.9373 -0.3484 0.3484 0.9373 -121.7814 85.4573)" class="st0" cx="176.7" cy="381.3" rx="4.9" ry="2.2"/>
	
		<ellipse transform="matrix(0.4665 -0.8845 0.8845 0.4665 -263.9891 340.0924)" class="st0" cx="149.9" cy="388.9" rx="2.2" ry="4.9"/>
	<ellipse class="st0" cx="138.1" cy="360.6" rx="2.2" ry="4.9"/>
	
		<ellipse transform="matrix(0.5306 -0.8476 0.8476 0.5306 -249.8231 301.5433)" class="st0" cx="147.3" cy="376.3" rx="2.2" ry="4.9"/>
	
		<ellipse transform="matrix(0.9855 -0.1694 0.1694 0.9855 -62.3299 25.0641)" class="st0" cx="115.7" cy="377.8" rx="2.2" ry="4.9"/>
</g>
<g>
	<path class="st0" d="M169.8,64.1l3.8,5.4l-1.3,0.9l-3.8-5.4l-2.5,1.7l3.8,5.4l-1.3,0.9l-3.8-5.4l-34.2,23.8l103.3,148.2l73.5-51.2
		L204,40.2L169.8,64.1z"/>
	<rect x="117.5" y="78.9" transform="matrix(0.8205 -0.5717 0.5717 0.8205 -22.1507 97.3824)" width="52.9" height="10.2"/>
	<rect x="166.7" y="62" transform="matrix(0.8205 -0.5717 0.5717 0.8205 -8.1602 108.1942)" width="3.1" height="10.2"/>
	<rect x="166" y="45.4" transform="matrix(0.8205 -0.5717 0.5717 0.8205 5.589 118.8195)" width="51.9" height="10.2"/>
	<polygon class="st0" points="208.3,28.6 214.1,36.9 171.6,66.6 167.8,61.2 166.5,62 170.3,67.5 167.8,69.2 164,63.8 162.8,64.7 
		166.5,70.1 123.1,100.3 117.3,92 160.3,62 137.6,29.5 143.5,25.4 166.2,58 	"/>
	
		<rect x="150.3" y="24.9" transform="matrix(0.8205 -0.5717 0.5717 0.8205 0.5408 94.6915)" class="st11" width="1.5" height="43.2"/>
	<rect x="154" y="22.2" transform="matrix(0.8205 -0.5717 0.5717 0.8205 2.7118 96.3692)" class="st11" width="1.5" height="43.2"/>
	
		<rect x="110.3" y="59.6" transform="matrix(0.8205 -0.5717 0.5717 0.8205 -7.2432 106.4467)" class="st0" width="111" height="10.3"/>
	<rect x="114.3" y="68.5" transform="matrix(0.8205 -0.5717 0.5717 0.8205 -9.7063 109.6963)" width="110.9" height="3.6"/>
	<polygon class="st3" points="251.5,145.6 227.2,148.4 216.5,170.4 205.4,147.7 181,143.3 198.5,126.5 194,101.7 215.9,114 
		237.6,103.1 233.7,127.6 	"/>
</g>
<g>
	<path class="st0" d="M78.4,112.6l2,4.9l-1.1,0.5l-2-4.9l-2.3,0.9l2,4.9l-1.1,0.5l-2-4.9l-31,12.4l53.5,134.2l66.5-26.5l-53.5-134.2
		L78.4,112.6z"/>
	<rect x="33.5" y="119.3" transform="matrix(0.9288 -0.3706 0.3706 0.9288 -41.822 29.0506)" width="42.3" height="8.1"/>
	<rect x="75.4" y="110.5" transform="matrix(0.9288 -0.3706 0.3706 0.9288 -37.0196 36.552)" width="2.4" height="8.1"/>
	<rect x="77.4" y="101.9" transform="matrix(0.9288 -0.3706 0.3706 0.9288 -32.3 43.9241)" width="41.5" height="8.1"/>
	<polygon class="st0" points="114.9,91.9 117.9,99.5 79.3,114.8 77.4,109.9 76.2,110.4 78.2,115.3 75.9,116.2 74,111.3 72.8,111.7 
		74.8,116.7 35.5,132.3 32.5,124.8 71.4,109.2 59.6,79.8 64.9,77.7 76.7,107.1 	"/>
	
		<rect x="65.2" y="76.8" transform="matrix(0.9288 -0.3706 0.3706 0.9288 -30.1438 32.0542)" class="st11" width="6.4" height="35.4"/>
	
		<rect x="30.8" y="108.3" transform="matrix(0.9288 -0.3706 0.3706 0.9288 -36.2883 35.8787)" class="st0" width="88.8" height="8.2"/>
	<rect x="32.9" y="116" transform="matrix(0.9288 -0.3706 0.3706 0.9288 -38.0078 37.0023)" width="88.7" height="2.8"/>
	<polygon class="st3" points="127.3,190.9 107.8,188.7 95.5,203.9 91,184.2 72.8,176.3 89.4,166.4 90.5,146.3 105.3,159.9 
		124.2,155.3 116.7,173.6 	"/>
</g>
<g>
	
		<ellipse transform="matrix(0.9282 -0.3722 0.3722 0.9282 -140.3858 204.9843)" class="st0" cx="460.8" cy="466.1" rx="39.3" ry="28.9"/>
	<g>
		
			<ellipse transform="matrix(0.9282 -0.3722 0.3722 0.9282 -141.2074 204.4232)" class="st12" cx="458.9" cy="468" rx="34" ry="25"/>
		
			<ellipse transform="matrix(0.9282 -0.3722 0.3722 0.9282 -140.8836 203.3216)" class="st13" cx="456.2" cy="466.6" rx="31.4" ry="23.1"/>
		
			<ellipse transform="matrix(0.9282 -0.3722 0.3722 0.9282 -140.801 206.0755)" class="st14" cx="463.4" cy="467.8" rx="29.7" ry="21.9"/>
		
			<ellipse transform="matrix(0.9282 -0.3722 0.3722 0.9282 -139.5893 205.0401)" class="st15" cx="461.3" cy="464.1" rx="29.7" ry="21.9"/>
		
			<ellipse transform="matrix(0.9282 -0.3722 0.3722 0.9282 -138.6519 207.3712)" class="st16" cx="467.8" cy="462.8" rx="29.4" ry="21.9"/>
		
			<ellipse transform="matrix(0.9282 -0.3722 0.3722 0.9282 -140.7507 202.2152)" class="st15" cx="453.4" cy="465.7" rx="25.8" ry="17.9"/>
		
			<ellipse transform="matrix(0.9282 -0.3722 0.3722 0.9282 -138.8132 203.8386)" class="st0" cx="458.6" cy="461.5" rx="25.6" ry="18.9"/>
		
			<ellipse transform="matrix(0.9282 -0.3722 0.3722 0.9282 -138.054 204.9447)" class="st17" cx="461.8" cy="460.1" rx="26.9" ry="19.8"/>
	</g>
</g>
<g>
	
		<ellipse transform="matrix(0.9282 -0.3722 0.3722 0.9282 -151.4428 171.3136)" class="st0" cx="368" cy="477.9" rx="39.3" ry="28.9"/>
	<g>
		
			<ellipse transform="matrix(0.9282 -0.3722 0.3722 0.9282 -152.2644 170.7525)" class="st12" cx="366.2" cy="479.8" rx="34" ry="25"/>
		
			<ellipse transform="matrix(0.9282 -0.3722 0.3722 0.9282 -151.9406 169.6509)" class="st13" cx="363.5" cy="478.4" rx="31.4" ry="23.1"/>
		
			<ellipse transform="matrix(0.9282 -0.3722 0.3722 0.9282 -151.858 172.4048)" class="st14" cx="370.7" cy="479.6" rx="29.7" ry="21.9"/>
		
			<ellipse transform="matrix(0.9282 -0.3722 0.3722 0.9282 -150.6463 171.3694)" class="st15" cx="368.6" cy="475.9" rx="29.7" ry="21.9"/>
		
			<ellipse transform="matrix(0.9282 -0.3722 0.3722 0.9282 -149.7089 173.7005)" class="st16" cx="375.1" cy="474.6" rx="29.4" ry="21.9"/>
		
			<ellipse transform="matrix(0.9282 -0.3722 0.3722 0.9282 -151.8076 168.5445)" class="st15" cx="360.7" cy="477.5" rx="25.8" ry="17.9"/>
		
			<ellipse transform="matrix(0.9282 -0.3722 0.3722 0.9282 -149.8702 170.1679)" class="st0" cx="365.8" cy="473.3" rx="25.6" ry="18.9"/>
		
			<ellipse transform="matrix(0.9282 -0.3722 0.3722 0.9282 -149.111 171.274)" class="st17" cx="369.1" cy="471.9" rx="26.9" ry="19.8"/>
	</g>
</g>
<g>
	<path class="st18" d="M208.5,457.5c-23.9,0-43.3,8.5-43.3,19c0,10.5,19.4,19,43.3,19c23.9,0,43.3-8.5,43.3-19
		C251.8,466,232.4,457.5,208.5,457.5z M208.1,493.1c-20.3,0-36.8-7.2-36.8-16.1c0-8.9,16.5-16.1,36.8-16.1
		c20.3,0,36.8,7.2,36.8,16.1C244.9,485.8,228.5,493.1,208.1,493.1z"/>
	<path class="st18" d="M211.9,466.6c-30.1,0-54.6,10.9-54.6,24.4c0,13.5,24.4,24.4,54.6,24.4c30.1,0,54.6-10.9,54.6-24.4
		C266.5,477.5,242,466.6,211.9,466.6z M211.5,512.3c-25.6,0-46.3-9.3-46.3-20.8c0-11.5,20.7-20.8,46.3-20.8
		c25.6,0,46.3,9.3,46.3,20.8C257.8,503,237.1,512.3,211.5,512.3z"/>
	<path class="st18" d="M167,479.2c-19.9,0-36,9-36,20s16.1,20,36,20c19.9,0,36-9,36-20S186.9,479.2,167,479.2z M166.8,516.7
		c-16.9,0-30.6-7.6-30.6-17s13.7-17,30.6-17c16.9,0,30.6,7.6,30.6,17S183.7,516.7,166.8,516.7z"/>
	<path class="st19" d="M205.4,452.1c-23.9,0-43.3,8.5-43.3,19c0,10.5,19.4,19,43.3,19c23.9,0,43.3-8.5,43.3-19
		C248.7,460.6,229.3,452.1,205.4,452.1z M205.1,487.6c-20.3,0-36.8-7.2-36.8-16.1c0-8.9,16.5-16.1,36.8-16.1
		c20.3,0,36.8,7.2,36.8,16.1C241.8,480.4,225.4,487.6,205.1,487.6z"/>
	<path class="st19" d="M208.8,461.1c-30.1,0-54.6,10.9-54.6,24.4c0,13.5,24.4,24.4,54.6,24.4c30.1,0,54.6-10.9,54.6-24.4
		C263.4,472.1,238.9,461.1,208.8,461.1z M208.4,506.9c-25.6,0-46.3-9.3-46.3-20.8c0-11.5,20.7-20.8,46.3-20.8
		c25.6,0,46.3,9.3,46.3,20.8C254.7,497.6,234,506.9,208.4,506.9z"/>
	<path class="st19" d="M163.9,473.7c-19.9,0-36,9-36,20s16.1,20,36,20c19.9,0,36-9,36-20S183.8,473.7,163.9,473.7z M163.7,511.3
		c-16.9,0-30.6-7.6-30.6-17s13.7-17,30.6-17c16.9,0,30.6,7.6,30.6,17S180.6,511.3,163.7,511.3z"/>
</g>
<g>
	
		<rect x="288.2" y="292.4" transform="matrix(0.8019 -0.5975 0.5975 0.8019 -151.3138 243.9933)" class="st9" width="8.1" height="115.5"/>
	
		<rect x="298.6" y="286.4" transform="matrix(0.8019 -0.5975 0.5975 0.8019 -145.6765 249.0351)" class="st9" width="8.1" height="115.5"/>
	
		<rect x="303.3" y="303.2" transform="matrix(0.9165 -0.4001 0.4001 0.9165 -118.7296 153.1582)" class="st9" width="8.1" height="115.5"/>
	
		<rect x="321.3" y="327.3" transform="matrix(0.9165 -0.4001 0.4001 0.9165 -126.8749 162.3595)" class="st9" width="8.1" height="115.5"/>
	
		<rect x="311" y="300.2" transform="matrix(0.9165 -0.4001 0.4001 0.9165 -116.9183 155.9613)" class="st9" width="8.1" height="115.5"/>
	
		<rect x="306.4" y="263.4" transform="matrix(0.8019 -0.5975 0.5975 0.8019 -130.3464 249.1264)" class="st9" width="8.1" height="115.5"/>
	
		<rect x="315.3" y="280" transform="matrix(0.9165 -0.4001 0.4001 0.9165 -108.4702 155.9882)" class="st9" width="8.1" height="115.5"/>
	
		<rect x="325.4" y="299.2" transform="matrix(0.9165 -0.4001 0.4001 0.9165 -115.3106 161.6555)" class="st9" width="8.1" height="115.5"/>
	
		<rect x="337.1" y="294.1" transform="matrix(0.9165 -0.4001 0.4001 0.9165 -112.289 165.8933)" class="st9" width="8.1" height="115.5"/>
	
		<rect x="318.3" y="296.8" transform="matrix(0.9165 -0.4001 0.4001 0.9165 -114.9443 158.5932)" class="st9" width="8.1" height="115.5"/>
	
		<rect x="275.1" y="314.7" transform="matrix(0.9165 -0.4001 0.4001 0.9165 -125.7162 142.8054)" class="st9" width="8.1" height="115.5"/>
	
		<rect x="325.7" y="327.6" transform="matrix(0.9165 -0.4001 0.4001 0.9165 -126.6283 164.1408)" class="st9" width="8.1" height="115.5"/>
	
		<rect x="306.6" y="337" transform="matrix(0.9165 -0.4001 0.4001 0.9165 -132.0202 157.2836)" class="st9" width="8.1" height="115.5"/>
	
		<rect x="278.6" y="325.8" transform="matrix(0.9165 -0.4001 0.4001 0.9165 -129.8583 145.1303)" class="st9" width="8.1" height="115.5"/>
	
		<rect x="317.2" y="285.8" transform="matrix(0.9827 -0.1853 0.1853 0.9827 -58.0905 65.4881)" class="st9" width="8.1" height="115.5"/>
	
		<rect x="333.2" y="257.6" transform="matrix(0.9151 -0.4032 0.4032 0.9151 -98.504 162.7827)" class="st9" width="8.1" height="115.5"/>
	
		<rect x="334.1" y="274.9" transform="matrix(0.9827 -0.1853 0.1853 0.9827 -55.7844 68.4231)" class="st9" width="8.1" height="115.5"/>
	
		<rect x="338.1" y="275.7" transform="matrix(0.9827 -0.1853 0.1853 0.9827 -55.8698 69.1822)" class="st9" width="8.1" height="115.5"/>
	
		<rect x="343.7" y="296.7" transform="matrix(0.9827 -0.1853 0.1853 0.9827 -59.6635 70.584)" class="st9" width="8.1" height="115.5"/>
	
		<rect x="356.2" y="294.4" transform="matrix(0.9827 -0.1853 0.1853 0.9827 -59.0053 72.8604)" class="st9" width="8.1" height="115.5"/>
	
		<rect x="337.3" y="292.8" transform="matrix(0.9827 -0.1853 0.1853 0.9827 -59.0439 69.3239)" class="st9" width="8.1" height="115.5"/>
	
		<rect x="345.8" y="288.5" transform="matrix(0.9827 -0.1853 0.1853 0.9827 -58.1019 70.8323)" class="st9" width="8.1" height="115.5"/>
	
		<rect x="291.2" y="300.6" transform="matrix(0.9827 -0.1853 0.1853 0.9827 -61.2877 60.9164)" class="st9" width="8.1" height="115.5"/>
	
		<rect x="292.1" y="312.2" transform="matrix(0.9827 -0.1853 0.1853 0.9827 -63.4178 61.2898)" class="st9" width="8.1" height="115.5"/>
	
		<rect x="295.5" y="333.4" transform="matrix(0.9165 -0.4001 0.4001 0.9165 -131.4792 152.5525)" class="st9" width="8.1" height="115.5"/>
	
		<rect x="279.5" y="342" transform="matrix(0.9358 -0.3525 0.3525 0.9358 -118.0036 141.8636)" class="st0" width="102.1" height="105.9"/>
</g>
<g>
	<rect x="12.6" y="6.6" class="st0" width="87.9" height="16.4"/>
	
		<rect x="-22.6" y="42.9" transform="matrix(-1.836970e-16 1 -1 -1.836970e-16 72.5415 29.75)" class="st0" width="87.9" height="16.4"/>
</g>
<g>
	
		<rect x="500.1" y="8.1" transform="matrix(-1 -4.490109e-11 4.490109e-11 -1 1088.0706 32.6192)" class="st0" width="87.9" height="16.4"/>
	
		<rect x="535.2" y="44.4" transform="matrix(-4.490116e-11 1 -1 -4.490116e-11 631.8446 -526.5536)" class="st0" width="87.9" height="16.4"/>
</g>
<g>
	
		<rect x="498.3" y="571.7" transform="matrix(-0.9998 1.875467e-02 -1.875467e-02 -0.9998 1095.2021 1149.4586)" class="st0" width="87.9" height="16.4"/>
	
		<rect x="532.7" y="534.7" transform="matrix(-1.875467e-02 -0.9998 0.9998 -1.875467e-02 44.7226 1129.6432)" class="st0" width="87.9" height="16.4"/>
</g>
<g>
	
		<rect x="12.3" y="571.7" transform="matrix(0.9998 1.875467e-02 -1.875467e-02 0.9998 10.8851 -0.9527)" class="st0" width="87.9" height="16.4"/>
	
		<rect x="-22.2" y="534.7" transform="matrix(1.875467e-02 -0.9998 0.9998 1.875467e-02 -521.4291 554.4498)" class="st0" width="87.9" height="16.4"/>
</g>
<rect x="122.1" y="6.6" class="st0" width="46.5" height="15"/>
<rect x="188.1" y="6.6" class="st0" width="46.5" height="15"/>
<rect x="251.1" y="6.6" class="st0" width="46.5" height="15"/>
<rect x="312.6" y="6.6" class="st0" width="46.5" height="15"/>
<rect x="372.6" y="6.6" class="st0" width="46.5" height="15"/>
<rect x="429.6" y="6.6" class="st0" width="46.5" height="15"/>
<rect x="119.1" y="572.1" class="st0" width="46.5" height="15"/>
<rect x="185.1" y="572.1" class="st0" width="46.5" height="15"/>
<rect x="248.1" y="572.1" class="st0" width="46.5" height="15"/>
<rect x="309.6" y="572.1" class="st0" width="46.5" height="15"/>
<rect x="369.6" y="572.1" class="st0" width="46.5" height="15"/>
<rect x="426.6" y="572.1" class="st0" width="46.5" height="15"/>
<rect x="555" y="138.9" transform="matrix(-7.354284e-03 1 -1 -7.354284e-03 728.8079 -430.7622)" class="st0" width="46.5" height="15"/>
<rect x="554.5" y="204.8" transform="matrix(-7.354284e-03 1 -1 -7.354284e-03 794.3121 -363.7966)" class="st0" width="46.5" height="15"/>
<rect x="554" y="267.8" transform="matrix(-7.354284e-03 1 -1 -7.354284e-03 856.8389 -299.8748)" class="st0" width="46.5" height="15"/>
<rect x="553.6" y="329.3" transform="matrix(-7.354284e-03 1 -1 -7.354284e-03 917.8769 -237.4751)" class="st0" width="46.5" height="15"/>
<rect x="553.1" y="389.3" transform="matrix(-7.354284e-03 1 -1 -7.354284e-03 977.4261 -176.5972)" class="st0" width="46.5" height="15"/>
<rect x="552.7" y="446.3" transform="matrix(-7.354284e-03 1 -1 -7.354284e-03 1033.9979 -118.7633)" class="st0" width="46.5" height="15"/>
<rect x="0" y="137.4" transform="matrix(-7.354284e-03 1 -1 -7.354284e-03 168.2544 122.6841)" class="st0" width="46.5" height="15"/>
<rect x="-0.5" y="203.3" transform="matrix(-7.354284e-03 1 -1 -7.354284e-03 233.7586 189.6497)" class="st0" width="46.5" height="15"/>
<rect x="-1" y="266.3" transform="matrix(-7.354284e-03 1 -1 -7.354284e-03 296.2853 253.5714)" class="st0" width="46.5" height="15"/>
<rect x="-1.4" y="327.8" transform="matrix(-7.354284e-03 1 -1 -7.354284e-03 357.3233 315.9712)" class="st0" width="46.5" height="15"/>
<rect x="-1.9" y="387.8" transform="matrix(-7.354284e-03 1 -1 -7.354284e-03 416.8726 376.849)" class="st0" width="46.5" height="15"/>
<rect x="-2.3" y="444.8" transform="matrix(-7.354284e-03 1 -1 -7.354284e-03 473.4444 434.683)" class="st0" width="46.5" height="15"/>
</svg>
