<?xml version="1.0" encoding="utf-8"?>
<!-- Generator: Adobe Illustrator 21.1.0, SVG Export Plug-In . SVG Version: 6.00 Build 0)  -->
<svg version="1.1" id="Layer_1" xmlns="http://www.w3.org/2000/svg" xmlns:xlink="http://www.w3.org/1999/xlink" x="0px" y="0px"
	 viewBox="0 0 600 600" style="enable-background:new 0 0 600 600;" xml:space="preserve">
<style type="text/css">
	.st0{fill:#FFFFFF;}
	.st1{fill:#422C01;}
	.st2{fill:#563C00;}
	.st3{fill:#C9B393;}
	.st4{fill:#AE78F4;stroke:#FFFFFF;stroke-miterlimit:10;}
	.st5{fill:#FC6363;}
	.st6{fill:#B29E84;}
</style>
<g>
	<g>
		<rect x="12.6" y="6.6" class="st0" width="87.9" height="16.4"/>
		<rect x="13.2" y="7.1" class="st0" width="16.4" height="87.9"/>
	</g>
	<g>
		<rect x="500.1" y="8.1" class="st0" width="87.9" height="16.4"/>
		<rect x="571" y="8.6" class="st0" width="16.4" height="87.9"/>
	</g>
	<g>
		
			<rect x="498.2" y="571.6" transform="matrix(0.9998 -1.875512e-02 1.875512e-02 0.9998 -10.7797 10.2707)" class="st0" width="87.9" height="16.4"/>
		
			<rect x="568.5" y="499" transform="matrix(0.9998 -1.875512e-02 1.875512e-02 0.9998 -10.0812 10.9116)" class="st0" width="16.4" height="87.9"/>
	</g>
	<g>
		
			<rect x="48" y="535.9" transform="matrix(1.875512e-02 -0.9998 0.9998 1.875512e-02 -524.5912 625.2486)" class="st0" width="16.4" height="87.9"/>
		
			<rect x="-22.2" y="534.7" transform="matrix(1.875512e-02 -0.9998 0.9998 1.875512e-02 -521.4286 554.4706)" class="st0" width="87.9" height="16.4"/>
	</g>
	<rect x="122.1" y="6.6" class="st0" width="46.5" height="15"/>
	<rect x="188.1" y="6.6" class="st0" width="46.5" height="15"/>
	<rect x="251.1" y="6.6" class="st0" width="46.5" height="15"/>
	<rect x="312.6" y="6.6" class="st0" width="46.5" height="15"/>
	<rect x="372.6" y="6.6" class="st0" width="46.5" height="15"/>
	<rect x="429.6" y="6.6" class="st0" width="46.5" height="15"/>
	<rect x="119.1" y="572.1" class="st0" width="46.5" height="15"/>
	<rect x="185.1" y="572.1" class="st0" width="46.5" height="15"/>
	<rect x="248.1" y="572.1" class="st0" width="46.5" height="15"/>
	<rect x="309.6" y="572.1" class="st0" width="46.5" height="15"/>
	<rect x="369.6" y="572.1" class="st0" width="46.5" height="15"/>
	<rect x="426.6" y="572.1" class="st0" width="46.5" height="15"/>
	
		<rect x="554.9" y="138.9" transform="matrix(7.354085e-03 -1 1 7.354085e-03 427.4963 723.4741)" class="st0" width="46.5" height="15"/>
	
		<rect x="554.5" y="204.9" transform="matrix(7.354085e-03 -1 1 7.354085e-03 361.1279 788.5776)" class="st0" width="46.5" height="15"/>
	
		<rect x="554" y="267.9" transform="matrix(7.354085e-03 -1 1 7.354085e-03 297.7051 850.6037)" class="st0" width="46.5" height="15"/>
	
		<rect x="553.6" y="329.4" transform="matrix(7.354085e-03 -1 1 7.354085e-03 235.7036 911.2394)" class="st0" width="46.5" height="15"/>
	
		<rect x="553.1" y="389.3" transform="matrix(7.354085e-03 -1 1 7.354085e-03 175.3248 970.2881)" class="st0" width="46.5" height="15"/>
	
		<rect x="552.7" y="446.3" transform="matrix(7.354085e-03 -1 1 7.354085e-03 117.8895 1026.4584)" class="st0" width="46.5" height="15"/>
	
		<rect x="-0.1" y="137.4" transform="matrix(7.354085e-03 -1 1 7.354085e-03 -121.8516 166.9859)" class="st0" width="46.5" height="15"/>
	
		<rect x="-0.5" y="203.3" transform="matrix(7.354085e-03 -1 1 7.354085e-03 -188.22 232.0895)" class="st0" width="46.5" height="15"/>
	
		<rect x="-0.9" y="266.3" transform="matrix(7.354085e-03 -1 1 7.354085e-03 -251.6429 294.1153)" class="st0" width="46.5" height="15"/>
	
		<rect x="-1.4" y="327.9" transform="matrix(7.354085e-03 -1 1 7.354085e-03 -313.6444 354.7511)" class="st0" width="46.5" height="15"/>
	
		<rect x="-1.8" y="387.8" transform="matrix(7.354085e-03 -1 1 7.354085e-03 -374.0231 413.7998)" class="st0" width="46.5" height="15"/>
	
		<rect x="-2.3" y="444.8" transform="matrix(7.354085e-03 -1 1 7.354085e-03 -431.4585 469.9702)" class="st0" width="46.5" height="15"/>
</g>
<g>
	<polygon class="st1" points="-1169.3,494.5 -891.1,320.4 -856.1,396.3 	"/>
	<g>
		<path class="st1" d="M-580.1,318.4c16.3,26.3,21.9,53.4,17.8,76.7c2.3,8,2.7,16.9,1.3,26.5c-12.5,7.3-25.9,14.5-40.1,21.6
			c-7.9,4-15.9,7.8-23.8,11.4c-95,43.7-186.1,62.9-210,42.9c-4.7-4-6.5-9.2-5.6-15.4c0.5-3.5,1.8-7.3,4-11.4
			c10.1-19.3,38.1-44.5,78.3-70.3c18.7-12,40-24.1,63.4-35.8C-655.3,344.9-615.6,329.1-580.1,318.4z"/>
		<path class="st1" d="M-607.9,427.4c4.5,30.9-90,73.6-211,95.4c-121.1,21.7-222.9,14.3-227.4-16.6c-4.5-30.9,90-73.6,211-95.4
			C-714.3,389-612.5,396.5-607.9,427.4z"/>
		<path class="st1" d="M-841.5,452c19.9,24.3-17.8,65.3-84.2,91.5c-66.4,26.2-136.4,27.8-156.2,3.5c-19.9-24.3,17.8-65.3,84.2-91.5
			C-931.4,429.3-861.4,427.7-841.5,452z"/>
	</g>
	<g>
		<path class="st1" d="M-893.8,247.2c3.1,27.3,0.6,52.8-6.2,72.6c-0.4,7.7-2,15.7-4.6,24c-7.8,3.6-16.1,6.9-24.8,9.9
			c-4.8,1.7-9.6,3.2-14.4,4.6c-57.2,16.8-107.4,12.7-115.7-10.8c-1.6-4.6-1.5-9.7,0.2-15c0.9-3,2.4-6.1,4.3-9.2
			c9-14.9,28.3-30.8,53.9-44.5c11.9-6.3,25.2-12.2,39.4-17.2C-937.5,253.3-914.1,248.5-893.8,247.2z"/>
		
			<ellipse transform="matrix(0.1327 -0.9912 0.9912 0.1327 -1229.1721 -760.8708)" class="st1" cx="-1049.4" cy="321.9" rx="52.4" ry="120.7"/>
		
			<ellipse transform="matrix(0.9801 -0.1983 0.1983 0.9801 -85.726 -216.6354)" class="st1" cx="-1124.5" cy="319.7" rx="72.2" ry="48.7"/>
	</g>
	
		<ellipse transform="matrix(0.9587 -0.2845 0.2845 0.9587 -65.682 -185.1815)" class="st1" cx="-670.4" cy="133.5" rx="120.7" ry="52.4"/>
	<path class="st2" d="M-287.4,111.8c-5.1-14.3-12.9-23.5-22.4-24.7c-19.2-2.4-39.3,28-48.5,70.7c-44.4-20.5-109.4-27-178.8-14.2
		c-20.1,3.7-39.2,8.7-57.2,14.9c-6.2-13.9-9.6-28.9-9.6-44.6c0-71.7,70.8-129.7,158.2-129.7C-359.1-15.9-288.8,41.1-287.4,111.8z"/>
	
		<ellipse transform="matrix(0.7374 -0.6755 0.6755 0.7374 -95.0174 -208.6812)" class="st2" cx="-315.9" cy="17.9" rx="31.5" ry="18.7"/>
	
		<ellipse transform="matrix(0.9554 -0.2954 0.2954 0.9554 -24.0642 -167.006)" class="st2" cx="-564.8" cy="-3.9" rx="18.7" ry="31.5"/>
	<path class="st2" d="M-282.2,187c-3.4,26.6-11,50-20.6,66.3c-2.4,7.9-6,15.7-10.9,23.4c-0.7,2.7-1.5,5.5-2.4,8.2
		c-0.8,2.5-1.6,4.9-2.4,7.2c-9.2,25.8-22.7,47.7-37.5,62.5c-3.8,6.7-8.7,13.2-14.7,19.5c-44.8,46.4-149.5,78.4-274.1,77.9
		c-169.9-0.7-312.2-61.5-317.9-135.9c-4.8-61.8,86.3-113.5,214.7-128.8c7.3-0.9,14.7-1.6,22.2-2.3c22.4-6.2,48.7-8.4,77.2-6.4
		c2,0.1,4.1,0.3,6.2,0.5c5.2-2.8,10.6-5.4,16.2-8c10.2-4.7,20.9-9,32.1-12.8c17.9-6.2,37.1-11.2,57.2-14.9
		c69.4-12.7,134.4-6.2,178.8,14.2c9.2-42.7,29.4-73.1,48.5-70.7c9.6,1.2,17.3,10.4,22.4,24.7C-280.7,130.3-278.4,157.5-282.2,187z"
		/>
	<ellipse class="st3" cx="-448.6" cy="92.9" rx="158.2" ry="129.7"/>
	<g>
		<path class="st4" d="M-618.5,198.9l-46.6,26.2l11.8-36.8c0-0.4,0-0.8,0-1.2c0.6-8.2,12.1-15.2,25.7-15.7
			c13.6-0.5,24.2,5.7,23.7,13.8C-604.4,190.9-610.3,196.1-618.5,198.9z"/>
		<path class="st4" d="M-573.8,195.1l-93.7,32.2l52.1-42c0.3-0.5,0.7-0.9,1.2-1.4c8.5-9.2,32.2-17.8,52.8-19.2
			c20.7-1.4,30.5,4.9,22,14.1C-545.4,185.3-559,191.6-573.8,195.1z"/>
		<path class="st4" d="M-570.8,212.2l-98.1,16.3l85.4-37.1c0.8-0.5,1.6-0.9,2.5-1.4c16.9-8.8,42.3-13.4,56.6-10.4
			c14.4,3.1,12.3,12.7-4.6,21.4C-541,207.3-557.3,211.4-570.8,212.2z"/>
		<path class="st4" d="M-596.4,237.2l-70.7-9.5l99.2-18.5c1.1-0.3,2.2-0.6,3.3-0.9c22-5.3,41-3.4,42.4,4.4
			c1.5,7.7-15.2,18.3-37.2,23.7C-574.9,240.1-589,240.3-596.4,237.2z"/>
	</g>
	<g>
		<path class="st1" d="M-318.6,292.2c-9.2,25.8-22.7,47.7-37.5,62.5c-3.8,6.7-8.7,13.2-14.7,19.5c-8.6-0.2-17.5-0.9-26.6-2
			c-5.1-0.6-10.1-1.3-15-2.2c-58.8-10.1-102-35.9-99.1-60.6c0.6-4.9,2.9-9.4,6.8-13.4c2.2-2.3,4.8-4.4,7.9-6.4
			c14.6-9.4,39-15.2,68-16.2c13.5-0.4,28,0.2,43,2C-360.5,278.5-337.3,284.5-318.6,292.2z"/>
		
			<ellipse transform="matrix(0.5557 -0.8314 0.8314 0.5557 -459.989 -279.0916)" class="st1" cx="-491.1" cy="290.8" rx="52.4" ry="120.7"/>
		
			<ellipse transform="matrix(0.2537 -0.9673 0.9673 0.2537 -663.5462 -348.5594)" class="st1" cx="-557.7" cy="255.7" rx="48.7" ry="72.2"/>
	</g>
	
		<ellipse transform="matrix(0.3509 -0.9364 0.9364 0.3509 -626.8972 -559.869)" class="st1" cx="-717.3" cy="172.2" rx="48.7" ry="72.2"/>
	<circle cx="-520" cy="13" r="13"/>
	<circle cx="-477" cy="145" r="47"/>
	<circle class="st5" cx="-475" cy="130" r="47"/>
	<circle cx="-366" cy="41" r="13"/>
	<g>
		<circle cx="-476.3" cy="145" r="47"/>
		<circle class="st5" cx="-474.3" cy="130" r="47"/>
		
			<ellipse transform="matrix(0.3974 -0.9176 0.9176 0.3974 -438.2619 -319.4052)" class="st0" cx="-462.3" cy="174" rx="11.3" ry="4.3"/>
		
			<ellipse transform="matrix(0.1452 -0.9894 0.9894 0.1452 -590.8002 -359.8542)" class="st0" cx="-503.7" cy="162" rx="11.3" ry="4.3"/>
		
			<ellipse transform="matrix(0.1452 -0.9894 0.9894 0.1452 -602.5519 -342.7902)" class="st0" cx="-499.7" cy="177.3" rx="11.3" ry="4.3"/>
		
			<ellipse transform="matrix(0.1452 -0.9894 0.9894 0.1452 -599.4918 -333.9149)" class="st0" cx="-493" cy="180" rx="11.3" ry="4.3"/>
		
			<ellipse transform="matrix(0.1452 -0.9894 0.9894 0.1452 -595.7722 -325.6093)" class="st0" cx="-486.3" cy="182" rx="11.3" ry="4.3"/>
		
			<ellipse transform="matrix(0.1452 -0.9894 0.9894 0.1452 -591.3929 -317.8737)" class="st0" cx="-479.7" cy="183.3" rx="11.3" ry="4.3"/>
		
			<ellipse transform="matrix(0.1452 -0.9894 0.9894 0.1452 -585.6945 -311.2777)" class="st0" cx="-473" cy="183.3" rx="11.3" ry="4.3"/>
		
			<ellipse transform="matrix(0.1452 -0.9894 0.9894 0.1452 -579.4262 -304.0221)" class="st0" cx="-465.7" cy="183.3" rx="11.3" ry="4.3"/>
		
			<ellipse transform="matrix(0.1452 -0.9894 0.9894 0.1452 -567.0107 -296.3177)" class="st0" cx="-455" cy="180" rx="11.3" ry="4.3"/>
		
			<ellipse transform="matrix(0.1452 -0.9894 0.9894 0.1452 -560.3857 -294.0573)" class="st0" cx="-450.4" cy="177.3" rx="11.3" ry="4.3"/>
		
			<ellipse transform="matrix(0.1452 -0.9894 0.9894 0.1452 -602.9175 -363.288)" class="st0" cx="-511.7" cy="167.3" rx="11.3" ry="4.3"/>
		
			<ellipse transform="matrix(0.1452 -0.9894 0.9894 0.1452 -603.0386 -370.0948)" class="st0" cx="-515.7" cy="164" rx="11.3" ry="4.3"/>
		
			<ellipse transform="matrix(0.1452 -0.9894 0.9894 0.1452 -557.357 -293.2182)" class="st0" cx="-448.4" cy="176" rx="11.3" ry="4.3"/>
		<path d="M-431.8,149.5c0,26.8-21,48.5-47,48.5c-26,0-47-21.7-47-48.5c0-4.9,0.7-9.7,2-14.1c0.7,26.2,21.5,47.1,47,47.1
			c21.2,0,39.1-14.5,45-34.4C-431.8,148.5-431.8,149-431.8,149.5z"/>
		
			<ellipse transform="matrix(0.9425 -0.3341 0.3341 0.9425 -66.2331 -171.0809)" class="st6" cx="-530.4" cy="107" rx="72" ry="48.8"/>
		
			<ellipse transform="matrix(0.6641 -0.7477 0.7477 0.6641 -239.145 -263.5681)" class="st6" cx="-412.9" cy="134.3" rx="44.9" ry="72"/>
	</g>
	<path class="st0" d="M-413,135.1c1.4-26.3-20.5-53.7-54-65c-38.4-12.9-77.5,0.5-87.4,29.8c-0.2,0.6-0.4,1.2-0.6,1.8
		c0.2-3.9,0.9-7.7,2.2-11.5c9.8-29.3,49-42.7,87.4-29.8C-427.6,73.1-404.6,106.1-413,135.1z"/>
	<path class="st0" d="M-371.7,109.8c-6.6-18.8-38.5-34.7-77.8-37.2c-45.1-2.9-82.7,12.9-84.2,35.2c0,0.5,0,0.9,0,1.4
		c-1-2.8-1.4-5.6-1.2-8.5c1.4-22.3,39.1-38.1,84.2-35.2C-406.6,68.4-371.8,88-371.7,109.8z"/>
	<path class="st0" d="M-388.8,116.2c-7-18.6-35.5-32.2-69.4-31.7c-38.9,0.6-70.2,19.5-69.8,42.3c0,0.5,0,0.9,0.1,1.4
		c-1-2.7-1.6-5.6-1.6-8.5c-0.3-22.8,30.9-41.7,69.8-42.3C-421.6,76.8-390.4,94.1-388.8,116.2z"/>
	<g>
		<polygon points="-424.6,90.4 -506.8,71.4 -463.2,27.4 -444.5,31.7 		"/>
		<polygon points="-506.5,71.5 -425,90.3 -474.5,118.8 		"/>
	</g>
</g>
</svg>
