<?xml version="1.0" encoding="utf-8"?>
<!-- Generator: Adobe Illustrator 21.1.0, SVG Export Plug-In . SVG Version: 6.00 Build 0)  -->
<svg version="1.1" id="Layer_1" xmlns="http://www.w3.org/2000/svg" xmlns:xlink="http://www.w3.org/1999/xlink" x="0px" y="0px"
	 viewBox="0 0 600 600" style="enable-background:new 0 0 600 600;" xml:space="preserve">
<style type="text/css">
	.st0{fill:#8DBBD8;}
	.st1{fill:#2C9BC6;}
	.st2{fill:#58ACD6;}
	.st3{fill:#FFFFFF;}
	.st4{fill:#59C8EA;}
	.st5{fill:#422C01;}
	.st6{fill:#563C00;}
	.st7{fill:#C9B393;}
	.st8{fill:#AE78F4;stroke:#FFFFFF;stroke-miterlimit:10;}
	.st9{fill:#FC6363;}
	.st10{fill:#B29E84;}
	.st11{fill:#FF3333;stroke:#FFFFFF;stroke-miterlimit:10;}
</style>
<ellipse class="st0" cx="295.8" cy="275.6" rx="270.2" ry="51.4"/>
<ellipse class="st0" cx="297.8" cy="361.6" rx="270.2" ry="51.4"/>
<ellipse class="st1" cx="281.8" cy="291.6" rx="270.2" ry="51.4"/>
<ellipse class="st2" cx="319.8" cy="287.6" rx="270.2" ry="51.4"/>
<ellipse class="st3" cx="327.8" cy="283.4" rx="250.2" ry="47.6"/>
<ellipse class="st0" cx="316.8" cy="370.6" rx="270.2" ry="51.4"/>
<ellipse class="st1" cx="302.8" cy="379.6" rx="270.2" ry="51.4"/>
<ellipse class="st2" cx="287.8" cy="378.6" rx="270.2" ry="51.4"/>
<ellipse class="st3" cx="305.8" cy="372.5" rx="239.2" ry="45.5"/>
<ellipse class="st2" cx="337.8" cy="285.1" rx="246.2" ry="46.9"/>
<ellipse class="st3" cx="351.7" cy="285" rx="210.1" ry="40"/>
<ellipse class="st1" cx="334.8" cy="283.1" rx="199.2" ry="37.9"/>
<ellipse class="st1" cx="334.8" cy="368.1" rx="199.2" ry="37.9"/>
<ellipse class="st1" cx="292.8" cy="370.1" rx="199.2" ry="37.9"/>
<ellipse class="st4" cx="320.8" cy="368.1" rx="199.2" ry="37.9"/>
<g>
	<polygon class="st5" points="92.2,289.5 192.9,249.8 199.6,276.5 	"/>
	<g>
		<path class="st5" d="M293.8,267.9c3.7,9.5,3.9,18.7,1.1,25.9c0.3,2.7-0.1,5.6-1.2,8.7c-4.5,1.6-9.3,3.2-14.3,4.6
			c-2.8,0.8-5.6,1.6-8.4,2.3c-33.4,8.5-64.1,9.2-70.7,1.3c-1.3-1.6-1.6-3.4-0.9-5.3c0.4-1.1,1-2.3,2-3.5c4.4-5.6,15-12.1,29.6-18.1
			c6.8-2.8,14.4-5.4,22.7-7.8C267.8,272,281.7,269.3,293.8,267.9z"/>
		<path class="st5" d="M278.2,301.6c-0.4,10.3-33.6,18.5-74.2,18.2s-73.1-8.8-72.7-19.1s33.6-18.5,74.2-18.2
			C246.1,282.7,278.6,291.3,278.2,301.6z"/>
		<path class="st5" d="M201,295.5c5,9.1-9.7,20.1-32.8,24.6c-23.1,4.5-45.9,0.8-50.9-8.3c-5-9.1,9.7-20.1,32.8-24.6
			S196,286.4,201,295.5z"/>
	</g>
	<g>
		<path class="st5" d="M196.4,225.9c-0.6,9-3,17.2-6.4,23.2c-0.6,2.5-1.6,5-2.9,7.5c-2.8,0.7-5.6,1.3-8.6,1.7
			c-1.7,0.3-3.3,0.5-5,0.6c-19.6,2-35.6-2.4-36.9-10.5c-0.2-1.6,0.1-3.2,1-4.9c0.5-0.9,1.1-1.8,1.9-2.7c3.8-4.3,11-8.3,20.2-11.2
			c4.2-1.3,8.9-2.4,13.8-3.2C181.9,225.3,189.8,225.1,196.4,225.9z"/>
		
			<ellipse transform="matrix(0.3114 -0.9503 0.9503 0.3114 -131.4115 300.2511)" class="st5" cx="141.5" cy="240.8" rx="17.3" ry="39.8"/>
		
			<ellipse transform="matrix(0.9999 -1.602340e-02 1.602340e-02 0.9999 -3.7595 1.9086)" class="st5" cx="117.2" cy="235.6" rx="23.8" ry="16"/>
	</g>
	
		<ellipse transform="matrix(0.9945 -0.1047 0.1047 0.9945 -19.6838 29.9663)" class="st5" cx="275.7" cy="202.5" rx="39.8" ry="17.3"/>
	<path class="st6" d="M401.2,218.5c-0.8-4.9-2.8-8.4-5.8-9.3c-6.1-1.9-14.4,6.7-20,20c-13.2-9.3-33.8-15.3-57.1-15.4
		c-6.7,0-13.2,0.5-19.4,1.4c-1.2-4.9-1.4-10-0.4-15c4.3-23.2,30.8-37.8,59.1-32.5C385.6,172.8,405,195.5,401.2,218.5z"/>
	
		<ellipse transform="matrix(0.8483 -0.5295 0.5295 0.8483 -38.3705 238.807)" class="st6" cx="397.6" cy="186.4" rx="10.4" ry="6.2"/>
	<ellipse transform="matrix(0.9932 -0.116 0.116 0.9932 -16.919 38.0287)" class="st6" cx="318.2" cy="164.3" rx="6.2" ry="10.4"/>
	<path class="st6" d="M398.3,243.3c-2.7,8.4-6.6,15.6-10.7,20.3c-1.2,2.4-2.9,4.7-4.9,6.9c-0.4,0.8-0.8,1.7-1.3,2.5
		c-0.4,0.7-0.8,1.5-1.2,2.2c-4.6,7.8-10.2,14.1-15.9,18c-1.6,2-3.6,3.8-5.9,5.4c-17.3,12.4-53.2,16.4-93.6,8.8
		c-55-10.4-97.5-38.7-94.9-63.2c2.2-20.3,34.8-31.6,77.4-28.8c2.4,0.2,4.9,0.4,7.3,0.6c7.6-0.7,16.3,0.2,25.4,2.6
		c0.7,0.2,1.3,0.3,2,0.5c1.9-0.6,3.8-1.1,5.7-1.6c3.6-0.9,7.3-1.7,11.2-2.2c6.2-0.9,12.7-1.4,19.4-1.4c23.3,0.1,43.9,6.1,57.1,15.4
		c5.6-13.3,13.9-21.9,20-20c3,1,5,4.4,5.8,9.3C402.2,224.9,401.3,233.9,398.3,243.3z"/>
	<ellipse transform="matrix(0.1826 -0.9832 0.9832 0.1826 86.8512 509.852)" class="st7" cx="350" cy="202.7" rx="42.8" ry="52.2"/>
	<g>
		<path class="st8" d="M288.6,226.8l-16.7,5.7l6-11.2c0-0.1,0-0.3,0.1-0.4c0.7-2.6,4.8-4.2,9.3-3.6c4.4,0.6,7.5,3.3,6.8,5.9
			C293.6,225.1,291.4,226.4,288.6,226.8z"/>
		<path class="st8" d="M303.3,228.3l-32.3,4.8l19.4-10.5c0.1-0.1,0.3-0.3,0.5-0.4c3.3-2.5,11.5-3.8,18.3-3c6.8,0.8,9.6,3.4,6.3,5.9
			C313.1,226.9,308.3,228.1,303.3,228.3z"/>
		<path class="st8" d="M303.2,234l-32.8-0.6l29.9-6.9c0.3-0.1,0.6-0.2,0.9-0.3c6-1.8,14.5-1.8,19,0c4.5,1.9,3.2,4.8-2.8,6.7
			C313.2,234.2,307.7,234.6,303.2,234z"/>
		<path class="st8" d="M293.4,240.6l-22.4-7.4l33.3,0c0.4,0,0.8-0.1,1.1-0.1c7.4-0.4,13.5,1.4,13.5,4c0,2.6-6,5-13.5,5.4
			C300.2,242.9,295.7,242,293.4,240.6z"/>
	</g>
	<g>
		<path class="st5" d="M380.2,275.2c-4.6,7.8-10.2,14.1-15.9,18c-1.6,2-3.6,3.8-5.9,5.4c-2.8-0.6-5.6-1.3-8.5-2.2
			c-1.6-0.5-3.2-1-4.7-1.6c-18.4-6.8-30.9-17.8-28.5-25.6c0.5-1.5,1.5-2.9,3-3.9c0.8-0.6,1.8-1.1,3-1.6c5.3-2.2,13.6-2.6,23-1.2
			c4.4,0.7,9.1,1.7,13.8,3.2C367.5,268.2,374.6,271.5,380.2,275.2z"/>
		
			<ellipse transform="matrix(0.6982 -0.7159 0.7159 0.6982 -91.3457 311.9977)" class="st5" cx="324.3" cy="264.3" rx="17.3" ry="39.8"/>
		
			<ellipse transform="matrix(0.426 -0.9047 0.9047 0.426 -50.2309 418.7137)" class="st5" cx="304.9" cy="248.9" rx="16" ry="23.8"/>
	</g>
	
		<ellipse transform="matrix(0.5159 -0.8566 0.8566 0.5159 -56.858 323.9043)" class="st5" cx="258.2" cy="212.3" rx="16" ry="23.8"/>
	<ellipse transform="matrix(0.1826 -0.9832 0.9832 0.1826 101.5427 467.1479)" cx="331.7" cy="172.5" rx="4.3" ry="4.3"/>
	<ellipse transform="matrix(0.1826 -0.9832 0.9832 0.1826 61.8188 510.144)" cx="337.7" cy="217.9" rx="15.5" ry="15.5"/>
	
		<ellipse transform="matrix(0.1826 -0.9832 0.9832 0.1826 67.7505 507.7923)" class="st9" cx="339.3" cy="213.2" rx="15.5" ry="15.5"/>
	<ellipse transform="matrix(0.1826 -0.9832 0.9832 0.1826 122.9399 529.5831)" cx="380" cy="190.9" rx="4.3" ry="4.3"/>
	<g>
		<ellipse transform="matrix(0.1826 -0.9832 0.9832 0.1826 61.9561 510.3894)" cx="337.9" cy="217.9" rx="15.5" ry="15.5"/>
		
			<ellipse transform="matrix(0.1826 -0.9832 0.9832 0.1826 67.8877 508.0376)" class="st9" cx="339.5" cy="213.2" rx="15.5" ry="15.5"/>
		
			<ellipse transform="matrix(0.5583 -0.8297 0.8297 0.5583 -38.8083 383.4727)" class="st3" cx="340.7" cy="228.2" rx="3.7" ry="1.4"/>
		<ellipse transform="matrix(0.3234 -0.9463 0.9463 0.3234 12.0608 460.4714)" class="st3" cx="328" cy="221.8" rx="3.7" ry="1.4"/>
		<ellipse transform="matrix(0.3234 -0.9463 0.9463 0.3234 7.3815 464.3517)" class="st3" cx="328.4" cy="227" rx="3.7" ry="1.4"/>
		
			<ellipse transform="matrix(0.3234 -0.9463 0.9463 0.3234 7.5374 467.1017)" class="st3" cx="330.4" cy="228.3" rx="3.7" ry="1.4"/>
		<ellipse transform="matrix(0.3234 -0.9463 0.9463 0.3234 7.925 469.7435)" class="st3" cx="332.4" cy="229.3" rx="3.7" ry="1.4"/>
		
			<ellipse transform="matrix(0.3234 -0.9463 0.9463 0.3234 8.5444 472.2769)" class="st3" cx="334.5" cy="230.2" rx="3.7" ry="1.4"/>
		<ellipse transform="matrix(0.3234 -0.9463 0.9463 0.3234 9.627 474.5939)" class="st3" cx="336.7" cy="230.6" rx="3.7" ry="1.4"/>
		<ellipse transform="matrix(0.3234 -0.9463 0.9463 0.3234 10.818 477.1425)" class="st3" cx="339.1" cy="231" rx="3.7" ry="1.4"/>
		
			<ellipse transform="matrix(0.3234 -0.9463 0.9463 0.3234 13.7088 480.3083)" class="st3" cx="342.7" cy="230.6" rx="3.7" ry="1.4"/>
		<ellipse transform="matrix(0.3234 -0.9463 0.9463 0.3234 15.399 481.475)" class="st3" cx="344.4" cy="230" rx="3.7" ry="1.4"/>
		<ellipse transform="matrix(0.3234 -0.9463 0.9463 0.3234 8.9136 458.5352)" class="st3" cx="325.1" cy="223" rx="3.7" ry="1.4"/>
		<ellipse transform="matrix(0.3234 -0.9463 0.9463 0.3234 9.4224 456.6037)" class="st3" cx="324" cy="221.7" rx="3.7" ry="1.4"/>
		
			<ellipse transform="matrix(0.3234 -0.9463 0.9463 0.3234 16.1872 481.9536)" class="st3" cx="345.1" cy="229.7" rx="3.7" ry="1.4"/>
		<path d="M352.1,222.1c-1.6,8.7-9.7,14.4-18.2,12.9c-8.4-1.6-13.9-9.9-12.3-18.5c0.3-1.6,0.8-3.1,1.5-4.5
			c-1.4,8.5,4.1,16.6,12.4,18.1c6.9,1.3,13.6-2.3,16.7-8.4C352.2,221.8,352.1,221.9,352.1,222.1z"/>
		
			<ellipse transform="matrix(0.9877 -0.1564 0.1564 0.9877 -27.6833 52.9676)" class="st10" cx="322.7" cy="202.4" rx="23.7" ry="16.1"/>
		
			<ellipse transform="matrix(0.7894 -0.6139 0.6139 0.7894 -58.3748 266.4446)" class="st10" cx="359.1" cy="218.3" rx="14.8" ry="23.7"/>
	</g>
	<path class="st3" d="M359.1,218.5c2.1-8.4-3.4-18.7-13.6-24.3c-11.7-6.5-25.2-4.5-30.1,4.4c-0.1,0.2-0.2,0.4-0.3,0.6
		c0.3-1.2,0.8-2.4,1.4-3.6c5-8.9,18.4-10.9,30.1-4.4C358,197.5,363.5,209.7,359.1,218.5z"/>
	<path class="st3" d="M374,212.8c-1-6.5-10.4-13.6-23-16.7c-14.4-3.6-27.6-0.8-29.4,6.3c0,0.1-0.1,0.3-0.1,0.4
		c-0.1-1-0.1-1.9,0.1-2.8c1.8-7.2,15-10,29.4-6.3C365.1,197.3,375.2,205.7,374,212.8z"/>
	<path class="st3" d="M368,213.9c-1.1-6.5-9.6-12.6-20.6-14.5c-12.6-2.2-23.9,2.1-25.2,9.5c0,0.2,0,0.3-0.1,0.5
		c-0.2-0.9-0.2-1.9,0-2.9c1.3-7.4,12.5-11.7,25.2-9.5C359.8,199.1,368.9,206.6,368,213.9z"/>
	<g>
		<polygon points="358,203.3 332.5,192.2 349.3,180.6 355,183.1 		"/>
		<polygon points="332.6,192.3 357.9,203.3 340.1,209.6 		"/>
	</g>
</g>
<g>
	<polygon class="st5" points="151.4,406.8 267.7,360.9 275.5,391.8 	"/>
	<g>
		<path class="st5" d="M384.3,381.8c4.3,11,4.5,21.5,1.3,30c0.3,3.2-0.2,6.5-1.4,10c-5.2,1.9-10.7,3.6-16.5,5.3
			c-3.2,0.9-6.5,1.8-9.7,2.6c-38.6,9.8-74.1,10.6-81.6,1.4c-1.5-1.8-1.8-3.9-1-6.1c0.4-1.3,1.2-2.6,2.3-4c5.1-6.5,17.4-14,34.2-20.9
			c7.8-3.2,16.6-6.2,26.2-9C354.3,386.5,370.3,383.4,384.3,381.8z"/>
		<path class="st5" d="M366.3,420.7c-0.5,11.9-38.8,21.3-85.7,21c-46.8-0.3-84.5-10.1-84-22c0.5-11.9,38.8-21.3,85.7-21
			S366.7,408.8,366.3,420.7z"/>
		<path class="st5" d="M277.1,413.7c5.8,10.5-11.2,23.2-37.9,28.4s-53,0.9-58.8-9.6s11.2-23.2,37.9-28.4S271.3,403.2,277.1,413.7z"
			/>
	</g>
	<g>
		<path class="st5" d="M271.8,333.3c-0.7,10.4-3.5,19.8-7.4,26.8c-0.7,2.9-1.8,5.7-3.4,8.7c-3.2,0.8-6.5,1.5-10,2
			c-1.9,0.3-3.8,0.5-5.7,0.7c-22.6,2.3-41.1-2.7-42.6-12.1c-0.3-1.8,0.1-3.7,1.1-5.6c0.6-1.1,1.3-2.1,2.2-3.2
			c4.4-4.9,12.7-9.6,23.3-12.9c4.9-1.5,10.3-2.8,16-3.7C255,332.6,264.1,332.4,271.8,333.3z"/>
		
			<ellipse transform="matrix(0.3114 -0.9503 0.9503 0.3114 -189.642 439.306)" class="st5" cx="208.3" cy="350.5" rx="19.9" ry="46"/>
		
			<ellipse transform="matrix(0.9999 -1.602340e-02 1.602340e-02 0.9999 -5.4962 2.9333)" class="st5" cx="180.3" cy="344.5" rx="27.5" ry="18.5"/>
	</g>
	
		<ellipse transform="matrix(0.9945 -0.1047 0.1047 0.9945 -30.0639 39.7091)" class="st5" cx="363.3" cy="306.3" rx="46" ry="19.9"/>
	<path class="st6" d="M508.3,324.8c-0.9-5.7-3.2-9.7-6.7-10.8c-7-2.3-16.7,7.7-23.1,23.1c-15.2-10.7-39.1-17.7-66-17.8
		c-7.8,0-15.3,0.5-22.4,1.6c-1.4-5.6-1.6-11.5-0.5-17.4c5-26.8,35.6-43.7,68.3-37.6C490.3,272,512.7,298.2,508.3,324.8z"/>
	
		<ellipse transform="matrix(0.8483 -0.5295 0.5295 0.8483 -75.8318 310.5856)" class="st6" cx="504.1" cy="287.6" rx="12" ry="7.1"/>
	<ellipse transform="matrix(0.9932 -0.116 0.116 0.9932 -27.636 49.6228)" class="st6" cx="412.4" cy="262.2" rx="7.1" ry="12"/>
	<path class="st6" d="M505,353.3c-3.1,9.7-7.6,18-12.3,23.4c-1.4,2.8-3.4,5.5-5.7,8c-0.5,1-1,1.9-1.5,2.9c-0.5,0.9-0.9,1.7-1.4,2.5
		c-5.3,9-11.8,16.3-18.4,20.8c-1.9,2.3-4.2,4.4-6.9,6.3c-20,14.3-61.5,19-108.1,10.1c-63.6-12.1-112.7-44.7-109.6-73
		c2.5-23.5,40.2-36.5,89.4-33.3c2.8,0.2,5.6,0.4,8.5,0.7c8.8-0.8,18.8,0.2,29.4,3c0.8,0.2,1.5,0.4,2.3,0.6c2.1-0.7,4.3-1.3,6.6-1.9
		c4.1-1,8.4-1.9,12.9-2.6c7.1-1.1,14.7-1.6,22.4-1.6c26.9,0.1,50.8,7,66,17.8c6.4-15.3,16.1-25.3,23.1-23.1
		c3.5,1.1,5.7,5.1,6.7,10.8C509.5,332.2,508.5,342.5,505,353.3z"/>
	
		<ellipse transform="matrix(0.1826 -0.9832 0.9832 0.1826 65.8612 692.2062)" class="st7" cx="449.2" cy="306.5" rx="49.4" ry="60.3"/>
	<g>
		<path class="st11" d="M378.2,334.4l-19.3,6.6l7-13c0-0.2,0-0.3,0.1-0.5c0.8-3,5.6-4.9,10.7-4.1c5.1,0.7,8.7,3.8,7.9,6.8
			C384.1,332.4,381.5,333.9,378.2,334.4z"/>
		<path class="st11" d="M395.2,336.1l-37.3,5.5l22.4-12.1c0.2-0.1,0.3-0.3,0.5-0.4c3.8-2.8,13.3-4.4,21.1-3.5
			c7.8,0.9,11.1,4,7.3,6.8C406.5,334.4,401,335.8,395.2,336.1z"/>
		<path class="st11" d="M395.2,342.7l-37.9-0.7l34.5-8c0.3-0.1,0.7-0.2,1-0.3c6.9-2.1,16.8-2.1,21.9,0.1c5.2,2.1,3.7,5.6-3.2,7.7
			C406.7,342.9,400.3,343.4,395.2,342.7z"/>
		<path class="st11" d="M383.8,350.3l-25.8-8.5l38.4,0c0.4,0,0.9-0.1,1.3-0.1c8.6-0.5,15.6,1.6,15.6,4.6c0,3-7,5.8-15.6,6.3
			C391.7,352.9,386.4,351.9,383.8,350.3z"/>
	</g>
	<g>
		<path class="st5" d="M484,390.2c-5.3,9-11.8,16.3-18.4,20.8c-1.9,2.3-4.2,4.4-6.9,6.3c-3.2-0.7-6.5-1.6-9.8-2.6
			c-1.9-0.6-3.7-1.2-5.5-1.9c-21.3-7.9-35.7-20.6-32.9-29.6c0.6-1.8,1.7-3.3,3.5-4.5c1-0.7,2.1-1.3,3.4-1.8c6.1-2.5,15.7-3,26.6-1.3
			c5.1,0.8,10.5,2,16,3.7C469.3,382.1,477.6,386,484,390.2z"/>
		
			<ellipse transform="matrix(0.6982 -0.7159 0.7159 0.6982 -143.7707 414.361)" class="st5" cx="419.5" cy="377.7" rx="19.9" ry="46"/>
		
			<ellipse transform="matrix(0.426 -0.9047 0.9047 0.426 -97.7248 565.7922)" class="st5" cx="397.1" cy="359.9" rx="18.5" ry="27.5"/>
	</g>
	
		<ellipse transform="matrix(0.5159 -0.8566 0.8566 0.5159 -105.9363 447.622)" class="st5" cx="343.1" cy="317.5" rx="18.5" ry="27.5"/>
	<ellipse transform="matrix(0.1826 -0.9832 0.9832 0.1826 82.8304 642.8817)" cx="428" cy="271.6" rx="5" ry="5"/>
	<ellipse transform="matrix(0.1826 -0.9832 0.9832 0.1826 36.9481 692.5435)" cx="435" cy="324.1" rx="17.9" ry="17.9"/>
	
		<ellipse transform="matrix(0.1826 -0.9832 0.9832 0.1826 43.7994 689.8271)" class="st9" cx="436.8" cy="318.6" rx="17.9" ry="17.9"/>
	<ellipse transform="matrix(0.1826 -0.9832 0.9832 0.1826 107.5447 714.9962)" cx="483.8" cy="292.8" rx="5" ry="5"/>
	<g>
		<ellipse transform="matrix(0.1826 -0.9832 0.9832 0.1826 37.1066 692.8269)" cx="435.2" cy="324.1" rx="17.9" ry="17.9"/>
		
			<ellipse transform="matrix(0.1826 -0.9832 0.9832 0.1826 43.9579 690.1105)" class="st9" cx="437" cy="318.6" rx="17.9" ry="17.9"/>
		
			<ellipse transform="matrix(0.5583 -0.8297 0.8297 0.5583 -85.0375 512.1483)" class="st3" cx="438.4" cy="335.9" rx="4.3" ry="1.7"/>
		
			<ellipse transform="matrix(0.3234 -0.9463 0.9463 0.3234 -24.1753 623.3168)" class="st3" cx="423.8" cy="328.6" rx="4.3" ry="1.7"/>
		
			<ellipse transform="matrix(0.3234 -0.9463 0.9463 0.3234 -29.5801 627.7988)" class="st3" cx="424.2" cy="334.6" rx="4.3" ry="1.7"/>
		<ellipse transform="matrix(0.3234 -0.9463 0.9463 0.3234 -29.4 630.9751)" class="st3" cx="426.5" cy="336" rx="4.3" ry="1.7"/>
		
			<ellipse transform="matrix(0.3234 -0.9463 0.9463 0.3234 -28.9523 634.0264)" class="st3" cx="428.9" cy="337.3" rx="4.3" ry="1.7"/>
		
			<ellipse transform="matrix(0.3234 -0.9463 0.9463 0.3234 -28.2369 636.9526)" class="st3" cx="431.3" cy="338.2" rx="4.3" ry="1.7"/>
		
			<ellipse transform="matrix(0.3234 -0.9463 0.9463 0.3234 -26.9864 639.6287)" class="st3" cx="433.8" cy="338.7" rx="4.3" ry="1.7"/>
		
			<ellipse transform="matrix(0.3234 -0.9463 0.9463 0.3234 -25.6108 642.5725)" class="st3" cx="436.5" cy="339.2" rx="4.3" ry="1.7"/>
		
			<ellipse transform="matrix(0.3234 -0.9463 0.9463 0.3234 -22.2719 646.229)" class="st3" cx="440.8" cy="338.7" rx="4.3" ry="1.7"/>
		
			<ellipse transform="matrix(0.3234 -0.9463 0.9463 0.3234 -20.3197 647.5767)" class="st3" cx="442.7" cy="338" rx="4.3" ry="1.7"/>
		
			<ellipse transform="matrix(0.3234 -0.9463 0.9463 0.3234 -27.8105 621.0805)" class="st3" cx="420.4" cy="330" rx="4.3" ry="1.7"/>
		
			<ellipse transform="matrix(0.3234 -0.9463 0.9463 0.3234 -27.2228 618.8495)" class="st3" cx="419.1" cy="328.5" rx="4.3" ry="1.7"/>
		
			<ellipse transform="matrix(0.3234 -0.9463 0.9463 0.3234 -19.4093 648.1293)" class="st3" cx="443.5" cy="337.6" rx="4.3" ry="1.7"/>
		<path d="M451.6,328.9c-1.9,10-11.3,16.7-21,14.9c-9.7-1.8-16.1-11.4-14.2-21.4c0.3-1.8,0.9-3.6,1.7-5.1
			c-1.6,9.8,4.8,19.1,14.3,20.9c7.9,1.5,15.7-2.7,19.2-9.7C451.7,328.5,451.6,328.7,451.6,328.9z"/>
		
			<ellipse transform="matrix(0.9877 -0.1564 0.1564 0.9877 -42.7445 69.0948)" class="st10" cx="417.6" cy="306.1" rx="27.4" ry="18.6"/>
		
			<ellipse transform="matrix(0.7894 -0.6139 0.6139 0.7894 -102.3988 350.5598)" class="st10" cx="459.7" cy="324.5" rx="17.1" ry="27.4"/>
	</g>
	<path class="st3" d="M459.6,324.8c2.4-9.7-3.9-21.5-15.7-28.1c-13.5-7.5-29.1-5.2-34.8,5.1c-0.1,0.2-0.2,0.4-0.3,0.6
		c0.3-1.4,0.9-2.8,1.6-4.1c5.7-10.3,21.3-12.6,34.8-5.1C458.4,300.5,464.8,314.5,459.6,324.8z"/>
	<path class="st3" d="M476.8,318.2c-1.2-7.5-12-15.7-26.5-19.3c-16.7-4.2-31.9-0.9-34,7.3c0,0.2-0.1,0.3-0.1,0.5
		c-0.2-1.1-0.1-2.2,0.1-3.3c2.1-8.3,17.3-11.5,34-7.3C466.6,300.2,478.3,310,476.8,318.2z"/>
	<path class="st3" d="M470,319.4c-1.3-7.5-11.1-14.5-23.8-16.7c-14.6-2.5-27.6,2.4-29.1,11c0,0.2-0.1,0.4-0.1,0.5
		c-0.2-1.1-0.2-2.2,0-3.3c1.5-8.6,14.5-13.5,29.1-11C460.4,302.4,471,311,470,319.4z"/>
	<g>
		<polygon points="458.4,307.2 428.9,294.4 448.3,281 455,283.9 		"/>
		<polygon points="429,294.5 458.3,307.2 437.7,314.4 		"/>
	</g>
</g>
</svg>
