<?xml version="1.0" encoding="utf-8"?>
<!-- Generator: Adobe Illustrator 21.1.0, SVG Export Plug-In . SVG Version: 6.00 Build 0)  -->
<svg version="1.1" id="Layer_1" xmlns="http://www.w3.org/2000/svg" xmlns:xlink="http://www.w3.org/1999/xlink" x="0px" y="0px"
	 viewBox="0 0 600 600" style="enable-background:new 0 0 600 600;" xml:space="preserve">
<style type="text/css">
	.st0{fill:#829FA0;}
	.st1{fill:#00A8E9;}
	.st2{fill:#00B0FF;}
	.st3{fill:#6AD5FF;}
	.st4{fill:#FFFFFF;}
	.st5{fill:#768C8C;}
</style>
<path class="st0" d="M326.4,270c-5.6-1-11.5-1.6-17.7-1.6c-6.2,0-12.2,0.6-17.7,1.6l16.7-69.1c0.3-1.4,1.7-1.4,2.1,0L326.4,270z"/>
<path class="st1" d="M525.8,290.4c-3,12.3-7.5,14.8-13.1,29.7c-1.5,4-3,8.1-4.3,12.3c-0.1,0.4-0.3,0.8-0.4,1.2
	c-2.3,7.3-4.3,14.6-5.9,21.9c-0.8,3.3-1.4,6.7-2,10H64.9c1.4-3.4,2.8-6.9,4.1-10.5c2.2-5.8,4.3-11.8,6.2-17.9
	c0.6-1.9,1.2-3.8,1.8-5.7c2.4-7.9,4.5-15.7,6.4-23.4c2-8.4,3.7-16.6,5.1-24.7l0.6,0.5L123,254c10.5-9.3,30.6-9.3,41.2,0l33.9,29.8
	l33.9-29.8c10.5-9.3,30.6-9.3,41.2,0l2,1.7l13,11.4h0l0.2,0.2h0l18.7,16.4l18.8-16.5l0.1-0.1l13-11.4l2-1.7
	c10.5-9.3,30.6-9.3,41.2,0l33.9,29.8l33.9-29.8c10.5-9.3,30.6-9.3,41.2,0"/>
<path class="st2" d="M512.7,320.1c-1.5,4-3,8.1-4.3,12.3c-0.1,0.4-0.3,0.8-0.4,1.2c-2.3,7.3-4.3,14.6-5.9,21.9
	c-0.8,3.3-1.4,6.7-2,10c-1,5.6-1.9,11.2-2.5,16.7c-9.5-0.7-18.6-2-27.1-3.5c-14.9,2.8-31.7,4.4-49.5,4.4c-17.8,0-34.6-1.6-49.5-4.4
	c-14.9,2.8-31.7,4.4-49.5,4.4c-17.8,0-34.6-1.6-49.5-4.4c-14.9,2.8-31.7,4.4-49.5,4.4c-17.8,0-34.6-1.6-49.5-4.4
	c-14.9,2.8-31.7,4.4-49.5,4.4c-17.8,0-34.6-1.6-49.5-4.4c-5.2,1-10.7,1.8-16.3,2.5c2.3-5.1,4.6-10.3,6.8-15.6
	c1.4-3.4,2.8-6.9,4.1-10.5c2.2-5.8,4.3-11.8,6.2-17.9c0.6-1.9,1.2-3.8,1.8-5.7c2.4-7.9,4.5-15.7,6.4-23.4c17.5,4.1,31.7,10,40.6,17
	c10.4-8.2,27.9-14.8,49.5-18.9c10.5,2,20.1,4.6,28.3,7.7c8.7,3.3,15.9,7.1,21.2,11.3c10.4-8.2,27.9-14.8,49.5-18.9
	c21.6,4.1,39.1,10.7,49.5,18.9c10.4-8.2,27.9-14.8,49.5-18.9c16.3,3.1,30.2,7.6,40.6,13.1c3.4,1.8,6.4,3.7,9,5.8
	c10.4-8.2,27.9-14.8,49.5-18.9C487.7,309.3,502.2,314.2,512.7,320.1z"/>
<path class="st3" d="M508,333.6c-2.3,7.3-4.3,14.6-5.9,21.9h-30L378.8,344l-13.9-1.7l3.9-0.5l8.7-1.1l12.1-1.5c0,0,0,0,0,0
	l82.5-10.1L508,333.6z"/>
<polygon class="st3" points="257.2,342.3 376.7,351 257.2,359.7 137.7,351 "/>
<path class="st3" d="M129.1,342.3L69,355c2.2-5.8,4.3-11.8,6.2-17.9c0.6-1.9,1.2-3.8,1.8-5.7L129.1,342.3z"/>
<ellipse class="st4" cx="310.2" cy="316.7" rx="92.1" ry="45.5"/>
<path class="st5" d="M400.7,311c0,24.6-41,44.5-91.6,44.5c-50.6,0-91.6-19.9-91.6-44.5c0-19.5,25.8-36,61.8-42
	c9.3-1.6,19.4-2.4,29.8-2.4c10.4,0,20.4,0.8,29.8,2.4C374.9,275,400.7,291.5,400.7,311z"/>
<circle cx="372.4" cy="342.2" r="7.5"/>
<circle cx="244.3" cy="342.3" r="7.5"/>
<ellipse cx="316.9" cy="351" rx="4.3" ry="0.7"/>
<ellipse cx="301.8" cy="351" rx="4.3" ry="0.7"/>
</svg>
