<?xml version="1.0" encoding="utf-8"?>
<!-- Generator: Adobe Illustrator 21.1.0, SVG Export Plug-In . SVG Version: 6.00 Build 0)  -->
<svg version="1.1" id="Layer_1" xmlns="http://www.w3.org/2000/svg" xmlns:xlink="http://www.w3.org/1999/xlink" x="0px" y="0px"
	 viewBox="0 0 600 600" style="enable-background:new 0 0 600 600;" xml:space="preserve">
<style type="text/css">
	.st0{fill:#FFFFFF;}
</style>
<g>
	<circle class="st0" cx="313.5" cy="265.3" r="130.5"/>
	<circle cx="313.5" cy="265.3" r="14"/>
	<polygon points="326.4,179.1 319.4,179.1 319.4,260.2 307.6,260.2 307.6,179.1 300.6,179.1 313.5,156.8 	"/>
	<polygon points="268.9,299.1 274.5,303.3 303.9,264 313.5,270.9 284,310.4 289.5,314.6 267.4,322.7 	"/>
	<circle cx="313.5" cy="145.6" r="7.8"/>
	<circle cx="313.5" cy="381.6" r="7.8"/>
	<circle cx="430.4" cy="265.3" r="7.8"/>
	<circle cx="195.7" cy="264" r="7.8"/>
	<circle cx="211.4" cy="208.5" r="7.8"/>
	<circle cx="250.6" cy="164.6" r="7.8"/>
	<circle cx="414.8" cy="208.5" r="7.8"/>
	<circle cx="375.6" cy="164.6" r="7.8"/>
	<circle cx="211.8" cy="322.1" r="7.8"/>
	<circle cx="251" cy="366.1" r="7.8"/>
	<circle cx="415.2" cy="322.1" r="7.8"/>
	<circle cx="376" cy="366.1" r="7.8"/>
</g>
</svg>
