<?xml version="1.0" encoding="utf-8"?>
<!-- Generator: Adobe Illustrator 21.1.0, SVG Export Plug-In . SVG Version: 6.00 Build 0)  -->
<svg version="1.1" id="Layer_1" xmlns="http://www.w3.org/2000/svg" xmlns:xlink="http://www.w3.org/1999/xlink" x="0px" y="0px"
	 viewBox="0 0 600 600" style="enable-background:new 0 0 600 600;" xml:space="preserve">
<style type="text/css">
	.st0{fill:#D67D2D;}
	.st1{fill:#CDCECC;}
	.st2{fill:#231F20;}
	.st3{fill:#FFFFFF;}
	.st4{fill:#FFFFFF;stroke:#231F20;stroke-width:2;stroke-miterlimit:10;}
</style>
<rect x="145.2" y="138.2" transform="matrix(0.9551 0.2964 -0.2964 0.9551 112.1844 -85.244)" class="st0" width="384" height="378.3"/>
<ellipse class="st1" cx="299.2" cy="264.2" rx="220.3" ry="206.9"/>
<path class="st2" d="M408.3,319.8c0,13.3-3.1,26-8.7,37.6H198.9c-5.6-11.5-8.7-24.2-8.7-37.6c0-52.9,48.8-95.9,109-95.9
	S408.3,266.9,408.3,319.8z"/>
<polygon class="st3" points="218.6,147.2 149.1,275.6 371.8,333.8 449.3,207.5 "/>
<polygon class="st2" points="216.7,146.9 148.6,268.5 373.6,327.3 449.9,207.8 "/>
<circle class="st4" cx="299.2" cy="230.3" r="11.8"/>
<path class="st0" d="M409.8,129.2c5.6-4.5,30.1,1.9,37.5,16.1c4.3,8.1,0.9,12.7,6.5,23.6c4.1,8,11.2,11.7,9.8,13.1
	c-1.4,1.4-9.4-1.8-14-4c-5.6-2.7-9.5-5.6-20.1-15c-13.7-12.2-15.6-14.9-17-17.6C410.8,142,405.7,132.4,409.8,129.2z"/>
<path class="st0" d="M391,112.5c5,3.4,11.1,8.5,16.7,15.7c2.3,2.9,4.1,5.8,5.6,8.5c-2.7-12.1-7.4-26-15.8-27.4
	c-5.9-1-10.6,4.8-15.2,8.7c-28,23.3-74.1-9.4-96.2,10.8c-7,6.4-8.1,15.7-10.3,34.2c-3.2,26.8,2.9,48.7,7.5,61
	c-3.4-3-23.4-21.3-22.2-46.8c1.3-28,45.5-90.5,64.7-58.7c11.4,18.9,41.9-5,43.1-5.1"/>
</svg>
