<?xml version="1.0" encoding="utf-8"?>
<!-- Generator: Adobe Illustrator 21.1.0, SVG Export Plug-In . SVG Version: 6.00 Build 0)  -->
<svg version="1.1" xmlns="http://www.w3.org/2000/svg" xmlns:xlink="http://www.w3.org/1999/xlink" x="0px" y="0px"
	 viewBox="0 0 600 600" style="enable-background:new 0 0 600 600;" xml:space="preserve">
<style type="text/css">
	.st0{fill:#7F89AD;}
	.st1{fill:#FFFFFF;}
	.st2{fill:#231F20;}
</style>
<g id="Layer_2">
	<g>
		<rect x="-4.8" y="-3.1" class="st0" width="613.6" height="613.6"/>
	</g>
	<g>
		<rect x="-4.8" y="-3.1" class="st0" width="613.6" height="613.6"/>
	</g>
</g>
<g id="dots">
	<g>
		
			<ellipse transform="matrix(2.100482e-02 -0.9998 0.9998 2.100482e-02 -213.8593 452.2368)" class="st1" cx="124" cy="335.3" rx="5.5" ry="5.5"/>
		
			<ellipse transform="matrix(2.100482e-02 -0.9998 0.9998 2.100482e-02 -182.821 516.1599)" class="st1" cx="172.1" cy="351.4" rx="5.5" ry="5.5"/>
		
			<ellipse transform="matrix(2.100482e-02 -0.9998 0.9998 2.100482e-02 -123.676 520.8261)" class="st1" cx="204.1" cy="323.6" rx="5.5" ry="5.5"/>
		
			<ellipse transform="matrix(2.100482e-02 -0.9998 0.9998 2.100482e-02 -104.9301 529.8243)" class="st1" cx="218.1" cy="318.5" rx="3.7" ry="3.7"/>
		
			<ellipse transform="matrix(2.100482e-02 -0.9998 0.9998 2.100482e-02 -271.1499 601.1248)" class="st1" cx="171.4" cy="439" rx="3.7" ry="3.7"/>
		
			<ellipse transform="matrix(2.100482e-02 -0.9998 0.9998 2.100482e-02 -307.9512 448.2105)" class="st1" cx="74.9" cy="381.3" rx="3.7" ry="3.7"/>
		
			<ellipse transform="matrix(2.100482e-02 -0.9998 0.9998 2.100482e-02 -93.6616 568.9811)" class="st1" cx="243.7" cy="332.3" rx="5.5" ry="5.5"/>
		
			<ellipse transform="matrix(2.100482e-02 -0.9998 0.9998 2.100482e-02 -119.1811 603.5292)" class="st1" cx="248.6" cy="362.6" rx="5.5" ry="5.5"/>
		
			<ellipse transform="matrix(2.100482e-02 -0.9998 0.9998 2.100482e-02 -170.5509 601.0478)" class="st1" cx="221.6" cy="387.6" rx="5.5" ry="5.5"/>
		
			<ellipse transform="matrix(2.100482e-02 -0.9998 0.9998 2.100482e-02 -244.8124 604.4554)" class="st1" cx="186.2" cy="427.2" rx="5.5" ry="5.5"/>
		
			<ellipse transform="matrix(2.100482e-02 -0.9998 0.9998 2.100482e-02 -263.5064 550.1188)" class="st1" cx="149.1" cy="409.6" rx="5.5" ry="5.5"/>
		
			<ellipse transform="matrix(2.100482e-02 -0.9998 0.9998 2.100482e-02 -301.7206 476.7722)" class="st1" cx="92.6" cy="392.4" rx="5.5" ry="5.5"/>
		
			<ellipse transform="matrix(2.100482e-02 -0.9998 0.9998 2.100482e-02 -261.7966 432.0436)" class="st1" cx="89.7" cy="349.7" rx="5.5" ry="5.5"/>
		
			<rect x="125.4" y="341.8" transform="matrix(0.9535 0.3015 -0.3015 0.9535 110.3716 -28.3036)" class="st1" width="43" height="3.2"/>
		
			<rect x="95.4" y="400" transform="matrix(0.9535 0.3015 -0.3015 0.9535 126.7356 -17.5903)" class="st1" width="49.9" height="3.5"/>
		
			<rect x="178.5" y="406.1" transform="matrix(0.6654 -0.7465 0.7465 0.6654 -236.3768 288.3753)" class="st1" width="49.9" height="3.5"/>
		
			<rect x="219.2" y="372.7" transform="matrix(0.7552 -0.6555 0.6555 0.7552 -187.6795 246.3787)" class="st1" width="33.7" height="3.5"/>
		
			<rect x="89.4" y="340.8" transform="matrix(0.9443 -0.3291 0.3291 0.9443 -106.7927 54.0451)" class="st1" width="33.7" height="3.5"/>
		
			<rect x="229.7" y="345.7" transform="matrix(-0.1907 -0.9816 0.9816 -0.1907 -47.4885 655.8051)" class="st1" width="33.7" height="3.5"/>
		
			<rect x="216.7" y="324.2" transform="matrix(-0.8332 -0.553 0.553 -0.8332 242.9163 725.4417)" class="st1" width="28.2" height="3.8"/>
		
			<rect x="64.5" y="364.2" transform="matrix(-0.4003 0.9164 -0.9164 -0.4003 450.3969 437.9051)" class="st1" width="34.9" height="4.2"/>
		
			<rect x="167.4" y="431.8" transform="matrix(-0.7218 0.6921 -0.6921 -0.7218 607.318 623.3229)" class="st1" width="22" height="3.8"/>
		
			<rect x="141.7" y="423" transform="matrix(-0.5987 -0.801 0.801 -0.5987 -83.6737 807.8978)" class="st1" width="37.7" height="3.9"/>
		
			<rect x="199.9" y="319.3" transform="matrix(-0.9676 0.2524 -0.2524 -0.9676 494.0411 579.1019)" class="st1" width="20" height="3.8"/>
		
			<rect x="73.4" y="385.7" transform="matrix(-0.8116 -0.5842 0.5842 -0.8116 -75.3794 750.8978)" class="st1" width="20" height="3.8"/>
		
			<rect x="167.8" y="334.9" transform="matrix(0.7218 -0.6921 0.6921 0.7218 -180.6658 223.8711)" class="st1" width="40.7" height="3.5"/>
	</g>
	<g>
		<path class="st1" d="M332.4,66.2c-0.9,1.1-2.2,1.4-2.9,0.7c-0.8-0.7-0.7-2.1,0.2-3.2c0.9-1.1,2.2-1.4,2.9-0.7
			C333.4,63.7,333.3,65.1,332.4,66.2z"/>
		<path class="st1" d="M340.1,82.5c-0.9,1.1-2.2,1.4-2.9,0.7c-0.8-0.7-0.7-2.1,0.2-3.2s2.2-1.4,2.9-0.7
			C341,80,340.9,81.5,340.1,82.5z"/>
		<path class="st1" d="M355.9,79.3c-0.9,1.1-2.2,1.4-2.9,0.7c-0.8-0.7-0.7-2.1,0.2-3.2c0.9-1.1,2.2-1.4,2.9-0.7
			C356.8,76.8,356.7,78.2,355.9,79.3z"/>
		<path class="st1" d="M360.4,80.1c-0.6,0.7-1.5,1-2,0.5c-0.5-0.5-0.4-1.4,0.1-2.2c0.6-0.7,1.5-1,2-0.5S360.9,79.4,360.4,80.1z"/>
		<path class="st1" d="M315.1,113.9c-0.6,0.7-1.5,1-2,0.5s-0.4-1.4,0.1-2.2c0.6-0.7,1.5-1,2-0.5S315.7,113.2,315.1,113.9z"/>
		<path class="st1" d="M306.8,72c-0.6,0.7-1.5,1-2,0.5c-0.5-0.5-0.4-1.4,0.1-2.2c0.6-0.7,1.5-1,2-0.5
			C307.4,70.3,307.4,71.2,306.8,72z"/>
		<path class="st1" d="M363.4,91.1c-0.9,1.1-2.2,1.4-2.9,0.7c-0.8-0.7-0.7-2.1,0.2-3.2c0.9-1.1,2.2-1.4,2.9-0.7
			C364.4,88.6,364.3,90,363.4,91.1z"/>
		<path class="st1" d="M356.2,103.2c-0.9,1.1-2.2,1.4-2.9,0.7c-0.8-0.7-0.7-2.1,0.2-3.2c0.9-1.1,2.2-1.4,2.9-0.7
			S357.1,102.1,356.2,103.2z"/>
		<path class="st1" d="M342.5,106.5c-0.9,1.1-2.2,1.4-2.9,0.7c-0.8-0.7-0.7-2.1,0.2-3.2c0.9-1.1,2.2-1.4,2.9-0.7
			C343.5,103.9,343.4,105.4,342.5,106.5z"/>
		<path class="st1" d="M322.6,113.2c-0.9,1.1-2.2,1.4-2.9,0.7c-0.8-0.7-0.7-2.1,0.2-3.2s2.2-1.4,2.9-0.7S323.4,112.1,322.6,113.2z"
			/>
		<path class="st1" d="M318.1,98.8c-0.9,1.1-2.2,1.4-2.9,0.7s-0.7-2.1,0.2-3.2c0.9-1.1,2.2-1.4,2.9-0.7
			C319.1,96.2,319,97.7,318.1,98.8z"/>
		<path class="st1" d="M308.6,80.3c-0.9,1.1-2.2,1.4-2.9,0.7c-0.8-0.7-0.7-2.1,0.2-3.2c0.9-1.1,2.2-1.4,2.9-0.7
			C309.6,77.7,309.5,79.2,308.6,80.3z"/>
		<path class="st1" d="M319.8,64c-0.9,1.1-2.2,1.4-2.9,0.7c-0.8-0.7-0.7-2.1,0.2-3.2c0.9-1.1,2.2-1.4,2.9-0.7
			C320.7,61.5,320.6,63,319.8,64z"/>
		<polygon class="st1" points="337.4,80.1 330.7,66.5 331.8,65.6 338.5,79.2 		"/>
		<polygon class="st1" points="315,96.8 307.2,81 308.4,80 316.2,95.8 		"/>
		<polygon class="st1" points="340.3,106.2 321.6,112.6 321.6,111.2 340.3,104.8 		"/>
		<polygon class="st1" points="354.6,103 342.1,105.6 342.2,104.1 354.8,101.6 		"/>
		<polygon class="st1" points="329.8,65.9 318.7,63.1 319.3,61.6 330.5,64.5 		"/>
		<polygon class="st1" points="362.9,89.5 355.3,103 354.3,102.5 361.8,89 		"/>
		<polygon class="st1" points="360.5,79.1 362.1,89.8 360.7,90.6 359.1,79.8 		"/>
		<polygon class="st1" points="305.4,70.8 317.8,62.1 318.3,63.6 305.9,72.2 		"/>
		<polygon class="st1" points="313.4,112.9 321.6,110.8 321.5,112.4 313.3,114.5 		"/>
		<polygon class="st1" points="317.5,97.6 314.8,113.4 313.3,113.6 316,97.7 		"/>
		<polygon class="st1" points="353.9,76.5 360.1,78.9 359.4,80.4 353.1,78.1 		"/>
		<polygon class="st1" points="306.6,71.1 307.4,78.8 306,79.5 305.2,71.7 		"/>
		<polygon class="st1" points="354.4,78.2 339.2,82.1 339.3,80.6 354.5,76.7 		"/>
	</g>
	<circle class="st1" cx="255.1" cy="468" r="3.9"/>
	<circle class="st1" cx="38.8" cy="100.1" r="7.3"/>
	<circle class="st1" cx="172.9" cy="489.6" r="3.9"/>
	<circle class="st1" cx="130" cy="429.1" r="3.9"/>
	
		<ellipse transform="matrix(0.3878 -0.9217 0.9217 0.3878 -137.8263 786.2821)" class="st1" cx="523" cy="496.9" rx="7.3" ry="7.3"/>
	<circle class="st1" cx="232.7" cy="427.5" r="3.9"/>
	<ellipse transform="matrix(0.3878 -0.9217 0.9217 0.3878 58.7369 209.4774)" class="st1" cx="187.1" cy="60.5" rx="7.3" ry="7.3"/>
	<circle class="st1" cx="523" cy="54.3" r="7.3"/>
	<ellipse transform="matrix(0.9915 -0.1299 0.1299 0.9915 -8.6378 28.2773)" class="st1" cx="212.4" cy="80.3" rx="3" ry="3"/>
	<ellipse transform="matrix(0.2647 -0.9643 0.9643 0.2647 54.5331 89.9294)" class="st1" cx="86.2" cy="9.2" rx="3" ry="3"/>
	<ellipse transform="matrix(0.9915 -0.1299 0.1299 0.9915 -32.2041 61.7992)" class="st1" cx="457.5" cy="277.7" rx="3" ry="3"/>
	<ellipse transform="matrix(0.2647 -0.9643 0.9643 0.2647 33.3766 179.9341)" class="st1" cx="134.7" cy="68.1" rx="3" ry="3"/>
	<ellipse transform="matrix(0.9915 -0.1299 0.1299 0.9915 -35.6135 60.0651)" class="st1" cx="442.5" cy="303" rx="3" ry="3"/>
	<ellipse transform="matrix(0.2647 -0.9643 0.9643 0.2647 -126.7532 873.96)" class="st1" cx="509.7" cy="520.1" rx="3" ry="3"/>
	<ellipse transform="matrix(0.2647 -0.9643 0.9643 0.2647 -474.7495 465.353)" class="st1" cx="67.8" cy="544" rx="3" ry="3"/>
	<ellipse transform="matrix(0.9915 -0.1299 0.1299 0.9915 -41.0807 69.5853)" class="st1" cx="512.7" cy="349.6" rx="3" ry="3"/>
	<ellipse transform="matrix(0.2524 -0.9676 0.9676 0.2524 -62.5806 490.0034)" class="st1" cx="285.8" cy="285.5" rx="3" ry="3"/>
	<ellipse transform="matrix(0.2524 -0.9676 0.9676 0.2524 -47.0329 710.3638)" class="st1" cx="436.2" cy="385.6" rx="3" ry="3"/>
	<ellipse transform="matrix(0.3754 -0.9269 0.9269 0.3754 174.332 400.8422)" class="st1" cx="384.6" cy="71.1" rx="3" ry="3"/>
	<ellipse transform="matrix(0.3754 -0.9269 0.9269 0.3754 156.8252 326.7922)" class="st1" cx="320.9" cy="47" rx="3" ry="3"/>
	<ellipse transform="matrix(0.9915 -0.1299 0.1299 0.9915 -10.6623 58.6705)" class="st1" cx="444.3" cy="111" rx="3" ry="3"/>
	<ellipse transform="matrix(0.2524 -0.9676 0.9676 0.2524 132.6531 465.7708)" class="st1" cx="367.7" cy="147" rx="3" ry="3"/>
	<ellipse transform="matrix(0.2524 -0.9676 0.9676 0.2524 34.0006 445.0461)" class="st1" cx="305" cy="200.5" rx="3" ry="3"/>
	<ellipse transform="matrix(0.2524 -0.9676 0.9676 0.2524 15.07 311.914)" class="st1" cx="209.4" cy="146.2" rx="3" ry="3"/>
	<ellipse transform="matrix(0.2524 -0.9676 0.9676 0.2524 139.2558 588.28)" class="st1" cx="450.3" cy="204" rx="3" ry="3"/>
	<ellipse transform="matrix(0.2524 -0.9676 0.9676 0.2524 8.6922 346.3905)" class="st1" cx="228.5" cy="167.6" rx="3" ry="3"/>
	<ellipse transform="matrix(0.6078 -0.7941 0.7941 0.6078 -40.1442 188.2931)" class="st1" cx="170.6" cy="134.8" rx="3" ry="3"/>
	<ellipse transform="matrix(0.2524 -0.9676 0.9676 0.2524 -2.8324 434.543)" class="st1" cx="279.8" cy="219.1" rx="3" ry="3"/>
	<ellipse transform="matrix(0.9912 -0.1324 0.1324 0.9912 -15.9016 15.2205)" class="st1" cx="106.5" cy="127.2" rx="3" ry="3"/>
	<ellipse transform="matrix(0.8623 -0.5064 0.5064 0.8623 -107.9338 122.2992)" class="st1" cx="170.9" cy="259.6" rx="3" ry="3"/>
	<ellipse transform="matrix(0.9912 -0.1324 0.1324 0.9912 -20.0231 12.453)" class="st1" cx="83.7" cy="156.8" rx="3" ry="3"/>
	<ellipse transform="matrix(0.8623 -0.5064 0.5064 0.8623 -146.2087 78.2542)" class="st1" cx="70.8" cy="308" rx="3" ry="3"/>
	<circle class="st1" cx="298.9" cy="292.7" r="7.3"/>
</g>
<g id="heart">
</g>
<g id="star">
	<g>
		<polygon class="st2" points="406.6,458.3 403,461.9 404.4,469.7 405.2,471.2 397.4,467.5 388.7,471.8 390.3,462.9 383.1,456.6 
			390.3,455.6 390.6,455.8 393.8,455.3 394.8,453.2 397.2,448.2 400.8,455.2 405.2,455.8 408.6,456.3 		"/>
		<polygon class="st1" points="406.6,458.3 403,461.9 404.4,469.7 404.4,469.7 404.3,469.6 397.4,466.1 390.4,469.8 391.7,462 
			386,456.5 390.6,455.8 393.8,455.3 394.8,453.2 397.2,448.2 400.8,455.2 405.2,455.8 408.6,456.3 		"/>
		<path class="st2" d="M375.7,439.9c0,1.7-1.4,3.1-3.1,3.1c-0.4,0-0.8-0.1-1.2-0.2c-0.3-0.1-0.6-0.3-0.9-0.5c-0.6-0.6-1-1.4-1-2.3
			c0-1.7,1.4-3.1,3.1-3.1c0.8,0,1.5,0.3,2.1,0.8c0.3,0.2,0.5,0.5,0.6,0.8C375.5,438.9,375.7,439.4,375.7,439.9z"/>
		<path class="st2" d="M424.9,483.6c0,1.7-1.4,3.1-3.1,3.1c-0.6,0-1.1-0.2-1.6-0.4c-0.3-0.2-0.6-0.4-0.8-0.7c-0.5-0.5-0.7-1.2-0.7-2
			c0-1.7,1.4-3.1,3.1-3.1c0.6,0,1.2,0.2,1.7,0.5c0.3,0.2,0.5,0.4,0.8,0.7C424.6,482.2,424.9,482.9,424.9,483.6z"/>
		<path class="st2" d="M374.6,437.6c-1.5,1.4-2.9,3-4.1,4.6c0.3,0.2,0.5,0.4,0.9,0.5c1.2-1.6,2.5-3,3.9-4.4
			C375.1,438.1,374.9,437.8,374.6,437.6z M397.3,428.7c-4.7,0-9.2,1-13.3,2.8v1.1c4.1-1.8,8.6-2.9,13.3-2.9
			c17.8,0,32.3,14.5,32.3,32.3c0,4.6-1,9-2.7,12.9h1.1c1.7-4,2.6-8.3,2.6-12.9C430.6,443.6,415.7,428.7,397.3,428.7z M423.4,481
			c-1.2,1.7-2.6,3.2-4.1,4.6c0.2,0.3,0.5,0.5,0.8,0.7c1.5-1.4,2.8-2.9,4-4.6C424,481.4,423.7,481.2,423.4,481z M409.3,492
			c-3.7,1.5-7.8,2.3-12.1,2.3c-17.8,0-32.3-14.5-32.3-32.3c0-5,1.1-9.7,3.1-13.9H367c-1.9,4.2-3,8.9-3,13.9
			c0,18.4,14.9,33.3,33.3,33.3c5,0,9.7-1.1,14-3.1h-1.9V492z"/>
		<path class="st2" d="M375.7,439.9c0,1.7-1.4,3.1-3.1,3.1c-0.4,0-0.8-0.1-1.2-0.2c-0.3-0.1-0.6-0.3-0.9-0.5c-0.6-0.6-1-1.4-1-2.3
			c0-1.7,1.4-3.1,3.1-3.1c0.8,0,1.5,0.3,2.1,0.8c0.3,0.2,0.5,0.5,0.6,0.8C375.5,438.9,375.7,439.4,375.7,439.9z"/>
		<path class="st2" d="M424.9,483.6c0,1.7-1.4,3.1-3.1,3.1c-0.6,0-1.1-0.2-1.6-0.4c-0.3-0.2-0.6-0.4-0.8-0.7c-0.5-0.5-0.7-1.2-0.7-2
			c0-1.7,1.4-3.1,3.1-3.1c0.6,0,1.2,0.2,1.7,0.5c0.3,0.2,0.5,0.4,0.8,0.7C424.6,482.2,424.9,482.9,424.9,483.6z"/>
	</g>
	<g>
		<polygon class="st2" points="154.8,175.6 151.2,179.2 152.6,186.9 153.5,188.5 145.6,184.8 136.9,189.1 138.5,180.2 131.3,173.9 
			138.5,172.8 138.8,173.1 142,172.6 143,170.4 145.4,165.5 149,172.5 153.4,173.1 156.9,173.6 		"/>
		<polygon class="st1" points="154.8,175.6 151.2,179.2 152.6,186.9 152.6,187 152.6,186.9 145.6,183.3 138.6,187.1 139.9,179.3 
			134.2,173.8 138.8,173.1 142,172.6 143,170.4 145.4,165.5 149,172.5 153.4,173.1 156.9,173.6 		"/>
		<path class="st2" d="M123.9,157.2c0,1.7-1.4,3.1-3.1,3.1c-0.4,0-0.8-0.1-1.2-0.2c-0.3-0.1-0.6-0.3-0.9-0.5c-0.6-0.6-1-1.4-1-2.3
			c0-1.7,1.4-3.1,3.1-3.1c0.8,0,1.5,0.3,2.1,0.8c0.3,0.2,0.5,0.5,0.6,0.8C123.7,156.1,123.9,156.7,123.9,157.2z"/>
		<path class="st2" d="M173.1,200.9c0,1.7-1.4,3.1-3.1,3.1c-0.6,0-1.1-0.2-1.6-0.4c-0.3-0.2-0.6-0.4-0.8-0.7c-0.5-0.5-0.7-1.2-0.7-2
			c0-1.7,1.4-3.1,3.1-3.1c0.6,0,1.2,0.2,1.7,0.5c0.3,0.2,0.5,0.4,0.8,0.7C172.8,199.5,173.1,200.2,173.1,200.9z"/>
		<path class="st2" d="M122.8,154.9c-1.5,1.4-2.9,3-4.1,4.6c0.3,0.2,0.5,0.4,0.9,0.5c1.2-1.6,2.5-3,3.9-4.4
			C123.3,155.4,123.1,155.1,122.8,154.9z M145.5,146c-4.7,0-9.2,1-13.3,2.8v1.1c4.1-1.8,8.6-2.9,13.3-2.9
			c17.8,0,32.3,14.5,32.3,32.3c0,4.6-1,9-2.7,12.9h1.1c1.7-4,2.6-8.3,2.6-12.9C178.8,160.9,163.9,146,145.5,146z M171.7,198.3
			c-1.2,1.7-2.6,3.2-4.1,4.6c0.2,0.3,0.5,0.5,0.8,0.7c1.5-1.4,2.8-2.9,4-4.6C172.2,198.7,172,198.5,171.7,198.3z M157.6,209.3
			c-3.7,1.5-7.8,2.3-12.1,2.3c-17.8,0-32.3-14.5-32.3-32.3c0-5,1.1-9.7,3.1-13.9h-1.1c-1.9,4.2-3,8.9-3,13.9
			c0,18.4,14.9,33.3,33.3,33.3c5,0,9.7-1.1,14-3.1h-1.9V209.3z"/>
		<path class="st2" d="M123.9,157.2c0,1.7-1.4,3.1-3.1,3.1c-0.4,0-0.8-0.1-1.2-0.2c-0.3-0.1-0.6-0.3-0.9-0.5c-0.6-0.6-1-1.4-1-2.3
			c0-1.7,1.4-3.1,3.1-3.1c0.8,0,1.5,0.3,2.1,0.8c0.3,0.2,0.5,0.5,0.6,0.8C123.7,156.1,123.9,156.7,123.9,157.2z"/>
		<path class="st2" d="M173.1,200.9c0,1.7-1.4,3.1-3.1,3.1c-0.6,0-1.1-0.2-1.6-0.4c-0.3-0.2-0.6-0.4-0.8-0.7c-0.5-0.5-0.7-1.2-0.7-2
			c0-1.7,1.4-3.1,3.1-3.1c0.6,0,1.2,0.2,1.7,0.5c0.3,0.2,0.5,0.4,0.8,0.7C172.8,199.5,173.1,200.2,173.1,200.9z"/>
	</g>
	<g>
		<polygon class="st2" points="561.6,114.3 558,117.8 559.4,125.6 560.2,127.2 552.4,123.5 543.6,127.8 545.2,118.8 538.1,112.5 
			545.3,111.5 545.5,111.7 548.7,111.2 549.8,109.1 552.2,104.1 555.7,111.2 560.1,111.8 563.6,112.3 		"/>
		<polygon class="st1" points="561.6,114.3 558,117.8 559.4,125.6 559.4,125.6 559.3,125.6 552.3,122 545.4,125.7 546.6,117.9 
			540.9,112.5 545.5,111.7 548.7,111.2 549.8,109.1 552.2,104.1 555.7,111.2 560.1,111.8 563.6,112.3 		"/>
		<path class="st2" d="M530.6,95.9c0,1.7-1.4,3.1-3.1,3.1c-0.4,0-0.8-0.1-1.2-0.2c-0.3-0.1-0.6-0.3-0.9-0.5c-0.6-0.6-1-1.4-1-2.3
			c0-1.7,1.4-3.1,3.1-3.1c0.8,0,1.5,0.3,2.1,0.8c0.3,0.2,0.5,0.5,0.6,0.8C530.5,94.8,530.6,95.3,530.6,95.9z"/>
		<path class="st2" d="M579.8,139.6c0,1.7-1.4,3.1-3.1,3.1c-0.6,0-1.1-0.2-1.6-0.4c-0.3-0.2-0.6-0.4-0.8-0.7c-0.5-0.5-0.7-1.2-0.7-2
			c0-1.7,1.4-3.1,3.1-3.1c0.6,0,1.2,0.2,1.7,0.5c0.3,0.2,0.5,0.4,0.8,0.7C579.6,138.2,579.8,138.8,579.8,139.6z"/>
		<path class="st2" d="M529.6,93.5c-1.5,1.4-2.9,3-4.1,4.6c0.3,0.2,0.5,0.4,0.9,0.5c1.2-1.6,2.5-3,3.9-4.4
			C530.1,94,529.8,93.8,529.6,93.5z M552.3,84.6c-4.7,0-9.2,1-13.3,2.8v1.1c4.1-1.8,8.6-2.9,13.3-2.9c17.8,0,32.3,14.5,32.3,32.3
			c0,4.6-1,9-2.7,12.9h1.1c1.7-4,2.6-8.3,2.6-12.9C585.6,99.6,570.7,84.6,552.3,84.6z M578.4,137c-1.2,1.7-2.6,3.2-4.1,4.6
			c0.2,0.3,0.5,0.5,0.8,0.7c1.5-1.4,2.8-2.9,4-4.6C579,137.4,578.7,137.1,578.4,137z M564.3,148c-3.7,1.5-7.8,2.3-12.1,2.3
			c-17.8,0-32.3-14.5-32.3-32.3c0-5,1.1-9.7,3.1-13.9h-1.1c-1.9,4.2-3,8.9-3,13.9c0,18.4,14.9,33.3,33.3,33.3c5,0,9.7-1.1,14-3.1
			h-1.9V148z"/>
		<path class="st2" d="M530.6,95.9c0,1.7-1.4,3.1-3.1,3.1c-0.4,0-0.8-0.1-1.2-0.2c-0.3-0.1-0.6-0.3-0.9-0.5c-0.6-0.6-1-1.4-1-2.3
			c0-1.7,1.4-3.1,3.1-3.1c0.8,0,1.5,0.3,2.1,0.8c0.3,0.2,0.5,0.5,0.6,0.8C530.5,94.8,530.6,95.3,530.6,95.9z"/>
		<path class="st2" d="M579.8,139.6c0,1.7-1.4,3.1-3.1,3.1c-0.6,0-1.1-0.2-1.6-0.4c-0.3-0.2-0.6-0.4-0.8-0.7c-0.5-0.5-0.7-1.2-0.7-2
			c0-1.7,1.4-3.1,3.1-3.1c0.6,0,1.2,0.2,1.7,0.5c0.3,0.2,0.5,0.4,0.8,0.7C579.6,138.2,579.8,138.8,579.8,139.6z"/>
	</g>
</g>
<g id="star_shooting">
	<g>
		<polygon class="st2" points="132.7,580.4 129.1,576.9 130.5,569.1 131.4,567.5 123.5,571.2 114.8,566.9 116.4,575.9 109.2,582.2 
			116.4,583.2 116.7,583 119.9,583.5 120.9,585.6 123.3,590.6 126.9,583.5 131.3,582.9 134.7,582.5 		"/>
		<polygon class="st1" points="132.7,580.4 129.1,576.9 130.5,569.1 130.5,569.1 130.4,569.1 123.5,572.7 116.5,569 117.8,576.8 
			112.1,582.2 116.7,583 119.9,583.5 120.9,585.6 123.3,590.6 126.9,583.5 131.3,582.9 134.7,582.5 		"/>
		<rect x="84.9" y="581" class="st2" width="19.3" height="2.3"/>
		<rect x="139.6" y="581" class="st2" width="19.3" height="2.3"/>
		
			<rect x="131" y="557.3" transform="matrix(0.7656 -0.6434 0.6434 0.7656 -326.3229 221.3782)" class="st2" width="19.3" height="2.3"/>
		
			<rect x="113.8" y="550.9" transform="matrix(6.123234e-17 -1 1 6.123234e-17 -428.687 675.5157)" class="st2" width="19.3" height="2.3"/>
		
			<rect x="123.7" y="554.9" transform="matrix(0.2867 -0.958 0.958 0.2867 -439.2747 522.093)" class="st2" width="14.6" height="2.3"/>
		
			<rect x="136.9" y="564.6" transform="matrix(0.9474 -0.32 0.32 0.9474 -173.4758 75.9251)" class="st2" width="14.6" height="2.3"/>
		
			<rect x="139.8" y="573.1" transform="matrix(0.9939 -0.1106 0.1106 0.9939 -62.6323 19.8044)" class="st2" width="14.6" height="2.3"/>
		
			<rect x="107.5" y="554.9" transform="matrix(-0.2867 -0.958 0.958 -0.2867 -385.0078 825.4189)" class="st2" width="14.6" height="2.3"/>
		
			<rect x="95.6" y="557.3" transform="matrix(-0.7656 -0.6434 0.6434 -0.7656 -173.5835 1053.6511)" class="st2" width="19.3" height="2.3"/>
		
			<rect x="94.9" y="564.6" transform="matrix(-0.9474 -0.32 0.32 -0.9474 18.0806 1134.4836)" class="st2" width="14.6" height="2.3"/>
		
			<rect x="91.8" y="573.1" transform="matrix(-0.9939 -0.1106 0.1106 -0.9939 134.152 1156.0479)" class="st2" width="14.6" height="2.3"/>
	</g>
	<g>
		<polygon class="st2" points="579.5,292.1 576,295.7 568.2,294.3 566.6,293.5 570.3,301.3 566,310.1 575,308.5 581.3,315.6 
			582.3,308.4 582.1,308.2 582.6,304.9 584.7,303.9 589.7,301.5 582.6,297.9 582,293.6 581.5,290.1 		"/>
		<polygon class="st1" points="579.5,292.1 576,295.7 568.2,294.3 568.2,294.3 568.2,294.4 571.8,301.3 568.1,308.3 575.9,307.1 
			581.3,312.8 582.1,308.2 582.6,304.9 584.7,303.9 589.7,301.5 582.6,297.9 582,293.6 581.5,290.1 		"/>
		
			<rect x="571.7" y="329.2" transform="matrix(4.488416e-11 -1 1 4.488416e-11 250.9437 911.6229)" class="st2" width="19.3" height="2.3"/>
		
			<rect x="571.7" y="274.4" transform="matrix(4.488416e-11 -1 1 4.488416e-11 305.6937 856.8729)" class="st2" width="19.3" height="2.3"/>
		
			<rect x="547.9" y="283.1" transform="matrix(-0.6434 -0.7656 0.7656 -0.6434 698.6418 893.963)" class="st2" width="19.3" height="2.3"/>
		
			<rect x="541.6" y="300.3" transform="matrix(-1 -4.488422e-11 4.488422e-11 -1 1102.3967 602.8729)" class="st2" width="19.3" height="2.3"/>
		
			<rect x="547.8" y="292.7" transform="matrix(-0.958 -0.2867 0.2867 -0.958 1002.7102 734.5818)" class="st2" width="14.6" height="2.3"/>
		
			<rect x="557.5" y="279.4" transform="matrix(-0.32 -0.9474 0.9474 -0.32 479.7956 905.5334)" class="st2" width="14.6" height="2.3"/>
		
			<rect x="566.1" y="276.5" transform="matrix(-0.1106 -0.9939 0.9939 -0.1106 360.8368 878.3046)" class="st2" width="14.6" height="2.3"/>
		
			<rect x="547.8" y="308.9" transform="matrix(-0.958 0.2867 -0.2867 -0.958 1175.8652 447.9646)" class="st2" width="14.6" height="2.3"/>
		
			<rect x="547.9" y="318.5" transform="matrix(-0.6434 0.7656 -0.7656 -0.6434 1160.9819 98.4947)" class="st2" width="19.3" height="2.3"/>
		
			<rect x="557.5" y="321.4" transform="matrix(-0.32 0.9474 -0.9474 -0.32 1051.2504 -109.3142)" class="st2" width="14.6" height="2.3"/>
		
			<rect x="566.1" y="324.5" transform="matrix(-0.1106 0.9939 -0.9939 -0.1106 960.5383 -208.144)" class="st2" width="14.6" height="2.3"/>
	</g>
	<g>
		<polygon class="st2" points="156.4,16.3 152.8,19.9 154.2,27.7 155,29.2 147.1,25.5 138.4,29.8 140,20.9 132.9,14.6 140.1,13.6 
			140.3,13.8 143.5,13.3 144.6,11.2 147,6.2 150.5,13.3 154.9,13.9 158.4,14.3 		"/>
		<polygon class="st1" points="156.4,16.3 152.8,19.9 154.2,27.7 154.2,27.7 154.1,27.6 147.1,24.1 140.2,27.8 141.4,20 135.7,14.5 
			140.3,13.8 143.5,13.3 144.6,11.2 147,6.2 150.5,13.3 154.9,13.9 158.4,14.3 		"/>
		<rect x="108.5" y="13.4" class="st2" width="19.3" height="2.3"/>
		<rect x="163.3" y="13.4" class="st2" width="19.3" height="2.3"/>
		
			<rect x="154.6" y="37.2" transform="matrix(0.7656 0.6434 -0.6434 0.7656 63.1592 -96.6772)" class="st2" width="19.3" height="2.3"/>
		
			<rect x="137.4" y="43.5" transform="matrix(-1.836970e-16 1 -1 -1.836970e-16 191.723 -102.3719)" class="st2" width="19.3" height="2.3"/>
		
			<rect x="147.3" y="39.6" transform="matrix(0.2867 0.958 -0.958 0.2867 149.3064 -119.0555)" class="st2" width="14.6" height="2.3"/>
		<rect x="160.6" y="29.9" transform="matrix(0.9474 0.32 -0.32 0.9474 18.7582 -52.101)" class="st2" width="14.6" height="2.3"/>
		
			<rect x="163.5" y="21.3" transform="matrix(0.9939 0.1106 -0.1106 0.9939 3.5347 -18.7557)" class="st2" width="14.6" height="2.3"/>
		
			<rect x="131.1" y="39.6" transform="matrix(-0.2867 0.958 -0.958 -0.2867 217.1247 -80.1848)" class="st2" width="14.6" height="2.3"/>
		
			<rect x="119.2" y="37.2" transform="matrix(-0.7656 0.6434 -0.6434 -0.7656 252.084 -15.2075)" class="st2" width="19.3" height="2.3"/>
		<rect x="118.6" y="29.9" transform="matrix(-0.9474 0.32 -0.32 -0.9474 255.095 20.119)" class="st2" width="14.6" height="2.3"/>
		
			<rect x="115.5" y="21.3" transform="matrix(-0.9939 0.1106 -0.1106 -0.9939 247.2951 31.228)" class="st2" width="14.6" height="2.3"/>
	</g>
</g>
</svg>
