<?xml version="1.0" encoding="utf-8"?>
<!-- Generator: Adobe Illustrator 21.1.0, SVG Export Plug-In . SVG Version: 6.00 Build 0)  -->
<svg version="1.1" id="Layer_1" xmlns="http://www.w3.org/2000/svg" xmlns:xlink="http://www.w3.org/1999/xlink" x="0px" y="0px"
	 viewBox="0 0 300 300" style="enable-background:new 0 0 300 300;" xml:space="preserve">
<style type="text/css">
	.st0{fill:#9CDBF1;}
	.st1{fill:#FFFFFF;}
	.st2{fill:#CE3030;}
	.st3{fill:#CCC4C6;}
</style>
<path class="st0" d="M241.9,84.7v82.1c0,6.6-5.4,12-12,12H113.1l-24.8,48.5l-26.5-51.8l-3.7-7.2c0-0.1,0-0.1,0-0.2
	c0-0.4-0.1-0.9-0.1-1.3V84.7c0-6.6,5.4-12,12-12h159.8C236.5,72.7,241.9,78.1,241.9,84.7z"/>
<path class="st0" d="M61.8,175.5c-2-1.8-3.3-4.3-3.7-7.2L61.8,175.5z"/>
<rect x="89.8" y="94.6" class="st1" width="120.4" height="67.3"/>
<path class="st2" d="M170.3,119.7C170.3,119.7,170.3,119.7,170.3,119.7l0,9.9l0,4.6l-4.3,0.2l-10.1,0.6c0,0,0,0,0,0
	c-4.9,0.2-6.8-5.1-5.9-7.7c1-2.8,5.5-3.7,10.2-2.1c0.4,0.1,0.7,0.3,1.1,0.4c-0.2-0.4-0.4-0.9-0.6-1.4c-1.6-4.6-0.7-9.2,2.1-10.2
	C165.3,113.2,170.3,115.4,170.3,119.7z"/>
<path class="st0" d="M58.2,168.3l-0.1-0.2h0.1C58.2,168.2,58.2,168.3,58.2,168.3z"/>
<path class="st0" d="M99.3-15C99.3-15,99.3-15,99.3-15L99.3-15L99.3-15z"/>
<path class="st0" d="M141.5-15L141.5-15C141.4-14.9,141.4-15,141.5-15L141.5-15z"/>
<polygon class="st3" points="150,132.9 89.8,95.2 210.2,95.2 "/>
<polygon class="st1" points="150,125.8 89.8,94.6 210.2,94.6 "/>
<path class="st2" d="M185.5,141.4C185.5,141.5,185.5,141.5,185.5,141.4l-2.2,9.7l-1,4.5l-4.3-0.7l-10-1.7c0,0,0,0,0,0
	c-4.8-0.9-5.5-6.5-4-8.8c1.6-2.5,6.2-2.4,10.4,0.3c0.3,0.2,0.7,0.4,1,0.7c-0.1-0.5-0.2-1-0.2-1.5c-0.5-4.9,1.4-9.1,4.3-9.5
	C182.1,134,186.5,137.2,185.5,141.4z"/>
<path class="st2" d="M209.6,166.5C209.6,166.5,209.5,166.5,209.6,166.5l-8.7,4.8l-4,2.2l-2.3-3.7l-5.4-8.6c0,0,0,0,0,0
	c-2.5-4.2,1.2-8.4,3.9-8.9c2.9-0.5,5.9,3.1,6.7,7.9c0.1,0.4,0.1,0.8,0.1,1.2c0.3-0.4,0.6-0.8,1-1.2c3.3-3.7,7.7-5,9.9-3.1
	C212.8,159,213.4,164.5,209.6,166.5z"/>
</svg>
